# block object, generated from the hand-authored decomposition
v -0.055990 0.020696 -0.024538
v 0.071741 0.012395 -0.024538
v 0.073330 0.036844 -0.024538
v -0.054401 0.045145 -0.024538
v -0.055990 0.020696 0.028685
v 0.071741 0.012395 0.028685
v 0.073330 0.036844 0.028685
v -0.054401 0.045145 0.028685
v -0.075870 0.027250 -0.024538
v -0.075870 -0.062750 -0.024538
v -0.053870 -0.062750 -0.024538
v -0.053870 0.027250 -0.024538
v -0.075870 0.027250 0.028685
v -0.075870 -0.062750 0.028685
v -0.053870 -0.062750 0.028685
v -0.053870 0.027250 0.028685
v -0.012370 0.023250 -0.024538
v -0.012370 -0.030750 -0.024538
v 0.020630 -0.030750 -0.024538
v 0.020630 0.023250 -0.024538
v -0.012370 0.023250 0.028685
v -0.012370 -0.030750 0.028685
v 0.020630 -0.030750 0.028685
v 0.020630 0.023250 0.028685
v 0.069690 -0.055166 -0.024538
v 0.078892 0.014731 -0.024538
v 0.060550 0.017146 -0.024538
v 0.051348 -0.052751 -0.024538
v 0.069690 -0.055166 0.028685
v 0.078892 0.014731 0.028685
v 0.060550 0.017146 0.028685
v 0.051348 -0.052751 0.028685
v -0.075741 -0.035927 -0.024538
v -0.039741 0.026427 -0.024538
v -0.059659 0.037927 -0.024538
v -0.095659 -0.024427 -0.024538
v -0.075741 -0.035927 0.028685
v -0.039741 0.026427 0.028685
v -0.059659 0.037927 0.028685
v -0.095659 -0.024427 0.028685
f 1 3 2
f 1 4 3
f 5 7 8
f 5 6 7
f 1 6 5
f 1 2 6
f 2 7 6
f 2 3 7
f 3 8 7
f 3 4 8
f 4 5 8
f 4 1 5
f 9 11 10
f 9 12 11
f 13 15 16
f 13 14 15
f 9 14 13
f 9 10 14
f 10 15 14
f 10 11 15
f 11 16 15
f 11 12 16
f 12 13 16
f 12 9 13
f 17 19 18
f 17 20 19
f 21 23 24
f 21 22 23
f 17 22 21
f 17 18 22
f 18 23 22
f 18 19 23
f 19 24 23
f 19 20 24
f 20 21 24
f 20 17 21
f 25 27 26
f 25 28 27
f 29 31 32
f 29 30 31
f 25 30 29
f 25 26 30
f 26 31 30
f 26 27 31
f 27 32 31
f 27 28 32
f 28 29 32
f 28 25 29
f 33 35 34
f 33 36 35
f 37 39 40
f 37 38 39
f 33 38 37
f 33 34 38
f 34 39 38
f 34 35 39
f 35 40 39
f 35 36 40
f 36 37 40
f 36 33 37
