# block object, generated from the hand-authored decomposition
v -0.076508 -0.009068 -0.025785
v 0.075338 -0.015906 -0.025785
v 0.076508 0.010068 -0.025785
v -0.075338 0.016906 -0.025785
v -0.076508 -0.009068 0.026185
v 0.075338 -0.015906 0.026185
v 0.076508 0.010068 0.026185
v -0.075338 0.016906 0.026185
v -0.076000 -0.030000 -0.025785
v -0.052000 -0.030000 -0.025785
v -0.052000 0.026000 -0.025785
v -0.076000 0.026000 -0.025785
v -0.076000 -0.030000 0.026185
v -0.052000 -0.030000 0.026185
v -0.052000 0.026000 0.026185
v -0.076000 0.026000 0.026185
v 0.054000 -0.026000 -0.025785
v 0.078000 -0.026000 -0.025785
v 0.078000 0.026000 -0.025785
v 0.054000 0.026000 -0.025785
v 0.054000 -0.026000 0.026185
v 0.078000 -0.026000 0.026185
v 0.078000 0.026000 0.026185
v 0.054000 0.026000 0.026185
f 1 3 2
f 1 4 3
f 5 7 8
f 5 6 7
f 1 6 5
f 1 2 6
f 2 7 6
f 2 3 7
f 3 8 7
f 3 4 8
f 4 5 8
f 4 1 5
f 9 11 10
f 9 12 11
f 13 15 16
f 13 14 15
f 9 14 13
f 9 10 14
f 10 15 14
f 10 11 15
f 11 16 15
f 11 12 16
f 12 13 16
f 12 9 13
f 17 19 18
f 17 20 19
f 21 23 24
f 21 22 23
f 17 22 21
f 17 18 22
f 18 23 22
f 18 19 23
f 19 24 23
f 19 20 24
f 20 21 24
f 20 17 21
