# block object, generated from the hand-authored decomposition
v 0.043140 0.012780 -0.026315
v 0.043140 -0.067220 -0.026315
v 0.061140 -0.067220 -0.026315
v 0.061140 0.012780 -0.026315
v 0.043140 0.012780 0.025855
v 0.043140 -0.067220 0.025855
v 0.061140 -0.067220 0.025855
v 0.061140 0.012780 0.025855
v -0.041860 -0.036220 -0.026315
v -0.041860 0.049780 -0.026315
v -0.065860 0.049780 -0.026315
v -0.065860 -0.036220 -0.026315
v -0.041860 -0.036220 0.025855
v -0.041860 0.049780 0.025855
v -0.065860 0.049780 0.025855
v -0.065860 -0.036220 0.025855
v -0.058058 -0.053808 -0.026315
v 0.036851 -0.088353 -0.026315
v 0.046598 -0.061572 -0.026315
v -0.048311 -0.027027 -0.026315
v -0.058058 -0.053808 0.025855
v 0.036851 -0.088353 0.025855
v 0.046598 -0.061572 0.025855
v -0.048311 -0.027027 0.025855
v -0.052620 0.073317 -0.026315
v -0.047705 0.047277 -0.026315
v 0.050560 0.065823 -0.026315
v 0.045645 0.091863 -0.026315
v -0.052620 0.073317 0.025855
v -0.047705 0.047277 0.025855
v 0.050560 0.065823 0.025855
v 0.045645 0.091863 0.025855
v 0.001140 0.015780 -0.026315
v 0.001140 -0.008220 -0.026315
v 0.043140 -0.008220 -0.026315
v 0.043140 0.015780 -0.026315
v 0.001140 0.015780 0.025855
v 0.001140 -0.008220 0.025855
v 0.043140 -0.008220 0.025855
v 0.043140 0.015780 0.025855
f 1 2 3
f 1 3 4
f 5 8 7
f 5 7 6
f 1 5 6
f 1 6 2
f 2 6 7
f 2 7 3
f 3 7 8
f 3 8 4
f 4 8 5
f 4 5 1
f 9 10 11
f 9 11 12
f 13 16 15
f 13 15 14
f 9 13 14
f 9 14 10
f 10 14 15
f 10 15 11
f 11 15 16
f 11 16 12
f 12 16 13
f 12 13 9
f 17 18 19
f 17 19 20
f 21 24 23
f 21 23 22
f 17 21 22
f 17 22 18
f 18 22 23
f 18 23 19
f 19 23 24
f 19 24 20
f 20 24 21
f 20 21 17
f 25 26 27
f 25 27 28
f 29 32 31
f 29 31 30
f 25 29 30
f 25 30 26
f 26 30 31
f 26 31 27
f 27 31 32
f 27 32 28
f 28 32 29
f 28 29 25
f 33 34 35
f 33 35 36
f 37 40 39
f 37 39 38
f 33 37 38
f 33 38 34
f 34 38 39
f 34 39 35
f 35 39 40
f 35 40 36
f 36 40 37
f 36 37 33
