# generated by normalize_glyphs.py from glyph_4.obj
# x=width y=cap-height(0.103) z=thickness(0.025), metres, centred
v -0.045084 -0.013034 -0.011821
v 0.024486 0.048745 -0.011821
v 0.000832 0.048745 -0.011821
v -0.018091 -0.009833 -0.011821
v 0.008067 -0.009833 -0.011821
v 0.029356 0.008394 -0.011821
v 0.008067 0.008394 -0.011821
v 0.029356 -0.009833 -0.011821
v 0.045218 -0.009833 -0.011821
v 0.045218 -0.028200 -0.011821
v -0.045084 -0.028200 -0.011821
v 0.007372 -0.028200 -0.011821
v 0.007372 -0.048654 -0.011821
v 0.029356 -0.028200 -0.011821
v 0.029356 -0.048654 -0.011821
v -0.045084 -0.013034 0.011821
v 0.000832 0.048745 0.011821
v 0.024486 0.048745 0.011821
v -0.018091 -0.009833 0.011821
v 0.008067 -0.009833 0.011821
v 0.008067 0.008394 0.011821
v 0.029356 0.008394 0.011821
v 0.029356 -0.009833 0.011821
v 0.045218 -0.009833 0.011821
v 0.045218 -0.028200 0.011821
v -0.045084 -0.028200 0.011821
v 0.007372 -0.028200 0.011821
v 0.007372 -0.048654 0.011821
v 0.029356 -0.028200 0.011821
v 0.029356 -0.048654 0.011821
v 0.045910 -0.028892 0.011741
v 0.045218 -0.009833 0.011821
v 0.045910 -0.009141 0.011741
v 0.046535 -0.029517 0.011509
v 0.046535 -0.008516 0.011509
v 0.047031 -0.030013 0.011149
v 0.047031 -0.008021 0.011149
v 0.047349 -0.007702 0.010694
v 0.047459 -0.007593 0.010190
v 0.047349 -0.030331 0.010694
v 0.047459 -0.007593 -0.010190
v 0.047459 -0.030441 0.010190
v 0.047349 -0.030331 -0.010694
v 0.047349 -0.007702 -0.010694
v 0.047031 -0.030013 -0.011149
v 0.047031 -0.008021 -0.011149
v 0.046535 -0.029517 -0.011509
v 0.046535 -0.008516 -0.011509
v 0.045910 -0.009141 -0.011741
v 0.045218 -0.028200 -0.011821
v 0.045218 -0.009833 -0.011821
v 0.030048 -0.028892 0.011741
v 0.045218 -0.028200 0.011821
v 0.030673 -0.029517 0.011509
v 0.031169 -0.030013 0.011149
v 0.031487 -0.030331 0.010694
v 0.031597 -0.030441 0.010190
v 0.031597 -0.030441 -0.010190
v 0.047459 -0.030441 -0.010190
v 0.031487 -0.030331 -0.010694
v 0.031169 -0.030013 -0.011149
v 0.045910 -0.028892 -0.011741
v 0.030673 -0.029517 -0.011509
v 0.030048 -0.028892 -0.011741
v 0.029356 -0.048654 0.011821
v 0.029356 -0.028200 0.011821
v 0.030048 -0.049346 0.011741
v 0.030673 -0.049971 0.011509
v 0.031169 -0.050466 0.011149
v 0.031487 -0.050785 0.010694
v 0.031597 -0.050894 -0.010190
v 0.031487 -0.050785 -0.010694
v 0.031169 -0.050466 -0.011149
v 0.030673 -0.049971 -0.011509
v 0.030048 -0.049346 -0.011741
v 0.029356 -0.048654 -0.011821
v 0.029356 -0.028200 -0.011821
v 0.006679 -0.049346 0.011741
v 0.006055 -0.049971 0.011509
v 0.005559 -0.050466 0.011149
v 0.005241 -0.050785 0.010694
v 0.005131 -0.050894 0.010190
v 0.031597 -0.050894 0.010190
v 0.005131 -0.050894 -0.010190
v 0.005241 -0.050785 -0.010694
v 0.005559 -0.050466 -0.011149
v 0.006055 -0.049971 -0.011509
v 0.007372 -0.048654 -0.011821
v 0.006679 -0.028892 0.011741
v 0.007372 -0.048654 0.011821
v 0.006055 -0.029517 0.011509
v 0.005559 -0.030013 0.011149
v 0.005241 -0.030331 0.010694
v 0.005131 -0.030441 0.010190
v 0.005131 -0.030441 -0.010190
v 0.005241 -0.030331 -0.010694
v 0.005559 -0.030013 -0.011149
v 0.006679 -0.049346 -0.011741
v 0.006055 -0.029517 -0.011509
v 0.006679 -0.028892 -0.011741
v -0.045084 -0.028200 0.011821
v 0.007372 -0.028200 0.011821
v -0.045777 -0.028892 0.011741
v -0.046401 -0.029517 0.011509
v -0.046897 -0.030013 0.011149
v -0.047215 -0.030331 0.010694
v -0.047325 -0.030441 -0.010190
v -0.047215 -0.030331 -0.010694
v -0.046897 -0.030013 -0.011149
v -0.046401 -0.029517 -0.011509
v -0.045777 -0.028892 -0.011741
v -0.045084 -0.028200 -0.011821
v 0.007372 -0.028200 -0.011821
v -0.045777 -0.012805 0.011741
v -0.046401 -0.012598 0.011509
v -0.046897 -0.012434 0.011149
v -0.047215 -0.012328 0.010694
v -0.047325 -0.012292 0.010190
v -0.047325 -0.030441 0.010190
v -0.047325 -0.012292 -0.010190
v -0.047215 -0.012328 -0.010694
v -0.046897 -0.012434 -0.011149
v -0.046401 -0.012598 -0.011509
v -0.045777 -0.012805 -0.011741
v 0.000832 0.048745 0.011821
v -0.045084 -0.013034 0.011821
v 0.000484 0.049437 0.011741
v 0.000170 0.050062 0.011509
v -0.000079 0.050557 0.011149
v -0.000239 0.050876 0.010694
v -0.000294 0.050985 -0.010190
v -0.000239 0.050876 -0.010694
v -0.000079 0.050557 -0.011149
v 0.000170 0.050062 -0.011509
v 0.000484 0.049437 -0.011741
v 0.000832 0.048745 -0.011821
v -0.045084 -0.013034 -0.011821
v 0.024486 0.048745 0.011821
v 0.025845 0.049437 0.011741
v 0.027071 0.050062 0.011509
v 0.028045 0.050557 0.011149
v -0.000294 0.050985 0.010190
v 0.028669 0.050876 0.010694
v 0.028885 0.050985 -0.010190
v 0.028669 0.050876 -0.010694
v 0.028045 0.050557 -0.011149
v 0.027071 0.050062 -0.011509
v 0.025845 0.049437 -0.011741
v 0.024486 0.048745 -0.011821
v -0.016732 -0.009141 0.011741
v -0.015506 -0.008516 0.011509
v -0.014532 -0.008021 0.011149
v -0.013908 -0.007702 0.010694
v -0.013692 -0.007593 0.010190
v 0.028885 0.050985 0.010190
v -0.013692 -0.007593 -0.010190
v -0.013908 -0.007702 -0.010694
v -0.014532 -0.008021 -0.011149
v -0.015506 -0.008516 -0.011509
v -0.016732 -0.009141 -0.011741
v 0.008067 -0.009833 0.011821
v -0.018091 -0.009833 0.011821
v 0.007375 -0.009141 0.011741
v 0.006750 -0.008516 0.011509
v 0.006255 -0.008021 0.011149
v 0.005936 -0.007702 0.010694
v 0.005827 -0.007593 -0.010190
v 0.005936 -0.007702 -0.010694
v 0.006255 -0.008021 -0.011149
v 0.006750 -0.008516 -0.011509
v 0.007375 -0.009141 -0.011741
v 0.008067 -0.009833 -0.011821
v -0.018091 -0.009833 -0.011821
v 0.008067 0.008394 0.011821
v 0.007375 0.009086 0.011741
v 0.006750 0.009711 0.011509
v 0.006255 0.010207 0.011149
v 0.005827 -0.007593 0.010190
v 0.005936 0.010525 0.010694
v 0.005827 0.010635 -0.010190
v 0.005936 0.010525 -0.010694
v 0.006255 0.010207 -0.011149
v 0.006750 0.009711 -0.011509
v 0.007375 0.009086 -0.011741
v 0.008067 0.008394 -0.011821
v 0.030048 0.009086 0.011741
v 0.030673 0.009711 0.011509
v 0.031169 0.010207 0.011149
v 0.031487 0.010525 0.010694
v 0.031597 0.010635 0.010190
v 0.005827 0.010635 0.010190
v 0.031597 0.010635 -0.010190
v 0.031487 0.010525 -0.010694
v 0.031169 0.010207 -0.011149
v 0.030673 0.009711 -0.011509
v 0.030048 0.009086 -0.011741
v 0.029356 0.008394 -0.011821
v 0.030048 -0.009141 0.011741
v 0.029356 0.008394 0.011821
v 0.030673 -0.008516 0.011509
v 0.031169 -0.008021 0.011149
v 0.031487 -0.007702 0.010694
v 0.031597 -0.007593 0.010190
v 0.031597 -0.007593 -0.010190
v 0.031487 -0.007702 -0.010694
v 0.031169 -0.008021 -0.011149
v 0.030673 -0.008516 -0.011509
v 0.030048 -0.009141 -0.011741
v 0.029356 -0.009833 0.011821
v 0.029356 -0.009833 -0.011821
v -0.045151 -0.013079 -0.011549
v 0.024419 0.048699 -0.011549
v 0.000765 0.048699 -0.011549
v -0.018158 -0.009879 -0.011549
v 0.008001 -0.009879 -0.011549
v 0.029289 0.008348 -0.011549
v 0.008001 0.008348 -0.011549
v 0.029289 -0.009879 -0.011549
v 0.045151 -0.009879 -0.011549
v 0.045151 -0.028245 -0.011549
v -0.045151 -0.028245 -0.011549
v 0.007305 -0.028245 -0.011549
v 0.007305 -0.048699 -0.011549
v 0.029289 -0.028245 -0.011549
v 0.029289 -0.048699 -0.011549
v -0.045151 -0.013079 0.011549
v 0.000765 0.048699 0.011549
v 0.024419 0.048699 0.011549
v -0.018158 -0.009879 0.011549
v 0.008001 -0.009879 0.011549
v 0.008001 0.008348 0.011549
v 0.029289 0.008348 0.011549
v 0.029289 -0.009879 0.011549
v 0.045151 -0.009879 0.011549
v 0.045151 -0.028245 0.011549
v -0.045151 -0.028245 0.011549
v 0.007305 -0.028245 0.011549
v 0.007305 -0.048699 0.011549
v 0.029289 -0.028245 0.011549
v 0.029289 -0.048699 0.011549
v 0.046017 -0.029111 0.011449
v 0.045151 -0.009879 0.011549
v 0.046017 -0.009013 0.011449
v 0.046797 -0.029892 0.011160
v 0.046797 -0.008233 0.011160
v 0.047417 -0.030511 0.010709
v 0.047417 -0.007613 0.010709
v 0.047815 -0.030909 0.010141
v 0.047815 -0.007215 0.010141
v 0.047952 -0.007078 0.009511
v 0.047952 -0.031046 -0.009511
v 0.047952 -0.007078 -0.009511
v 0.047815 -0.030909 -0.010141
v 0.047815 -0.007215 -0.010141
v 0.047417 -0.030511 -0.010709
v 0.047417 -0.007613 -0.010709
v 0.046797 -0.029892 -0.011160
v 0.046797 -0.008233 -0.011160
v 0.046017 -0.029111 -0.011449
v 0.046017 -0.009013 -0.011449
v 0.045151 -0.028245 -0.011549
v 0.045151 -0.009879 -0.011549
v 0.030155 -0.029111 0.011449
v 0.045151 -0.028245 0.011549
v 0.030935 -0.029892 0.011160
v 0.031555 -0.030511 0.010709
v 0.031953 -0.030909 0.010141
v 0.032090 -0.031046 0.009511
v 0.047952 -0.031046 0.009511
v 0.032090 -0.031046 -0.009511
v 0.031953 -0.030909 -0.010141
v 0.031555 -0.030511 -0.010709
v 0.030935 -0.029892 -0.011160
v 0.030155 -0.029111 -0.011449
v 0.029289 -0.048699 0.011549
v 0.029289 -0.028245 0.011549
v 0.030155 -0.049565 0.011449
v 0.030935 -0.050345 0.011160
v 0.031555 -0.050965 0.010709
v 0.031953 -0.051363 0.010141
v 0.032090 -0.051500 -0.009511
v 0.031953 -0.051363 -0.010141
v 0.031555 -0.050965 -0.010709
v 0.030935 -0.050345 -0.011160
v 0.030155 -0.049565 -0.011449
v 0.029289 -0.048699 -0.011549
v 0.029289 -0.028245 -0.011549
v 0.006439 -0.049565 0.011449
v 0.005659 -0.050345 0.011160
v 0.005039 -0.050965 0.010709
v 0.004641 -0.051363 0.010141
v 0.004504 -0.051500 0.009511
v 0.032090 -0.051500 0.009511
v 0.004504 -0.051500 -0.009511
v 0.004641 -0.051363 -0.010141
v 0.005659 -0.050345 -0.011160
v 0.006439 -0.049565 -0.011449
v 0.007305 -0.048699 -0.011549
v 0.006439 -0.029111 0.011449
v 0.007305 -0.048699 0.011549
v 0.005659 -0.029892 0.011160
v 0.005039 -0.030511 0.010709
v 0.004641 -0.030909 0.010141
v 0.004504 -0.031046 0.009511
v 0.004504 -0.031046 -0.009511
v 0.005039 -0.050965 -0.010709
v 0.004641 -0.030909 -0.010141
v 0.005039 -0.030511 -0.010709
v 0.005659 -0.029892 -0.011160
v 0.006439 -0.029111 -0.011449
v -0.045151 -0.028245 0.011549
v 0.007305 -0.028245 0.011549
v -0.046017 -0.029111 0.011449
v -0.046797 -0.029892 0.011160
v -0.047417 -0.030511 0.010709
v -0.047815 -0.030909 0.010141
v -0.047952 -0.031046 -0.009511
v -0.047815 -0.030909 -0.010141
v -0.047417 -0.030511 -0.010709
v -0.046797 -0.029892 -0.011160
v -0.046017 -0.029111 -0.011449
v -0.045151 -0.028245 -0.011549
v 0.007305 -0.028245 -0.011549
v -0.046017 -0.012793 0.011449
v -0.046797 -0.012534 0.011160
v -0.047417 -0.012329 0.010709
v -0.047815 -0.012198 0.010141
v -0.047952 -0.012152 0.009511
v -0.047952 -0.031046 0.009511
v -0.047952 -0.012152 -0.009511
v -0.047815 -0.012198 -0.010141
v -0.047417 -0.012329 -0.010709
v -0.046797 -0.012534 -0.011160
v -0.046017 -0.012793 -0.011449
v 0.000765 0.048699 0.011549
v -0.045151 -0.013079 0.011549
v 0.000330 0.049565 0.011449
v -0.000062 0.050345 0.011160
v -0.000374 0.050965 0.010709
v -0.000574 0.051363 0.010141
v -0.000643 0.051500 0.009511
v -0.000574 0.051363 -0.010141
v -0.000374 0.050965 -0.010709
v -0.000062 0.050345 -0.011160
v 0.000330 0.049565 -0.011449
v 0.000765 0.048699 -0.011549
v -0.045151 -0.013079 -0.011549
v 0.024419 0.048699 0.011549
v 0.026118 0.049565 0.011449
v 0.027651 0.050345 0.011160
v 0.028867 0.050965 0.010709
v 0.029648 0.051363 0.010141
v 0.029918 0.051500 -0.009511
v -0.000643 0.051500 -0.009511
v 0.029648 0.051363 -0.010141
v 0.028867 0.050965 -0.010709
v 0.027651 0.050345 -0.011160
v 0.026118 0.049565 -0.011449
v 0.024419 0.048699 -0.011549
v -0.016459 -0.009013 0.011449
v -0.014926 -0.008233 0.011160
v -0.013710 -0.007613 0.010709
v -0.012929 -0.007215 0.010141
v -0.012659 -0.007078 0.009511
v 0.029918 0.051500 0.009511
v -0.012659 -0.007078 -0.009511
v -0.012929 -0.007215 -0.010141
v -0.013710 -0.007613 -0.010709
v -0.014926 -0.008233 -0.011160
v -0.016459 -0.009013 -0.011449
v 0.008001 -0.009879 0.011549
v -0.018158 -0.009879 0.011549
v 0.007135 -0.009013 0.011449
v 0.006354 -0.008233 0.011160
v 0.005735 -0.007613 0.010709
v 0.005337 -0.007215 0.010141
v 0.005200 -0.007078 -0.009511
v 0.005337 -0.007215 -0.010141
v 0.005735 -0.007613 -0.010709
v 0.006354 -0.008233 -0.011160
v 0.007135 -0.009013 -0.011449
v 0.008001 -0.009879 -0.011549
v -0.018158 -0.009879 -0.011549
v 0.008001 0.008348 0.011549
v 0.007135 0.009214 0.011449
v 0.006354 0.009995 0.011160
v 0.005735 0.010614 0.010709
v 0.005200 -0.007078 0.009511
v 0.005337 0.011012 0.010141
v 0.005200 0.011149 -0.009511
v 0.005337 0.011012 -0.010141
v 0.005735 0.010614 -0.010709
v 0.006354 0.009995 -0.011160
v 0.007135 0.009214 -0.011449
v 0.008001 0.008348 -0.011549
v 0.029289 0.008348 0.011549
v 0.030935 0.009995 0.011160
v 0.031555 0.010614 0.010709
v 0.031953 0.011012 0.010141
v 0.005200 0.011149 0.009511
v 0.032090 0.011149 -0.009511
v 0.031953 0.011012 -0.010141
v 0.031555 0.010614 -0.010709
v 0.030935 0.009995 -0.011160
v 0.030155 0.009214 -0.011449
v 0.029289 0.008348 -0.011549
v 0.030155 -0.009013 0.011449
v 0.030155 0.009214 0.011449
v 0.030935 -0.008233 0.011160
v 0.031555 -0.007613 0.010709
v 0.031953 -0.007215 0.010141
v 0.032090 -0.007078 0.009511
v 0.032090 0.011149 0.009511
v 0.032090 -0.007078 -0.009511
v 0.031953 -0.007215 -0.010141
v 0.031555 -0.007613 -0.010709
v 0.030935 -0.008233 -0.011160
v 0.030155 -0.009013 -0.011449
v 0.029289 -0.009879 0.011549
v 0.029289 -0.009879 -0.011549
v -0.044928 -0.012928 -0.012500
v 0.024642 0.048851 -0.012500
v 0.000988 0.048851 -0.012500
v -0.017935 -0.009727 -0.012500
v 0.008223 -0.009727 -0.012500
v 0.029512 0.008500 -0.012500
v 0.008223 0.008500 -0.012500
v 0.029512 -0.009727 -0.012500
v 0.045374 -0.009727 -0.012500
v 0.045374 -0.028094 -0.012500
v -0.044928 -0.028094 -0.012500
v 0.007527 -0.028094 -0.012500
v 0.007527 -0.048548 -0.012500
v 0.029512 -0.028094 -0.012500
v 0.029512 -0.048548 -0.012500
v -0.044928 -0.012928 0.012500
v 0.000988 0.048851 0.012500
v 0.024642 0.048851 0.012500
v -0.017935 -0.009727 0.012500
v 0.008223 -0.009727 0.012500
v 0.008223 0.008500 0.012500
v 0.029512 0.008500 0.012500
v 0.029512 -0.009727 0.012500
v 0.045374 -0.009727 0.012500
v 0.045374 -0.028094 0.012500
v -0.044928 -0.028094 0.012500
v 0.007527 -0.028094 0.012500
v 0.007527 -0.048548 0.012500
v 0.029512 -0.028094 0.012500
v 0.029512 -0.048548 0.012500
v 0.045662 -0.028382 0.012467
v 0.045374 -0.009727 0.012500
v 0.045662 -0.009439 0.012467
v 0.045922 -0.028643 0.012370
v 0.045922 -0.009179 0.012370
v 0.046129 -0.028849 0.012220
v 0.046129 -0.008972 0.012220
v 0.046262 -0.028982 0.012031
v 0.046262 -0.008839 0.012031
v 0.046307 -0.008794 0.011821
v 0.046307 -0.008794 -0.011821
v 0.046307 -0.029028 0.011821
v 0.046262 -0.028982 -0.012031
v 0.046262 -0.008839 -0.012031
v 0.046129 -0.028849 -0.012220
v 0.046129 -0.008972 -0.012220
v 0.045922 -0.009179 -0.012370
v 0.045662 -0.028382 -0.012467
v 0.045662 -0.009439 -0.012467
v 0.045374 -0.028094 -0.012500
v 0.045374 -0.009727 -0.012500
v 0.029800 -0.028382 0.012467
v 0.045374 -0.028094 0.012500
v 0.030060 -0.028643 0.012370
v 0.030267 -0.028849 0.012220
v 0.030400 -0.028982 0.012031
v 0.030445 -0.029028 0.011821
v 0.030445 -0.029028 -0.011821
v 0.046307 -0.029028 -0.011821
v 0.030400 -0.028982 -0.012031
v 0.045922 -0.028643 -0.012370
v 0.030267 -0.028849 -0.012220
v 0.030060 -0.028643 -0.012370
v 0.029800 -0.028382 -0.012467
v 0.029512 -0.048548 0.012500
v 0.029512 -0.028094 0.012500
v 0.029800 -0.048836 0.012467
v 0.030060 -0.049096 0.012370
v 0.030267 -0.049303 0.012220
v 0.030400 -0.049435 0.012031
v 0.030445 -0.049481 -0.011821
v 0.030400 -0.049435 -0.012031
v 0.030267 -0.049303 -0.012220
v 0.030060 -0.049096 -0.012370
v 0.029800 -0.048836 -0.012467
v 0.029512 -0.048548 -0.012500
v 0.029512 -0.028094 -0.012500
v 0.007239 -0.048836 0.012467
v 0.006979 -0.049096 0.012370
v 0.006772 -0.049303 0.012220
v 0.006640 -0.049435 0.012031
v 0.006594 -0.049481 0.011821
v 0.030445 -0.049481 0.011821
v 0.006594 -0.049481 -0.011821
v 0.006640 -0.049435 -0.012031
v 0.006772 -0.049303 -0.012220
v 0.006979 -0.049096 -0.012370
v 0.007239 -0.048836 -0.012467
v 0.007527 -0.048548 -0.012500
v 0.007239 -0.028382 0.012467
v 0.007527 -0.048548 0.012500
v 0.006979 -0.028643 0.012370
v 0.006772 -0.028849 0.012220
v 0.006640 -0.028982 0.012031
v 0.006594 -0.029028 0.011821
v 0.006594 -0.029028 -0.011821
v 0.006640 -0.028982 -0.012031
v 0.006772 -0.028849 -0.012220
v 0.006979 -0.028643 -0.012370
v 0.007239 -0.028382 -0.012467
v -0.044928 -0.028094 0.012500
v 0.007527 -0.028094 0.012500
v -0.045217 -0.028382 0.012467
v -0.045477 -0.028643 0.012370
v -0.045684 -0.028849 0.012220
v -0.045816 -0.028982 0.012031
v -0.045862 -0.029028 -0.011821
v -0.045816 -0.028982 -0.012031
v -0.045684 -0.028849 -0.012220
v -0.045477 -0.028643 -0.012370
v -0.045217 -0.028382 -0.012467
v -0.044928 -0.028094 -0.012500
v 0.007527 -0.028094 -0.012500
v -0.045217 -0.012832 0.012467
v -0.045477 -0.012746 0.012370
v -0.045684 -0.012678 0.012220
v -0.045816 -0.012634 0.012031
v -0.045862 -0.012619 0.011821
v -0.045862 -0.029028 0.011821
v -0.045862 -0.012619 -0.011821
v -0.045816 -0.012634 -0.012031
v -0.045684 -0.012678 -0.012220
v -0.045477 -0.012746 -0.012370
v -0.045217 -0.012832 -0.012467
v 0.000988 0.048851 0.012500
v -0.044928 -0.012928 0.012500
v 0.000843 0.049139 0.012467
v 0.000712 0.049399 0.012370
v 0.000608 0.049606 0.012220
v 0.000542 0.049739 0.012031
v 0.000519 0.049784 -0.011821
v 0.000542 0.049739 -0.012031
v 0.000608 0.049606 -0.012220
v 0.000712 0.049399 -0.012370
v 0.000843 0.049139 -0.012467
v 0.000988 0.048851 -0.012500
v -0.044928 -0.012928 -0.012500
v 0.024642 0.048851 0.012500
v 0.025208 0.049139 0.012467
v 0.025719 0.049399 0.012370
v 0.026125 0.049606 0.012220
v 0.000519 0.049784 0.011821
v 0.026385 0.049739 0.012031
v 0.026475 0.049784 -0.011821
v 0.026385 0.049739 -0.012031
v 0.026125 0.049606 -0.012220
v 0.025719 0.049399 -0.012370
v 0.025208 0.049139 -0.012467
v 0.024642 0.048851 -0.012500
v -0.017369 -0.009439 0.012467
v -0.016858 -0.009179 0.012370
v -0.016452 -0.008972 0.012220
v -0.016192 -0.008839 0.012031
v -0.016102 -0.008794 0.011821
v 0.026475 0.049784 0.011821
v -0.016102 -0.008794 -0.011821
v -0.016192 -0.008839 -0.012031
v -0.016452 -0.008972 -0.012220
v -0.016858 -0.009179 -0.012370
v -0.017369 -0.009439 -0.012467
v 0.008223 -0.009727 0.012500
v -0.017935 -0.009727 0.012500
v 0.007935 -0.009439 0.012467
v 0.007674 -0.009179 0.012370
v 0.007468 -0.008972 0.012220
v 0.007335 -0.008839 0.012031
v 0.007290 -0.008794 -0.011821
v 0.007335 -0.008839 -0.012031
v 0.007468 -0.008972 -0.012220
v 0.007674 -0.009179 -0.012370
v 0.007935 -0.009439 -0.012467
v 0.008223 -0.009727 -0.012500
v -0.017935 -0.009727 -0.012500
v 0.008223 0.008500 0.012500
v 0.007935 0.008789 0.012467
v 0.007674 0.009049 0.012370
v 0.007468 0.009255 0.012220
v 0.007290 -0.008794 0.011821
v 0.007335 0.009388 0.012031
v 0.007290 0.009434 0.011821
v 0.007335 0.009388 -0.012031
v 0.007468 0.009255 -0.012220
v 0.007674 0.009049 -0.012370
v 0.007935 0.008789 -0.012467
v 0.008223 0.008500 -0.012500
v 0.029800 0.008789 0.012467
v 0.030060 0.009049 0.012370
v 0.030267 0.009255 0.012220
v 0.030400 0.009388 0.012031
v 0.030445 0.009434 0.011821
v 0.030445 0.009434 -0.011821
v 0.007290 0.009434 -0.011821
v 0.030400 0.009388 -0.012031
v 0.030267 0.009255 -0.012220
v 0.030060 0.009049 -0.012370
v 0.029800 0.008789 -0.012467
v 0.029512 0.008500 -0.012500
v 0.029800 -0.009439 0.012467
v 0.029512 0.008500 0.012500
v 0.030060 -0.009179 0.012370
v 0.030267 -0.008972 0.012220
v 0.030400 -0.008839 0.012031
v 0.030445 -0.008794 0.011821
v 0.030445 -0.008794 -0.011821
v 0.030400 -0.008839 -0.012031
v 0.030267 -0.008972 -0.012220
v 0.030060 -0.009179 -0.012370
v 0.029800 -0.009439 -0.012467
v 0.029512 -0.009727 0.012500
v 0.029512 -0.009727 -0.012500
f 1 2 3
f 1 4 2
f 5 6 7
f 5 8 6
f 1 5 4
f 1 8 5
f 1 9 8
f 1 10 9
f 11 10 1
f 12 10 11
f 13 14 12
f 14 10 12
f 13 15 14
f 16 17 18
f 16 18 19
f 20 21 22
f 20 22 23
f 16 19 20
f 16 20 23
f 16 23 24
f 16 24 25
f 26 16 25
f 27 26 25
f 28 27 29
f 29 27 25
f 28 29 30
f 31 32 33
f 34 33 35
f 36 35 37
f 38 36 37
f 39 40 38
f 41 42 39
f 43 41 44
f 45 44 46
f 47 46 48
f 49 47 48
f 50 49 51
f 52 53 31
f 54 31 34
f 55 34 36
f 56 36 40
f 57 40 42
f 58 42 59
f 43 58 59
f 45 60 43
f 47 61 45
f 62 63 47
f 50 64 62
f 52 65 66
f 54 67 52
f 55 68 54
f 56 69 55
f 57 70 56
f 71 57 58
f 72 58 60
f 73 60 61
f 74 61 63
f 75 63 64
f 76 64 77
f 78 65 67
f 79 67 68
f 80 68 69
f 81 69 70
f 82 70 83
f 84 83 71
f 85 71 72
f 86 72 73
f 87 73 74
f 75 87 74
f 88 75 76
f 89 90 78
f 91 78 79
f 92 79 80
f 93 80 81
f 94 81 82
f 95 82 84
f 85 95 84
f 86 96 85
f 87 97 86
f 98 99 87
f 88 100 98
f 89 101 102
f 91 103 89
f 92 104 91
f 93 105 92
f 94 106 93
f 107 94 95
f 108 95 96
f 109 96 97
f 110 97 99
f 111 99 100
f 112 100 113
f 114 101 103
f 115 103 104
f 116 104 105
f 117 105 106
f 118 106 119
f 107 118 119
f 108 120 107
f 109 121 108
f 110 122 109
f 111 123 110
f 112 124 111
f 114 125 126
f 115 127 114
f 116 128 115
f 117 129 116
f 118 130 117
f 131 118 120
f 132 120 121
f 133 121 122
f 134 122 123
f 135 123 124
f 136 124 137
f 127 138 125
f 128 139 127
f 129 140 128
f 130 141 129
f 142 143 130
f 144 142 131
f 145 131 132
f 146 132 133
f 147 133 134
f 148 134 135
f 149 135 136
f 150 138 139
f 151 139 140
f 152 140 141
f 153 141 143
f 154 143 155
f 156 155 144
f 145 156 144
f 146 157 145
f 147 158 146
f 148 159 147
f 149 160 148
f 150 161 162
f 151 163 150
f 152 164 151
f 153 165 152
f 154 166 153
f 167 154 156
f 168 156 157
f 169 157 158
f 170 158 159
f 171 159 160
f 172 160 173
f 163 174 161
f 164 175 163
f 165 176 164
f 166 177 165
f 178 179 166
f 180 178 167
f 181 167 168
f 182 168 169
f 183 169 170
f 184 170 171
f 185 171 172
f 186 174 175
f 187 175 176
f 188 176 177
f 189 177 179
f 190 179 191
f 192 191 180
f 193 180 181
f 194 181 182
f 195 182 183
f 196 183 184
f 197 184 185
f 198 199 186
f 200 186 187
f 201 187 188
f 202 188 189
f 203 189 190
f 204 190 192
f 193 204 192
f 194 205 193
f 195 206 194
f 196 207 195
f 197 208 196
f 198 32 209
f 200 33 198
f 201 35 200
f 202 37 201
f 203 38 202
f 41 203 204
f 44 204 205
f 46 205 206
f 48 206 207
f 49 207 208
f 51 208 210
f 31 53 32
f 34 31 33
f 36 34 35
f 38 40 36
f 39 42 40
f 41 59 42
f 43 59 41
f 45 43 44
f 47 45 46
f 49 62 47
f 50 62 49
f 52 66 53
f 54 52 31
f 55 54 34
f 56 55 36
f 57 56 40
f 58 57 42
f 43 60 58
f 45 61 60
f 47 63 61
f 62 64 63
f 50 77 64
f 52 67 65
f 54 68 67
f 55 69 68
f 56 70 69
f 57 83 70
f 71 83 57
f 72 71 58
f 73 72 60
f 74 73 61
f 75 74 63
f 76 75 64
f 78 90 65
f 79 78 67
f 80 79 68
f 81 80 69
f 82 81 70
f 84 82 83
f 85 84 71
f 86 85 72
f 87 86 73
f 75 98 87
f 88 98 75
f 89 102 90
f 91 89 78
f 92 91 79
f 93 92 80
f 94 93 81
f 95 94 82
f 85 96 95
f 86 97 96
f 87 99 97
f 98 100 99
f 88 113 100
f 89 103 101
f 91 104 103
f 92 105 104
f 93 106 105
f 94 119 106
f 107 119 94
f 108 107 95
f 109 108 96
f 110 109 97
f 111 110 99
f 112 111 100
f 114 126 101
f 115 114 103
f 116 115 104
f 117 116 105
f 118 117 106
f 107 120 118
f 108 121 120
f 109 122 121
f 110 123 122
f 111 124 123
f 112 137 124
f 114 127 125
f 115 128 127
f 116 129 128
f 117 130 129
f 118 142 130
f 131 142 118
f 132 131 120
f 133 132 121
f 134 133 122
f 135 134 123
f 136 135 124
f 127 139 138
f 128 140 139
f 129 141 140
f 130 143 141
f 142 155 143
f 144 155 142
f 145 144 131
f 146 145 132
f 147 146 133
f 148 147 134
f 149 148 135
f 150 162 138
f 151 150 139
f 152 151 140
f 153 152 141
f 154 153 143
f 156 154 155
f 145 157 156
f 146 158 157
f 147 159 158
f 148 160 159
f 149 173 160
f 150 163 161
f 151 164 163
f 152 165 164
f 153 166 165
f 154 178 166
f 167 178 154
f 168 167 156
f 169 168 157
f 170 169 158
f 171 170 159
f 172 171 160
f 163 175 174
f 164 176 175
f 165 177 176
f 166 179 177
f 178 191 179
f 180 191 178
f 181 180 167
f 182 181 168
f 183 182 169
f 184 183 170
f 185 184 171
f 186 199 174
f 187 186 175
f 188 187 176
f 189 188 177
f 190 189 179
f 192 190 191
f 193 192 180
f 194 193 181
f 195 194 182
f 196 195 183
f 197 196 184
f 198 209 199
f 200 198 186
f 201 200 187
f 202 201 188
f 203 202 189
f 204 203 190
f 193 205 204
f 194 206 205
f 195 207 206
f 196 208 207
f 197 210 208
f 198 33 32
f 200 35 33
f 201 37 35
f 202 38 37
f 203 39 38
f 41 39 203
f 44 41 204
f 46 44 205
f 48 46 206
f 49 48 207
f 51 49 208
f 211 212 213
f 211 214 212
f 215 216 217
f 215 218 216
f 211 215 214
f 211 218 215
f 211 219 218
f 211 220 219
f 221 220 211
f 222 220 221
f 223 224 222
f 224 220 222
f 223 225 224
f 226 227 228
f 226 228 229
f 230 231 232
f 230 232 233
f 226 229 230
f 226 230 233
f 226 233 234
f 226 234 235
f 236 226 235
f 237 236 235
f 238 237 239
f 239 237 235
f 238 239 240
f 241 242 243
f 244 243 245
f 246 245 247
f 248 247 249
f 250 248 249
f 251 250 252
f 253 252 254
f 255 254 256
f 257 256 258
f 259 258 260
f 261 260 262
f 263 264 241
f 265 241 244
f 266 244 246
f 267 246 248
f 268 248 269
f 270 269 251
f 253 270 251
f 255 271 253
f 257 272 255
f 259 273 257
f 261 274 259
f 263 275 276
f 265 277 263
f 266 278 265
f 267 279 266
f 268 280 267
f 281 268 270
f 282 270 271
f 283 271 272
f 284 272 273
f 285 273 274
f 286 274 287
f 288 275 277
f 289 277 278
f 290 278 279
f 291 279 280
f 292 280 293
f 294 293 281
f 295 281 282
f 283 295 282
f 296 283 284
f 297 284 285
f 298 285 286
f 299 300 288
f 301 288 289
f 302 289 290
f 303 290 291
f 304 291 292
f 305 292 294
f 295 305 294
f 306 307 295
f 296 308 306
f 297 309 296
f 298 310 297
f 299 311 312
f 301 313 299
f 302 314 301
f 303 315 302
f 304 316 303
f 317 304 305
f 318 305 307
f 319 307 308
f 320 308 309
f 321 309 310
f 322 310 323
f 324 311 313
f 325 313 314
f 326 314 315
f 327 315 316
f 328 316 329
f 330 329 317
f 318 330 317
f 319 331 318
f 320 332 319
f 321 333 320
f 322 334 321
f 324 335 336
f 325 337 324
f 326 338 325
f 327 339 326
f 328 340 327
f 330 341 328
f 342 330 331
f 343 331 332
f 344 332 333
f 345 333 334
f 346 334 347
f 337 348 335
f 338 349 337
f 339 350 338
f 340 351 339
f 341 352 340
f 353 341 354
f 355 354 342
f 356 342 343
f 357 343 344
f 358 344 345
f 359 345 346
f 360 348 349
f 361 349 350
f 362 350 351
f 363 351 352
f 364 352 365
f 366 365 353
f 355 366 353
f 356 367 355
f 357 368 356
f 358 369 357
f 359 370 358
f 360 371 372
f 361 373 360
f 362 374 361
f 363 375 362
f 364 376 363
f 377 364 366
f 378 366 367
f 379 367 368
f 380 368 369
f 381 369 370
f 382 370 383
f 373 384 371
f 374 385 373
f 375 386 374
f 376 387 375
f 388 389 376
f 390 388 377
f 391 377 378
f 392 378 379
f 393 379 380
f 394 380 381
f 395 381 382
f 385 396 384
f 397 385 386
f 398 386 387
f 399 387 389
f 400 399 389
f 401 400 390
f 402 390 391
f 403 391 392
f 404 392 393
f 405 393 394
f 406 394 395
f 407 396 408
f 409 408 397
f 410 397 398
f 411 398 399
f 412 399 413
f 414 413 401
f 402 414 401
f 403 415 402
f 404 416 403
f 405 417 404
f 406 418 405
f 407 242 419
f 409 243 407
f 410 245 409
f 411 247 410
f 412 249 411
f 252 412 414
f 254 414 415
f 256 415 416
f 258 416 417
f 260 417 418
f 262 418 420
f 241 264 242
f 244 241 243
f 246 244 245
f 248 246 247
f 250 269 248
f 251 269 250
f 253 251 252
f 255 253 254
f 257 255 256
f 259 257 258
f 261 259 260
f 263 276 264
f 265 263 241
f 266 265 244
f 267 266 246
f 268 267 248
f 270 268 269
f 253 271 270
f 255 272 271
f 257 273 272
f 259 274 273
f 261 287 274
f 263 277 275
f 265 278 277
f 266 279 278
f 267 280 279
f 268 293 280
f 281 293 268
f 282 281 270
f 283 282 271
f 284 283 272
f 285 284 273
f 286 285 274
f 288 300 275
f 289 288 277
f 290 289 278
f 291 290 279
f 292 291 280
f 294 292 293
f 295 294 281
f 283 306 295
f 296 306 283
f 297 296 284
f 298 297 285
f 299 312 300
f 301 299 288
f 302 301 289
f 303 302 290
f 304 303 291
f 305 304 292
f 295 307 305
f 306 308 307
f 296 309 308
f 297 310 309
f 298 323 310
f 299 313 311
f 301 314 313
f 302 315 314
f 303 316 315
f 304 329 316
f 317 329 304
f 318 317 305
f 319 318 307
f 320 319 308
f 321 320 309
f 322 321 310
f 324 336 311
f 325 324 313
f 326 325 314
f 327 326 315
f 328 327 316
f 330 328 329
f 318 331 330
f 319 332 331
f 320 333 332
f 321 334 333
f 322 347 334
f 324 337 335
f 325 338 337
f 326 339 338
f 327 340 339
f 328 341 340
f 330 354 341
f 342 354 330
f 343 342 331
f 344 343 332
f 345 344 333
f 346 345 334
f 337 349 348
f 338 350 349
f 339 351 350
f 340 352 351
f 341 365 352
f 353 365 341
f 355 353 354
f 356 355 342
f 357 356 343
f 358 357 344
f 359 358 345
f 360 372 348
f 361 360 349
f 362 361 350
f 363 362 351
f 364 363 352
f 366 364 365
f 355 367 366
f 356 368 367
f 357 369 368
f 358 370 369
f 359 383 370
f 360 373 371
f 361 374 373
f 362 375 374
f 363 376 375
f 364 388 376
f 377 388 364
f 378 377 366
f 379 378 367
f 380 379 368
f 381 380 369
f 382 381 370
f 373 385 384
f 374 386 385
f 375 387 386
f 376 389 387
f 388 400 389
f 390 400 388
f 391 390 377
f 392 391 378
f 393 392 379
f 394 393 380
f 395 394 381
f 385 408 396
f 397 408 385
f 398 397 386
f 399 398 387
f 400 413 399
f 401 413 400
f 402 401 390
f 403 402 391
f 404 403 392
f 405 404 393
f 406 405 394
f 407 419 396
f 409 407 408
f 410 409 397
f 411 410 398
f 412 411 399
f 414 412 413
f 402 415 414
f 403 416 415
f 404 417 416
f 405 418 417
f 406 420 418
f 407 243 242
f 409 245 243
f 410 247 245
f 411 249 247
f 412 250 249
f 252 250 412
f 254 252 414
f 256 254 415
f 258 256 416
f 260 258 417
f 262 260 418
f 421 422 423
f 421 424 422
f 425 426 427
f 425 428 426
f 421 425 424
f 421 428 425
f 421 429 428
f 421 430 429
f 431 430 421
f 432 430 431
f 433 434 432
f 434 430 432
f 433 435 434
f 436 437 438
f 436 438 439
f 440 441 442
f 440 442 443
f 436 439 440
f 436 440 443
f 436 443 444
f 436 444 445
f 446 436 445
f 447 446 445
f 448 447 449
f 449 447 445
f 448 449 450
f 451 452 453
f 454 453 455
f 456 455 457
f 458 457 459
f 460 458 459
f 461 462 460
f 463 461 464
f 465 464 466
f 467 465 466
f 468 467 469
f 470 469 471
f 472 473 451
f 474 451 454
f 475 454 456
f 476 456 458
f 477 458 462
f 478 462 479
f 463 478 479
f 465 480 463
f 481 482 465
f 468 483 481
f 470 484 468
f 472 485 486
f 474 487 472
f 475 488 474
f 476 489 475
f 477 490 476
f 491 477 478
f 492 478 480
f 493 480 482
f 494 482 483
f 495 483 484
f 496 484 497
f 498 485 487
f 499 487 488
f 500 488 489
f 501 489 490
f 502 490 503
f 504 503 491
f 505 491 492
f 506 492 493
f 507 493 494
f 508 494 495
f 509 495 496
f 510 511 498
f 512 498 499
f 513 499 500
f 514 500 501
f 515 501 502
f 516 502 504
f 505 516 504
f 506 517 505
f 507 518 506
f 508 519 507
f 509 520 508
f 510 521 522
f 512 523 510
f 513 524 512
f 514 525 513
f 515 526 514
f 527 515 516
f 528 516 517
f 529 517 518
f 530 518 519
f 531 519 520
f 532 520 533
f 534 521 523
f 535 523 524
f 536 524 525
f 537 525 526
f 538 526 539
f 527 538 539
f 528 540 527
f 529 541 528
f 530 542 529
f 531 543 530
f 532 544 531
f 534 545 546
f 535 547 534
f 536 548 535
f 537 549 536
f 538 550 537
f 551 538 540
f 552 540 541
f 553 541 542
f 554 542 543
f 555 543 544
f 556 544 557
f 547 558 545
f 548 559 547
f 549 560 548
f 550 561 549
f 562 563 550
f 564 562 551
f 565 551 552
f 566 552 553
f 567 553 554
f 568 554 555
f 569 555 556
f 570 558 559
f 571 559 560
f 572 560 561
f 573 561 563
f 574 563 575
f 576 575 564
f 565 576 564
f 566 577 565
f 567 578 566
f 568 579 567
f 569 580 568
f 570 581 582
f 571 583 570
f 572 584 571
f 573 585 572
f 574 586 573
f 587 574 576
f 588 576 577
f 589 577 578
f 590 578 579
f 591 579 580
f 592 580 593
f 583 594 581
f 584 595 583
f 585 596 584
f 586 597 585
f 598 599 586
f 587 600 598
f 601 587 588
f 602 588 589
f 603 589 590
f 604 590 591
f 605 591 592
f 606 594 595
f 607 595 596
f 608 596 597
f 609 597 599
f 610 599 600
f 611 600 612
f 613 612 601
f 614 601 602
f 615 602 603
f 616 603 604
f 617 604 605
f 618 619 606
f 620 606 607
f 621 607 608
f 622 608 609
f 623 609 610
f 624 610 611
f 613 624 611
f 614 625 613
f 615 626 614
f 616 627 615
f 617 628 616
f 618 452 629
f 620 453 618
f 621 455 620
f 622 457 621
f 623 459 622
f 461 623 624
f 464 624 625
f 466 625 626
f 467 626 627
f 469 627 628
f 471 628 630
f 451 473 452
f 454 451 453
f 456 454 455
f 458 456 457
f 460 462 458
f 461 479 462
f 463 479 461
f 465 463 464
f 467 481 465
f 468 481 467
f 470 468 469
f 472 486 473
f 474 472 451
f 475 474 454
f 476 475 456
f 477 476 458
f 478 477 462
f 463 480 478
f 465 482 480
f 481 483 482
f 468 484 483
f 470 497 484
f 472 487 485
f 474 488 487
f 475 489 488
f 476 490 489
f 477 503 490
f 491 503 477
f 492 491 478
f 493 492 480
f 494 493 482
f 495 494 483
f 496 495 484
f 498 511 485
f 499 498 487
f 500 499 488
f 501 500 489
f 502 501 490
f 504 502 503
f 505 504 491
f 506 505 492
f 507 506 493
f 508 507 494
f 509 508 495
f 510 522 511
f 512 510 498
f 513 512 499
f 514 513 500
f 515 514 501
f 516 515 502
f 505 517 516
f 506 518 517
f 507 519 518
f 508 520 519
f 509 533 520
f 510 523 521
f 512 524 523
f 513 525 524
f 514 526 525
f 515 539 526
f 527 539 515
f 528 527 516
f 529 528 517
f 530 529 518
f 531 530 519
f 532 531 520
f 534 546 521
f 535 534 523
f 536 535 524
f 537 536 525
f 538 537 526
f 527 540 538
f 528 541 540
f 529 542 541
f 530 543 542
f 531 544 543
f 532 557 544
f 534 547 545
f 535 548 547
f 536 549 548
f 537 550 549
f 538 562 550
f 551 562 538
f 552 551 540
f 553 552 541
f 554 553 542
f 555 554 543
f 556 555 544
f 547 559 558
f 548 560 559
f 549 561 560
f 550 563 561
f 562 575 563
f 564 575 562
f 565 564 551
f 566 565 552
f 567 566 553
f 568 567 554
f 569 568 555
f 570 582 558
f 571 570 559
f 572 571 560
f 573 572 561
f 574 573 563
f 576 574 575
f 565 577 576
f 566 578 577
f 567 579 578
f 568 580 579
f 569 593 580
f 570 583 581
f 571 584 583
f 572 585 584
f 573 586 585
f 574 598 586
f 587 598 574
f 588 587 576
f 589 588 577
f 590 589 578
f 591 590 579
f 592 591 580
f 583 595 594
f 584 596 595
f 585 597 596
f 586 599 597
f 598 600 599
f 587 612 600
f 601 612 587
f 602 601 588
f 603 602 589
f 604 603 590
f 605 604 591
f 606 619 594
f 607 606 595
f 608 607 596
f 609 608 597
f 610 609 599
f 611 610 600
f 613 611 612
f 614 613 601
f 615 614 602
f 616 615 603
f 617 616 604
f 618 629 619
f 620 618 606
f 621 620 607
f 622 621 608
f 623 622 609
f 624 623 610
f 613 625 624
f 614 626 625
f 615 627 626
f 616 628 627
f 617 630 628
f 618 453 452
f 620 455 453
f 621 457 455
f 622 459 457
f 623 460 459
f 461 460 623
f 464 461 624
f 466 464 625
f 467 466 626
f 469 467 627
f 471 469 628
