# generated by normalize_glyphs.py from glyph_t.obj
# x=width y=cap-height(0.103) z=thickness(0.025), metres, centred
v -0.046695 0.051500 0.010031
v -0.046695 0.051500 0.000000
v -0.047423 0.051397 0.010031
v -0.047423 0.051397 0.000000
v -0.042593 0.051500 0.010031
v -0.042593 0.051500 0.000000
v -0.016048 0.050628 0.012438
v -0.015056 0.050074 0.012500
v -0.015056 0.050628 0.012438
v -0.016048 0.050074 0.012500
v -0.015057 0.046970 0.012500
v -0.016048 0.046970 0.012500
v -0.010784 0.046970 0.012500
v -0.010783 0.050074 0.012500
v -0.010783 0.050628 0.012438
v -0.015056 0.051500 0.000000
v -0.016047 0.051500 0.010031
v -0.015056 0.051500 0.010031
v -0.016047 0.051500 0.000000
v -0.010782 0.051500 0.010031
v -0.010783 0.051500 0.000000
v 0.016693 0.051500 0.010031
v 0.016693 0.051500 0.000000
v 0.015869 0.051500 0.010031
v 0.015869 0.051500 0.000000
v 0.042755 0.051500 0.010031
v 0.042755 0.051500 0.000000
v 0.016687 0.046970 0.012500
v 0.042754 0.046970 0.012500
v 0.016691 0.050074 0.012500
v 0.042755 0.050074 0.012500
v 0.016692 0.050628 0.012438
v 0.042755 0.050628 0.012438
v 0.015868 0.050628 0.012438
v 0.015867 0.050074 0.012500
v 0.015862 0.046970 0.012500
v 0.048353 0.050074 0.010031
v 0.048353 0.050074 0.000000
v 0.048250 0.050628 0.010031
v 0.048250 0.050628 0.000000
v 0.048353 0.046970 0.010031
v 0.048353 0.046970 0.000000
v -0.048353 0.050074 0.010031
v -0.048353 0.050074 0.000000
v -0.048353 0.046970 0.010031
v -0.048353 0.046970 0.000000
v -0.048250 0.050628 0.010031
v -0.048250 0.050628 0.000000
v -0.047414 0.050619 0.012385
v -0.046695 0.050074 0.012500
v -0.046695 0.050628 0.012438
v -0.047423 0.050074 0.012438
v -0.046695 0.046970 0.012500
v -0.047423 0.046970 0.012438
v -0.042593 0.046970 0.012500
v -0.042593 0.050074 0.012500
v -0.042593 0.050628 0.012438
v -0.046717 0.026119 0.000000
v -0.042723 0.026119 0.010031
v -0.046717 0.026119 0.010031
v -0.042723 0.026119 0.000000
v -0.047428 0.026222 0.010031
v -0.047428 0.026222 0.000000
v -0.016049 -0.046763 0.010031
v -0.016049 0.024431 0.010031
v -0.016049 0.024431 0.000000
v -0.016049 -0.046763 0.000000
v -0.015093 0.025145 0.012438
v -0.014287 -0.046652 0.012500
v -0.014287 0.025247 0.012500
v -0.015093 -0.046666 0.012438
v -0.010239 0.025247 0.012500
v -0.010239 -0.046652 0.012500
v 0.015839 -0.046763 0.010031
v 0.015839 0.024431 0.000000
v 0.015839 0.024431 0.010031
v 0.015839 -0.046763 0.000000
v 0.042874 0.026119 0.010031
v 0.017461 0.026119 0.010031
v 0.042874 0.026119 0.000000
v 0.017461 0.026119 0.000000
v 0.016760 0.026015 0.010031
v 0.016760 0.026015 0.000000
v -0.014287 -0.051500 0.010031
v -0.014287 -0.051500 0.000000
v -0.010239 -0.051500 0.010031
v -0.010239 -0.051500 0.000000
v -0.015093 -0.051397 0.010031
v -0.015093 -0.051397 0.000000
v 0.047941 0.051087 0.000000
v 0.047941 0.051087 0.010031
v 0.047461 0.051397 0.010031
v 0.047461 0.051397 0.000000
v 0.042755 0.051087 0.012250
v 0.016693 0.051397 0.011984
v 0.016693 0.051087 0.012250
v 0.042755 0.051397 0.011984
v 0.015869 0.051397 0.011984
v 0.015868 0.051087 0.012250
v 0.047452 0.050619 0.012385
v 0.047461 0.050074 0.012438
v 0.047906 0.050593 0.012229
v 0.047941 0.050074 0.012250
v 0.047461 0.046970 0.012438
v 0.047941 0.046970 0.012250
v 0.048250 0.046970 0.011984
v 0.048250 0.050074 0.011984
v 0.048164 0.050619 0.011979
v -0.010783 0.051397 0.011984
v -0.015056 0.051397 0.011984
v -0.010783 0.051087 0.012250
v -0.015056 0.051087 0.012250
v -0.016047 0.051397 0.011984
v -0.016047 0.051087 0.012250
v -0.046695 0.051087 0.012250
v -0.047389 0.051053 0.012229
v -0.042593 0.051087 0.012250
v -0.042593 0.051397 0.011984
v -0.046695 0.051397 0.011984
v -0.047414 0.051311 0.011979
v -0.047941 0.051087 0.000000
v -0.047941 0.051087 0.010031
v -0.047941 0.050074 0.012250
v -0.047906 0.050593 0.012229
v -0.048250 0.050074 0.011984
v -0.048164 0.050619 0.011979
v -0.048250 0.046970 0.011984
v -0.047941 0.046970 0.012250
v -0.048250 0.027003 0.010031
v -0.048250 0.027003 0.000000
v -0.047941 0.026531 0.010031
v -0.047941 0.026531 0.000000
v -0.046706 0.026531 0.012250
v -0.047391 0.026566 0.012229
v -0.046714 0.026222 0.011984
v -0.047419 0.026308 0.011979
v -0.042706 0.026222 0.011984
v -0.042658 0.026531 0.012250
v -0.046698 0.027003 0.012437
v -0.042609 0.027003 0.012437
v -0.047415 0.027012 0.012385
v -0.017014 0.026015 0.010031
v -0.017014 0.026015 0.000000
v -0.016462 0.025706 0.010031
v -0.016462 0.025706 0.000000
v -0.016152 0.025181 0.010031
v -0.016152 0.025181 0.000000
v -0.015637 -0.046708 0.012250
v -0.015946 0.024533 0.011984
v -0.015946 -0.046749 0.011984
v -0.015637 0.024839 0.012250
v 0.014917 0.025145 0.012438
v 0.014917 -0.046666 0.012438
v 0.015426 0.024839 0.012250
v 0.015426 -0.046708 0.012250
v 0.015735 0.024533 0.011984
v 0.015735 -0.046749 0.011984
v 0.015942 0.025181 0.010031
v 0.016251 0.025706 0.000000
v 0.016251 0.025706 0.010031
v 0.015942 0.025181 0.000000
v 0.016658 0.026119 0.011984
v 0.017060 0.026531 0.012250
v 0.016351 0.026428 0.012250
v 0.017361 0.026222 0.011984
v 0.042812 0.026531 0.012250
v 0.042858 0.026222 0.011984
v 0.042765 0.027003 0.012438
v 0.016759 0.027003 0.012438
v 0.015836 0.026916 0.012460
v 0.047465 0.026222 0.010031
v 0.047465 0.026222 0.000000
v 0.047941 0.026531 0.010031
v 0.047941 0.026531 0.000000
v 0.048250 0.027003 0.010031
v 0.048250 0.027003 0.000000
v 0.014917 -0.051397 0.010031
v 0.014917 -0.051397 0.000000
v 0.015426 -0.051087 0.010031
v 0.015426 -0.051087 0.000000
v 0.015735 -0.050628 0.000000
v 0.015735 -0.050628 0.010031
v -0.014287 -0.050626 0.012438
v -0.010239 -0.051087 0.012250
v -0.010239 -0.050626 0.012438
v -0.014287 -0.051087 0.012250
v -0.015084 -0.050618 0.012385
v -0.015058 -0.051053 0.012229
v -0.015084 -0.051311 0.011979
v -0.014287 -0.051397 0.011984
v -0.010239 -0.051397 0.011984
v -0.015946 -0.050628 0.010031
v -0.015946 -0.050628 0.000000
v -0.015637 -0.051087 0.010031
v -0.015637 -0.051087 0.000000
v 0.047803 0.050950 0.012167
v 0.047452 0.051311 0.011979
v 0.047427 0.051053 0.012229
v 0.047906 0.051053 0.011964
v -0.047803 0.050950 0.012167
v -0.047906 0.051053 0.011964
v -0.047803 0.026669 0.012167
v -0.047906 0.026566 0.011964
v -0.047906 0.027038 0.012229
v -0.048164 0.027012 0.011979
v -0.016359 0.025809 0.011984
v -0.016049 0.026119 0.012250
v -0.016605 0.026428 0.012250
v -0.016912 0.026119 0.011984
v -0.016049 0.025284 0.011984
v -0.015740 0.025592 0.012250
v -0.015499 0.026428 0.012438
v -0.015194 0.025901 0.012438
v -0.016051 0.026916 0.012460
v 0.015839 0.026119 0.012250
v 0.015018 0.025901 0.012438
v 0.015529 0.025592 0.012250
v 0.015324 0.026428 0.012438
v 0.016148 0.025809 0.011984
v 0.015839 0.025284 0.011984
v 0.047803 0.026669 0.012167
v 0.048164 0.027012 0.011979
v 0.047906 0.027038 0.012229
v 0.047906 0.026566 0.011964
v 0.047453 0.027012 0.012385
v 0.047429 0.026566 0.012229
v 0.047456 0.026308 0.011979
v 0.015288 -0.050950 0.012167
v 0.015650 -0.050619 0.011979
v 0.015392 -0.050593 0.012229
v 0.015392 -0.051053 0.011964
v 0.014908 -0.050618 0.012385
v 0.014882 -0.051053 0.012229
v 0.014908 -0.051311 0.011979
v -0.015499 -0.050950 0.012167
v -0.015602 -0.051053 0.011964
v -0.015602 -0.050593 0.012229
v -0.015860 -0.050619 0.011979
v -0.014964 0.027003 0.012500
v -0.014674 0.026531 0.012500
v -0.014384 0.026004 0.012500
v -0.010515 0.026531 0.012500
v -0.010308 0.026004 0.012500
v -0.010723 0.027003 0.012500
v 0.048353 0.050074 0.011687
v 0.048250 0.050628 0.011687
v 0.048353 0.046970 0.011687
v 0.048353 0.050074 0.011687
v 0.048353 0.046970 0.011687
v 0.048250 0.050628 0.011687
v 0.047465 0.026222 0.011687
v 0.047941 0.026531 0.011687
v 0.047941 0.026531 0.011687
v 0.047465 0.026222 0.011687
v 0.048250 0.027003 0.011687
v 0.048250 0.027003 0.011687
v 0.017461 0.026119 0.011687
v 0.042874 0.026119 0.011687
v 0.017461 0.026119 0.011687
v 0.042874 0.026119 0.011687
v 0.016760 0.026015 0.011687
v 0.016760 0.026015 0.011687
v 0.016251 0.025706 0.011687
v 0.015942 0.025181 0.011687
v 0.016251 0.025706 0.011687
v 0.015942 0.025181 0.011687
v 0.015839 0.024431 0.011687
v 0.015839 -0.046763 0.011687
v 0.015839 0.024431 0.011687
v 0.015839 -0.046763 0.011687
v 0.014917 -0.051397 0.011687
v 0.015426 -0.051087 0.011687
v 0.015426 -0.051087 0.011687
v 0.014917 -0.051397 0.011687
v 0.015735 -0.050628 0.011687
v 0.015735 -0.050628 0.011687
v -0.010239 -0.051500 0.011687
v -0.014287 -0.051500 0.011687
v -0.010239 -0.051500 0.011687
v -0.014287 -0.051500 0.011687
v -0.015093 -0.051397 0.011687
v -0.015093 -0.051397 0.011687
v -0.015946 -0.050628 0.011687
v -0.015637 -0.051087 0.011687
v -0.015637 -0.051087 0.011687
v -0.015946 -0.050628 0.011687
v -0.016049 0.024431 0.011687
v -0.016049 -0.046763 0.011687
v -0.016049 0.024431 0.011687
v -0.016049 -0.046763 0.011687
v -0.016462 0.025706 0.011687
v -0.017014 0.026015 0.011687
v -0.016462 0.025706 0.011687
v -0.017014 0.026015 0.011687
v -0.016152 0.025181 0.011687
v -0.016152 0.025181 0.011687
v -0.042723 0.026119 0.011687
v -0.046717 0.026119 0.011687
v -0.042723 0.026119 0.011687
v -0.046717 0.026119 0.011687
v -0.047428 0.026222 0.011687
v -0.047428 0.026222 0.011687
v -0.048250 0.027003 0.011687
v -0.047941 0.026531 0.011687
v -0.047941 0.026531 0.011687
v -0.048250 0.027003 0.011687
v -0.048353 0.046970 0.011687
v -0.048353 0.050074 0.011687
v -0.048353 0.046970 0.011687
v -0.048353 0.050074 0.011687
v -0.048250 0.050628 0.011687
v -0.048250 0.050628 0.011687
v -0.047423 0.051397 0.011687
v -0.047941 0.051087 0.011687
v -0.047941 0.051087 0.011687
v -0.047423 0.051397 0.011687
v -0.046695 0.051500 0.011687
v -0.046695 0.051500 0.011687
v -0.042593 0.051500 0.011687
v -0.042593 0.051500 0.011687
v -0.015056 0.051500 0.011687
v -0.016047 0.051500 0.011687
v -0.016047 0.051500 0.011687
v -0.015056 0.051500 0.011687
v -0.010782 0.051500 0.011687
v -0.010782 0.051500 0.011687
v 0.016693 0.051500 0.011687
v 0.015869 0.051500 0.011687
v 0.015869 0.051500 0.011687
v 0.016693 0.051500 0.011687
v 0.042755 0.051500 0.011687
v 0.042755 0.051500 0.011687
v 0.047941 0.051087 0.011687
v 0.047941 0.051087 0.011687
v 0.047461 0.051397 0.011687
v 0.047461 0.051397 0.011687
v -0.048353 0.027594 0.010031
v -0.048353 0.027594 0.000000
v -0.048353 0.030735 0.010031
v -0.048353 0.030735 0.000000
v -0.048353 0.027594 0.011687
v -0.048353 0.030735 0.011687
v -0.048353 0.027594 0.011687
v -0.048250 0.027594 0.011984
v -0.048250 0.030735 0.011984
v -0.048353 0.030735 0.011687
v -0.047941 0.030735 0.012250
v -0.047941 0.027594 0.012250
v -0.047423 0.027594 0.012437
v -0.047423 0.030735 0.012438
v -0.046695 0.030735 0.012500
v -0.046695 0.027594 0.012500
v -0.042593 0.027594 0.012500
v -0.042593 0.030735 0.012500
v -0.016051 0.030735 0.012500
v -0.015061 0.027594 0.012500
v -0.015060 0.030735 0.012500
v -0.016052 0.027594 0.012500
v -0.010792 0.027594 0.012500
v -0.010791 0.030735 0.012500
v 0.042750 0.027594 0.012500
v 0.016659 0.027594 0.012500
v 0.016664 0.030735 0.012500
v 0.042751 0.030735 0.012500
v 0.015839 0.030735 0.012500
v 0.015834 0.027594 0.012500
v 0.047461 0.030735 0.012438
v 0.047941 0.027594 0.012250
v 0.047941 0.030735 0.012250
v 0.047461 0.027594 0.012438
v 0.048250 0.027594 0.011984
v 0.048250 0.030735 0.011984
v 0.048353 0.030735 0.011687
v 0.048353 0.027594 0.011687
v 0.048353 0.027594 0.011687
v 0.048353 0.027594 0.010031
v 0.048353 0.030735 0.011687
v 0.048353 0.030735 0.010031
v 0.048353 0.027594 0.000000
v 0.048353 0.030735 0.000000
v 0.046864 0.026119 0.010031
v 0.047465 0.026222 0.000000
v 0.047465 0.026222 0.010031
v 0.046864 0.026119 0.000000
v 0.046864 0.026119 0.011687
v 0.047465 0.026222 0.011687
v 0.046864 0.026119 0.011687
v 0.046862 0.026222 0.011984
v 0.046856 0.026531 0.012250
v 0.046849 0.027003 0.012438
v 0.046847 0.027594 0.012500
v 0.046847 0.030735 0.012500
v 0.046847 0.050074 0.012500
v 0.046847 0.046970 0.012500
v 0.046848 0.050628 0.012438
v 0.046848 0.051087 0.012250
v 0.046848 0.051397 0.011984
v 0.046848 0.051500 0.011687
v 0.046848 0.051500 0.010031
v 0.046848 0.051500 0.011687
v 0.046848 0.051500 0.000000
v -0.017847 0.026119 0.010031
v -0.017847 0.026119 0.000000
v -0.017847 0.026119 0.011687
v -0.017847 0.026119 0.011687
v -0.017747 0.026222 0.011984
v -0.017447 0.026531 0.012250
v -0.017148 0.027003 0.012438
v -0.017048 0.027594 0.012500
v -0.017047 0.030735 0.012500
v -0.017044 0.050074 0.012500
v -0.017044 0.050628 0.012438
v -0.017044 0.046970 0.012500
v -0.017044 0.051087 0.012250
v -0.017044 0.051397 0.011984
v -0.017044 0.051500 0.011687
v -0.042593 0.051500 0.010031
v -0.042593 0.051500 0.011687
v -0.017044 0.051500 0.010031
v -0.017044 0.051500 0.011687
v -0.017044 0.051500 0.000000
v -0.042593 0.051500 0.000000
v -0.016152 0.025181 0.011687
v -0.016152 0.025181 0.010031
v -0.016152 0.025181 0.000000
v -0.016049 -0.050075 0.000000
v -0.016049 -0.050075 0.010031
v -0.016049 -0.050075 0.011687
v -0.016049 -0.050075 0.011687
v -0.015946 -0.050074 0.011984
v -0.015637 -0.050071 0.012250
v -0.015093 -0.050069 0.012438
v -0.014287 -0.050068 0.012500
v -0.010239 -0.050068 0.012500
v 0.014917 -0.050069 0.012438
v 0.015426 -0.050071 0.012250
v 0.015735 -0.050074 0.011984
v 0.015839 -0.046763 0.011687
v 0.015839 -0.050075 0.011687
v 0.015839 -0.050075 0.010031
v 0.015839 -0.046763 0.010031
v 0.015839 -0.050075 0.011687
v 0.015839 -0.046763 0.000000
v 0.015839 -0.050075 0.000000
v 0.014213 -0.051500 0.010031
v 0.014213 -0.051500 0.000000
v 0.010268 -0.051500 0.010031
v 0.010268 -0.051500 0.000000
v 0.014213 -0.051500 0.011687
v 0.010268 -0.051500 0.011687
v 0.014213 -0.051500 0.011687
v 0.014213 -0.051397 0.011984
v 0.010268 -0.051397 0.011984
v 0.010268 -0.051500 0.011687
v 0.014213 -0.050626 0.012438
v 0.014213 -0.051087 0.012250
v 0.010268 -0.050626 0.012438
v 0.010268 -0.051087 0.012250
v 0.010268 -0.046652 0.012500
v 0.014213 -0.050068 0.012500
v 0.014213 -0.046652 0.012500
v 0.010268 -0.050068 0.012500
v 0.010268 0.025247 0.012500
v 0.014213 0.025247 0.012500
v 0.014311 0.026004 0.012500
v 0.010339 0.026004 0.012500
v 0.010765 0.027003 0.012500
v 0.014605 0.026531 0.012500
v 0.014899 0.027003 0.012500
v 0.010552 0.026531 0.012500
v 0.010840 0.030735 0.012500
v 0.014997 0.027594 0.012500
v 0.015002 0.030735 0.012500
v 0.010836 0.027594 0.012500
v 0.010860 0.046970 0.012500
v 0.015025 0.046970 0.012500
v 0.010865 0.050628 0.012438
v 0.015029 0.050074 0.012500
v 0.015030 0.050628 0.012438
v 0.010864 0.050074 0.012500
v 0.015031 0.051397 0.011984
v 0.015031 0.051087 0.012250
v 0.010866 0.051397 0.011984
v 0.010866 0.051087 0.012250
v 0.010866 0.051500 0.011687
v 0.015031 0.051500 0.011687
v 0.015031 0.051500 0.010031
v 0.010866 0.051500 0.010031
v 0.010866 0.051500 0.011687
v 0.015031 0.051500 0.011687
v 0.015031 0.051500 0.000000
v 0.010866 0.051500 0.000000
v 0.010866 0.051500 0.011687
v 0.010866 0.051500 0.010031
v 0.010866 0.051500 0.000000
v -0.046695 0.051500 0.000000
v -0.047423 0.051397 -0.010031
v -0.047423 0.051397 0.000000
v -0.046695 0.051500 -0.010031
v -0.042593 0.051500 0.000000
v -0.042593 0.051500 -0.010031
v -0.015056 0.050074 -0.012500
v -0.016048 0.050628 -0.012438
v -0.015056 0.050628 -0.012438
v -0.016048 0.050074 -0.012500
v -0.016048 0.046970 -0.012500
v -0.015057 0.046970 -0.012500
v -0.010784 0.046970 -0.012500
v -0.010783 0.050074 -0.012500
v -0.010783 0.050628 -0.012438
v -0.015056 0.051500 0.000000
v -0.016047 0.051500 -0.010031
v -0.016047 0.051500 0.000000
v -0.015056 0.051500 -0.010031
v -0.010783 0.051500 0.000000
v -0.010782 0.051500 -0.010031
v 0.016693 0.051500 0.000000
v 0.015869 0.051500 -0.010031
v 0.015869 0.051500 0.000000
v 0.016693 0.051500 -0.010031
v 0.042755 0.051500 0.000000
v 0.042755 0.051500 -0.010031
v 0.042754 0.046970 -0.012500
v 0.016687 0.046970 -0.012500
v 0.016691 0.050074 -0.012500
v 0.042755 0.050074 -0.012500
v 0.016692 0.050628 -0.012438
v 0.042755 0.050628 -0.012438
v 0.015868 0.050628 -0.012438
v 0.015867 0.050074 -0.012500
v 0.015862 0.046970 -0.012500
v 0.048353 0.050074 0.000000
v 0.048250 0.050628 -0.010031
v 0.048250 0.050628 0.000000
v 0.048353 0.050074 -0.010031
v 0.048353 0.046970 0.000000
v 0.048353 0.046970 -0.010031
v -0.048353 0.050074 0.000000
v -0.048353 0.046970 -0.010031
v -0.048353 0.046970 0.000000
v -0.048353 0.050074 -0.010031
v -0.048250 0.050628 0.000000
v -0.048250 0.050628 -0.010031
v -0.046695 0.050074 -0.012500
v -0.047414 0.050619 -0.012385
v -0.046695 0.050628 -0.012438
v -0.047423 0.050074 -0.012438
v -0.047423 0.046970 -0.012438
v -0.046695 0.046970 -0.012500
v -0.042593 0.046970 -0.012500
v -0.042593 0.050074 -0.012500
v -0.042593 0.050628 -0.012438
v -0.046717 0.026119 0.000000
v -0.042723 0.026119 -0.010031
v -0.042723 0.026119 0.000000
v -0.046717 0.026119 -0.010031
v -0.047428 0.026222 0.000000
v -0.047428 0.026222 -0.010031
v -0.016049 0.024431 -0.010031
v -0.016049 -0.046763 -0.010031
v -0.016049 0.024431 0.000000
v -0.016049 -0.046763 0.000000
v -0.014287 -0.046652 -0.012500
v -0.015093 0.025145 -0.012438
v -0.014287 0.025247 -0.012500
v -0.015093 -0.046666 -0.012438
v -0.010239 0.025247 -0.012500
v -0.010239 -0.046652 -0.012500
v 0.015839 -0.046763 -0.010031
v 0.015839 0.024431 0.000000
v 0.015839 -0.046763 0.000000
v 0.015839 0.024431 -0.010031
v 0.042874 0.026119 0.000000
v 0.017461 0.026119 0.000000
v 0.017461 0.026119 -0.010031
v 0.042874 0.026119 -0.010031
v 0.016760 0.026015 0.000000
v 0.016760 0.026015 -0.010031
v -0.014287 -0.051500 0.000000
v -0.010239 -0.051500 -0.010031
v -0.010239 -0.051500 0.000000
v -0.014287 -0.051500 -0.010031
v -0.015093 -0.051397 0.000000
v -0.015093 -0.051397 -0.010031
v 0.047941 0.051087 0.000000
v 0.047941 0.051087 -0.010031
v 0.047461 0.051397 -0.010031
v 0.047461 0.051397 0.000000
v 0.016693 0.051397 -0.011984
v 0.042755 0.051397 -0.011984
v 0.042755 0.051087 -0.012250
v 0.016693 0.051087 -0.012250
v 0.015869 0.051397 -0.011984
v 0.015868 0.051087 -0.012250
v 0.047461 0.050074 -0.012438
v 0.047906 0.050593 -0.012229
v 0.047941 0.050074 -0.012250
v 0.047452 0.050619 -0.012385
v 0.047461 0.046970 -0.012438
v 0.047941 0.046970 -0.012250
v 0.048250 0.046970 -0.011984
v 0.048250 0.050074 -0.011984
v 0.048164 0.050619 -0.011979
v -0.015056 0.051397 -0.011984
v -0.010783 0.051397 -0.011984
v -0.010783 0.051087 -0.012250
v -0.015056 0.051087 -0.012250
v -0.016047 0.051397 -0.011984
v -0.016047 0.051087 -0.012250
v -0.047389 0.051053 -0.012229
v -0.046695 0.051087 -0.012250
v -0.042593 0.051087 -0.012250
v -0.046695 0.051397 -0.011984
v -0.042593 0.051397 -0.011984
v -0.047414 0.051311 -0.011979
v -0.047941 0.051087 0.000000
v -0.047941 0.051087 -0.010031
v -0.048250 0.050074 -0.011984
v -0.048164 0.050619 -0.011979
v -0.047906 0.050593 -0.012229
v -0.047941 0.050074 -0.012250
v -0.048250 0.046970 -0.011984
v -0.047941 0.046970 -0.012250
v -0.047941 0.026531 -0.010031
v -0.047941 0.026531 0.000000
v -0.048250 0.027003 0.000000
v -0.048250 0.027003 -0.010031
v -0.046714 0.026222 -0.011984
v -0.047419 0.026308 -0.011979
v -0.047391 0.026566 -0.012229
v -0.046706 0.026531 -0.012250
v -0.042706 0.026222 -0.011984
v -0.042658 0.026531 -0.012250
v -0.046698 0.027003 -0.012437
v -0.042609 0.027003 -0.012437
v -0.047415 0.027012 -0.012385
v -0.016462 0.025706 -0.010031
v -0.016462 0.025706 0.000000
v -0.017014 0.026015 0.000000
v -0.017014 0.026015 -0.010031
v -0.016152 0.025181 -0.010031
v -0.016152 0.025181 0.000000
v -0.015946 0.024533 -0.011984
v -0.015637 -0.046708 -0.012250
v -0.015946 -0.046749 -0.011984
v -0.015637 0.024839 -0.012250
v 0.015426 0.024839 -0.012250
v 0.015426 -0.046708 -0.012250
v 0.014917 -0.046666 -0.012438
v 0.014917 0.025145 -0.012438
v 0.015735 0.024533 -0.011984
v 0.015735 -0.046749 -0.011984
v 0.016251 0.025706 0.000000
v 0.015942 0.025181 -0.010031
v 0.016251 0.025706 -0.010031
v 0.015942 0.025181 0.000000
v 0.016658 0.026119 -0.011984
v 0.017060 0.026531 -0.012250
v 0.017361 0.026222 -0.011984
v 0.016351 0.026428 -0.012250
v 0.042812 0.026531 -0.012250
v 0.042858 0.026222 -0.011984
v 0.042765 0.027003 -0.012438
v 0.016759 0.027003 -0.012438
v 0.015836 0.026916 -0.012460
v 0.047941 0.026531 -0.010031
v 0.047941 0.026531 0.000000
v 0.047465 0.026222 0.000000
v 0.047465 0.026222 -0.010031
v 0.048250 0.027003 -0.010031
v 0.048250 0.027003 0.000000
v 0.015426 -0.051087 -0.010031
v 0.015426 -0.051087 0.000000
v 0.014917 -0.051397 0.000000
v 0.014917 -0.051397 -0.010031
v 0.015735 -0.050628 0.000000
v 0.015735 -0.050628 -0.010031
v -0.014287 -0.050626 -0.012438
v -0.010239 -0.051087 -0.012250
v -0.014287 -0.051087 -0.012250
v -0.010239 -0.050626 -0.012438
v -0.015058 -0.051053 -0.012229
v -0.015084 -0.050618 -0.012385
v -0.014287 -0.051397 -0.011984
v -0.015084 -0.051311 -0.011979
v -0.010239 -0.051397 -0.011984
v -0.015637 -0.051087 -0.010031
v -0.015637 -0.051087 0.000000
v -0.015946 -0.050628 0.000000
v -0.015946 -0.050628 -0.010031
v 0.047452 0.051311 -0.011979
v 0.047803 0.050950 -0.012167
v 0.047427 0.051053 -0.012229
v 0.047906 0.051053 -0.011964
v -0.047803 0.050950 -0.012167
v -0.047906 0.051053 -0.011964
v -0.047803 0.026669 -0.012167
v -0.047906 0.026566 -0.011964
v -0.047906 0.027038 -0.012229
v -0.048164 0.027012 -0.011979
v -0.016912 0.026119 -0.011984
v -0.016605 0.026428 -0.012250
v -0.016359 0.025809 -0.011984
v -0.016049 0.026119 -0.012250
v -0.015740 0.025592 -0.012250
v -0.016049 0.025284 -0.011984
v -0.015499 0.026428 -0.012438
v -0.015194 0.025901 -0.012438
v -0.016051 0.026916 -0.012460
v 0.015018 0.025901 -0.012438
v 0.015839 0.026119 -0.012250
v 0.015529 0.025592 -0.012250
v 0.015324 0.026428 -0.012438
v 0.016148 0.025809 -0.011984
v 0.015839 0.025284 -0.011984
v 0.048164 0.027012 -0.011979
v 0.047803 0.026669 -0.012167
v 0.047906 0.027038 -0.012229
v 0.047906 0.026566 -0.011964
v 0.047453 0.027012 -0.012385
v 0.047429 0.026566 -0.012229
v 0.047456 0.026308 -0.011979
v 0.015650 -0.050619 -0.011979
v 0.015288 -0.050950 -0.012167
v 0.015392 -0.050593 -0.012229
v 0.015392 -0.051053 -0.011964
v 0.014908 -0.050618 -0.012385
v 0.014882 -0.051053 -0.012229
v 0.014908 -0.051311 -0.011979
v -0.015499 -0.050950 -0.012167
v -0.015602 -0.051053 -0.011964
v -0.015602 -0.050593 -0.012229
v -0.015860 -0.050619 -0.011979
v -0.014674 0.026531 -0.012500
v -0.014964 0.027003 -0.012500
v -0.014384 0.026004 -0.012500
v -0.010515 0.026531 -0.012500
v -0.010308 0.026004 -0.012500
v -0.010723 0.027003 -0.012500
v 0.048353 0.050074 -0.011687
v 0.048250 0.050628 -0.011687
v 0.048353 0.046970 -0.011687
v 0.048353 0.050074 -0.011687
v 0.048353 0.046970 -0.011687
v 0.048250 0.050628 -0.011687
v 0.047465 0.026222 -0.011687
v 0.047941 0.026531 -0.011687
v 0.047465 0.026222 -0.011687
v 0.047941 0.026531 -0.011687
v 0.048250 0.027003 -0.011687
v 0.048250 0.027003 -0.011687
v 0.017461 0.026119 -0.011687
v 0.042874 0.026119 -0.011687
v 0.017461 0.026119 -0.011687
v 0.042874 0.026119 -0.011687
v 0.016760 0.026015 -0.011687
v 0.016760 0.026015 -0.011687
v 0.016251 0.025706 -0.011687
v 0.015942 0.025181 -0.011687
v 0.015942 0.025181 -0.011687
v 0.016251 0.025706 -0.011687
v 0.015839 -0.046763 -0.011687
v 0.015839 0.024431 -0.011687
v 0.015839 0.024431 -0.011687
v 0.015839 -0.046763 -0.011687
v 0.014917 -0.051397 -0.011687
v 0.015426 -0.051087 -0.011687
v 0.014917 -0.051397 -0.011687
v 0.015426 -0.051087 -0.011687
v 0.015735 -0.050628 -0.011687
v 0.015735 -0.050628 -0.011687
v -0.010239 -0.051500 -0.011687
v -0.014287 -0.051500 -0.011687
v -0.010239 -0.051500 -0.011687
v -0.014287 -0.051500 -0.011687
v -0.015093 -0.051397 -0.011687
v -0.015093 -0.051397 -0.011687
v -0.015946 -0.050628 -0.011687
v -0.015637 -0.051087 -0.011687
v -0.015946 -0.050628 -0.011687
v -0.015637 -0.051087 -0.011687
v -0.016049 0.024431 -0.011687
v -0.016049 -0.046763 -0.011687
v -0.016049 0.024431 -0.011687
v -0.016049 -0.046763 -0.011687
v -0.016462 0.025706 -0.011687
v -0.017014 0.026015 -0.011687
v -0.017014 0.026015 -0.011687
v -0.016462 0.025706 -0.011687
v -0.016152 0.025181 -0.011687
v -0.016152 0.025181 -0.011687
v -0.042723 0.026119 -0.011687
v -0.046717 0.026119 -0.011687
v -0.042723 0.026119 -0.011687
v -0.046717 0.026119 -0.011687
v -0.047428 0.026222 -0.011687
v -0.047428 0.026222 -0.011687
v -0.048250 0.027003 -0.011687
v -0.047941 0.026531 -0.011687
v -0.048250 0.027003 -0.011687
v -0.047941 0.026531 -0.011687
v -0.048353 0.046970 -0.011687
v -0.048353 0.050074 -0.011687
v -0.048353 0.046970 -0.011687
v -0.048353 0.050074 -0.011687
v -0.048250 0.050628 -0.011687
v -0.048250 0.050628 -0.011687
v -0.047423 0.051397 -0.011687
v -0.047941 0.051087 -0.011687
v -0.047423 0.051397 -0.011687
v -0.047941 0.051087 -0.011687
v -0.046695 0.051500 -0.011687
v -0.046695 0.051500 -0.011687
v -0.042593 0.051500 -0.011687
v -0.042593 0.051500 -0.011687
v -0.016047 0.051500 -0.011687
v -0.015056 0.051500 -0.011687
v -0.016047 0.051500 -0.011687
v -0.015056 0.051500 -0.011687
v -0.010782 0.051500 -0.011687
v -0.010782 0.051500 -0.011687
v 0.015869 0.051500 -0.011687
v 0.016693 0.051500 -0.011687
v 0.016693 0.051500 -0.011687
v 0.015869 0.051500 -0.011687
v 0.042755 0.051500 -0.011687
v 0.042755 0.051500 -0.011687
v 0.047941 0.051087 -0.011687
v 0.047941 0.051087 -0.011687
v 0.047461 0.051397 -0.011687
v 0.047461 0.051397 -0.011687
v -0.048353 0.027594 -0.010031
v -0.048353 0.027594 0.000000
v -0.048353 0.030735 0.000000
v -0.048353 0.030735 -0.010031
v -0.048353 0.030735 -0.011687
v -0.048353 0.027594 -0.011687
v -0.048353 0.027594 -0.011687
v -0.048250 0.027594 -0.011984
v -0.048353 0.030735 -0.011687
v -0.048250 0.030735 -0.011984
v -0.047941 0.030735 -0.012250
v -0.047941 0.027594 -0.012250
v -0.047423 0.027594 -0.012437
v -0.047423 0.030735 -0.012438
v -0.046695 0.030735 -0.012500
v -0.046695 0.027594 -0.012500
v -0.042593 0.027594 -0.012500
v -0.042593 0.030735 -0.012500
v -0.015061 0.027594 -0.012500
v -0.016051 0.030735 -0.012500
v -0.015060 0.030735 -0.012500
v -0.016052 0.027594 -0.012500
v -0.010792 0.027594 -0.012500
v -0.010791 0.030735 -0.012500
v 0.042750 0.027594 -0.012500
v 0.016659 0.027594 -0.012500
v 0.016664 0.030735 -0.012500
v 0.042751 0.030735 -0.012500
v 0.015839 0.030735 -0.012500
v 0.015834 0.027594 -0.012500
v 0.047941 0.027594 -0.012250
v 0.047461 0.030735 -0.012438
v 0.047941 0.030735 -0.012250
v 0.047461 0.027594 -0.012438
v 0.048250 0.027594 -0.011984
v 0.048250 0.030735 -0.011984
v 0.048353 0.030735 -0.011687
v 0.048353 0.027594 -0.011687
v 0.048353 0.027594 -0.011687
v 0.048353 0.027594 -0.010031
v 0.048353 0.030735 -0.010031
v 0.048353 0.030735 -0.011687
v 0.048353 0.027594 0.000000
v 0.048353 0.030735 0.000000
v 0.046864 0.026119 0.000000
v 0.046864 0.026119 -0.010031
v 0.047465 0.026222 0.000000
v 0.047465 0.026222 -0.010031
v 0.046864 0.026119 -0.011687
v 0.047465 0.026222 -0.011687
v 0.046864 0.026119 -0.011687
v 0.046862 0.026222 -0.011984
v 0.046856 0.026531 -0.012250
v 0.046849 0.027003 -0.012438
v 0.046847 0.027594 -0.012500
v 0.046847 0.030735 -0.012500
v 0.046847 0.046970 -0.012500
v 0.046847 0.050074 -0.012500
v 0.046848 0.050628 -0.012438
v 0.046848 0.051397 -0.011984
v 0.046848 0.051087 -0.012250
v 0.046848 0.051500 -0.010031
v 0.046848 0.051500 -0.011687
v 0.046848 0.051500 -0.011687
v 0.046848 0.051500 0.000000
v -0.017847 0.026119 0.000000
v -0.017847 0.026119 -0.010031
v -0.017847 0.026119 -0.011687
v -0.017847 0.026119 -0.011687
v -0.017747 0.026222 -0.011984
v -0.017447 0.026531 -0.012250
v -0.017148 0.027003 -0.012438
v -0.017048 0.027594 -0.012500
v -0.017047 0.030735 -0.012500
v -0.017044 0.050074 -0.012500
v -0.017044 0.050628 -0.012438
v -0.017044 0.046970 -0.012500
v -0.017044 0.051087 -0.012250
v -0.017044 0.051397 -0.011984
v -0.042593 0.051500 -0.010031
v -0.017044 0.051500 -0.010031
v -0.017044 0.051500 -0.011687
v -0.042593 0.051500 -0.011687
v -0.017044 0.051500 -0.011687
v -0.042593 0.051500 0.000000
v -0.017044 0.051500 0.000000
v -0.016152 0.025181 -0.010031
v -0.016152 0.025181 -0.011687
v -0.016152 0.025181 0.000000
v -0.016049 -0.050075 0.000000
v -0.016049 -0.050075 -0.010031
v -0.016049 -0.050075 -0.011687
v -0.016049 -0.050075 -0.011687
v -0.015946 -0.050074 -0.011984
v -0.015637 -0.050071 -0.012250
v -0.015093 -0.050069 -0.012438
v -0.014287 -0.050068 -0.012500
v -0.010239 -0.050068 -0.012500
v 0.014917 -0.050069 -0.012438
v 0.015426 -0.050071 -0.012250
v 0.015735 -0.050074 -0.011984
v 0.015839 -0.046763 -0.010031
v 0.015839 -0.050075 -0.010031
v 0.015839 -0.046763 -0.011687
v 0.015839 -0.050075 -0.011687
v 0.015839 -0.050075 -0.011687
v 0.015839 -0.050075 0.000000
v 0.015839 -0.046763 0.000000
v 0.014213 -0.051500 0.000000
v 0.014213 -0.051500 -0.010031
v 0.010268 -0.051500 0.000000
v 0.010268 -0.051500 -0.010031
v 0.010268 -0.051500 -0.011687
v 0.014213 -0.051500 -0.011687
v 0.014213 -0.051500 -0.011687
v 0.014213 -0.051397 -0.011984
v 0.010268 -0.051500 -0.011687
v 0.010268 -0.051397 -0.011984
v 0.014213 -0.051087 -0.012250
v 0.014213 -0.050626 -0.012438
v 0.010268 -0.051087 -0.012250
v 0.010268 -0.050626 -0.012438
v 0.014213 -0.050068 -0.012500
v 0.010268 -0.046652 -0.012500
v 0.014213 -0.046652 -0.012500
v 0.010268 -0.050068 -0.012500
v 0.010268 0.025247 -0.012500
v 0.014213 0.025247 -0.012500
v 0.014311 0.026004 -0.012500
v 0.010339 0.026004 -0.012500
v 0.010765 0.027003 -0.012500
v 0.014605 0.026531 -0.012500
v 0.010552 0.026531 -0.012500
v 0.014899 0.027003 -0.012500
v 0.014997 0.027594 -0.012500
v 0.010840 0.030735 -0.012500
v 0.015002 0.030735 -0.012500
v 0.010836 0.027594 -0.012500
v 0.010860 0.046970 -0.012500
v 0.015025 0.046970 -0.012500
v 0.015029 0.050074 -0.012500
v 0.010865 0.050628 -0.012438
v 0.015030 0.050628 -0.012438
v 0.010864 0.050074 -0.012500
v 0.015031 0.051397 -0.011984
v 0.015031 0.051087 -0.012250
v 0.010866 0.051397 -0.011984
v 0.010866 0.051087 -0.012250
v 0.010866 0.051500 -0.010031
v 0.015031 0.051500 -0.010031
v 0.010866 0.051500 -0.011687
v 0.015031 0.051500 -0.011687
v 0.010866 0.051500 -0.011687
v 0.015031 0.051500 -0.011687
v 0.015031 0.051500 0.000000
v 0.010866 0.051500 0.000000
v 0.010866 0.051500 -0.010031
v 0.010866 0.051500 -0.011687
v 0.010866 0.051500 0.000000
f 1 2 3
f 3 2 4
f 5 6 1
f 1 6 2
f 7 8 9
f 8 7 10
f 11 8 10
f 10 12 11
f 8 13 14
f 13 8 11
f 9 14 15
f 14 9 8
f 16 17 18
f 17 16 19
f 20 21 18
f 18 21 16
f 22 23 24
f 24 23 25
f 22 26 27
f 22 27 23
f 28 29 30
f 31 30 29
f 30 31 32
f 33 32 31
f 34 30 32
f 30 34 35
f 28 30 35
f 35 36 28
f 37 38 39
f 39 38 40
f 41 42 37
f 37 42 38
f 43 44 45
f 45 44 46
f 47 48 43
f 43 48 44
f 49 50 51
f 50 49 52
f 53 50 52
f 52 54 53
f 50 55 56
f 55 50 53
f 51 56 57
f 56 51 50
f 58 59 60
f 59 58 61
f 62 63 60
f 60 63 58
f 64 65 66
f 64 66 67
f 68 69 70
f 69 68 71
f 69 72 70
f 72 69 73
f 74 75 76
f 75 74 77
f 78 79 80
f 79 81 80
f 82 83 79
f 79 83 81
f 84 85 86
f 86 85 87
f 88 89 84
f 84 89 85
f 90 91 39
f 39 40 90
f 90 92 91
f 92 90 93
f 94 95 96
f 95 94 97
f 96 98 99
f 98 96 95
f 34 32 99
f 96 99 32
f 32 33 96
f 94 96 33
f 100 101 102
f 102 101 103
f 103 104 105
f 104 103 101
f 106 103 105
f 103 106 107
f 102 103 107
f 102 107 108
f 109 110 111
f 112 111 110
f 112 113 114
f 113 112 110
f 7 9 114
f 112 114 9
f 112 15 111
f 15 112 9
f 115 116 51
f 116 49 51
f 115 57 117
f 57 115 51
f 118 119 117
f 115 117 119
f 116 115 119
f 116 119 120
f 121 122 3
f 3 4 121
f 47 121 48
f 121 47 122
f 123 124 125
f 124 126 125
f 123 127 128
f 127 123 125
f 123 54 52
f 54 123 128
f 124 52 49
f 52 124 123
f 129 130 131
f 131 130 132
f 131 63 62
f 63 131 132
f 133 134 135
f 134 136 135
f 133 137 138
f 137 133 135
f 139 138 140
f 138 139 133
f 141 134 139
f 139 134 133
f 142 143 144
f 144 143 145
f 144 145 146
f 146 145 147
f 148 149 150
f 149 148 151
f 151 71 68
f 71 151 148
f 152 153 154
f 154 153 155
f 154 155 156
f 156 155 157
f 158 159 160
f 159 158 161
f 160 83 82
f 83 160 159
f 162 163 164
f 163 162 165
f 165 166 163
f 166 165 167
f 163 168 169
f 168 163 166
f 164 169 170
f 169 164 163
f 171 172 173
f 173 172 174
f 173 174 175
f 175 174 176
f 177 178 179
f 179 178 180
f 179 181 182
f 181 179 180
f 183 184 185
f 184 183 186
f 183 187 188
f 183 188 186
f 189 190 188
f 186 188 190
f 184 186 190
f 184 190 191
f 192 193 194
f 194 193 195
f 194 89 88
f 89 194 195
f 196 197 198
f 197 196 199
f 100 196 198
f 196 100 102
f 108 196 102
f 196 108 199
f 120 200 116
f 200 120 201
f 200 126 124
f 126 200 201
f 200 49 116
f 49 200 124
f 202 136 134
f 136 202 203
f 141 202 134
f 202 141 204
f 205 202 204
f 202 205 203
f 206 207 208
f 206 208 209
f 210 211 206
f 206 211 207
f 207 211 212
f 211 213 212
f 207 214 208
f 214 207 212
f 215 216 217
f 216 215 218
f 219 217 220
f 217 219 215
f 215 219 164
f 219 162 164
f 215 170 218
f 170 215 164
f 221 222 223
f 222 221 224
f 225 221 223
f 221 225 226
f 227 221 226
f 221 227 224
f 228 229 230
f 229 228 231
f 232 228 230
f 228 232 233
f 234 228 233
f 228 234 231
f 235 189 188
f 189 235 236
f 187 235 188
f 235 187 237
f 238 235 237
f 235 238 236
f 212 239 214
f 239 212 240
f 213 240 212
f 240 213 241
f 242 240 241
f 241 243 242
f 240 244 239
f 244 240 242
f 108 245 246
f 245 108 107
f 106 245 107
f 245 106 247
f 248 41 37
f 41 248 249
f 248 37 250
f 250 37 39
f 227 251 224
f 224 251 252
f 173 253 254
f 254 171 173
f 253 173 255
f 255 173 175
f 224 256 222
f 256 224 252
f 79 78 257
f 258 257 78
f 259 167 165
f 167 259 260
f 162 261 165
f 165 261 259
f 79 257 262
f 262 82 79
f 220 263 219
f 263 220 264
f 160 265 266
f 266 158 160
f 265 160 262
f 262 160 82
f 263 162 219
f 162 263 261
f 267 268 74
f 267 74 76
f 157 269 156
f 269 157 270
f 234 271 231
f 231 271 272
f 179 273 274
f 274 177 179
f 273 179 275
f 275 179 182
f 231 276 229
f 276 231 272
f 277 278 84
f 277 84 86
f 190 279 191
f 279 190 280
f 189 280 190
f 280 189 281
f 84 278 282
f 282 88 84
f 238 283 236
f 236 283 284
f 194 285 286
f 286 192 194
f 285 194 282
f 282 194 88
f 236 281 189
f 281 236 284
f 287 64 288
f 64 287 65
f 150 149 289
f 150 289 290
f 209 291 206
f 291 209 292
f 144 293 294
f 294 142 144
f 293 144 295
f 295 144 146
f 291 210 206
f 210 291 296
f 297 298 60
f 297 60 59
f 135 299 137
f 299 135 300
f 136 300 135
f 300 136 301
f 60 298 302
f 302 62 60
f 205 303 203
f 203 303 304
f 131 305 306
f 306 129 131
f 305 131 302
f 302 131 62
f 203 301 136
f 301 203 304
f 307 308 43
f 307 43 45
f 125 309 127
f 309 125 310
f 126 310 125
f 310 126 311
f 308 47 43
f 47 308 312
f 120 313 201
f 201 313 314
f 122 315 316
f 316 3 122
f 315 122 312
f 312 122 47
f 201 311 126
f 311 201 314
f 317 1 316
f 316 1 3
f 120 318 313
f 318 120 119
f 119 118 319
f 119 319 318
f 317 320 1
f 320 5 1
f 321 18 322
f 322 18 17
f 110 323 113
f 323 110 324
f 109 324 110
f 324 109 325
f 321 326 18
f 326 20 18
f 327 22 328
f 328 22 24
f 95 329 98
f 329 95 330
f 97 330 95
f 330 97 331
f 332 22 327
f 22 332 26
f 108 246 199
f 199 246 333
f 91 334 250
f 250 39 91
f 334 91 335
f 335 91 92
f 199 336 197
f 336 199 333
f 337 130 129
f 130 337 338
f 339 340 337
f 337 340 338
f 341 342 337
f 342 339 337
f 341 337 306
f 306 337 129
f 205 343 303
f 343 205 344
f 344 345 346
f 344 346 343
f 345 344 347
f 348 347 344
f 204 348 344
f 204 344 205
f 349 348 204
f 349 204 141
f 347 349 350
f 349 347 348
f 350 349 351
f 351 349 352
f 352 141 139
f 141 352 349
f 352 140 353
f 140 352 139
f 351 353 354
f 353 351 352
f 355 356 357
f 356 355 358
f 214 356 358
f 356 214 239
f 359 356 239
f 359 239 244
f 357 359 360
f 359 357 356
f 169 361 362
f 361 169 168
f 362 361 363
f 364 363 361
f 365 362 363
f 362 365 366
f 362 170 169
f 170 362 366
f 367 368 369
f 368 367 370
f 368 370 223
f 370 225 223
f 368 223 371
f 223 222 371
f 369 368 371
f 369 371 372
f 371 373 372
f 373 371 374
f 222 374 371
f 374 222 256
f 375 175 376
f 175 375 255
f 377 375 376
f 377 376 378
f 376 379 378
f 378 379 380
f 379 376 175
f 175 176 379
f 381 382 383
f 382 381 384
f 78 80 381
f 381 80 384
f 385 258 381
f 258 78 381
f 385 381 386
f 386 381 383
f 227 387 251
f 387 227 388
f 388 167 260
f 388 260 387
f 167 389 166
f 389 167 388
f 226 389 388
f 226 388 227
f 390 226 225
f 226 390 389
f 390 168 166
f 390 166 389
f 168 391 361
f 391 168 390
f 391 225 370
f 225 391 390
f 392 370 367
f 370 392 391
f 364 391 392
f 391 364 361
f 393 31 394
f 31 29 394
f 393 104 101
f 104 393 394
f 100 393 101
f 393 100 395
f 33 393 395
f 393 33 31
f 396 198 397
f 198 197 397
f 396 97 94
f 97 396 397
f 33 395 94
f 396 94 395
f 198 396 395
f 198 395 100
f 332 398 399
f 332 399 26
f 397 331 97
f 331 397 400
f 197 400 397
f 400 197 336
f 399 398 335
f 335 92 399
f 399 401 26
f 26 401 27
f 401 399 92
f 92 93 401
f 402 59 403
f 59 61 403
f 59 402 297
f 404 297 402
f 299 405 137
f 406 137 405
f 137 406 138
f 407 138 406
f 138 407 140
f 408 140 407
f 353 409 354
f 410 354 409
f 140 408 353
f 409 353 408
f 56 411 57
f 412 57 411
f 55 413 56
f 411 56 413
f 57 412 117
f 414 117 412
f 414 118 117
f 118 414 415
f 416 417 418
f 417 416 419
f 415 319 118
f 319 415 420
f 417 419 421
f 417 421 422
f 41 378 380
f 41 380 42
f 373 247 372
f 106 372 247
f 377 41 249
f 41 377 378
f 104 367 105
f 105 367 369
f 105 369 372
f 105 372 106
f 29 392 394
f 392 29 364
f 394 367 104
f 367 394 392
f 29 28 364
f 28 363 364
f 36 363 28
f 363 36 365
f 12 357 11
f 357 12 355
f 11 360 13
f 360 11 357
f 413 55 410
f 55 354 410
f 54 350 53
f 53 350 351
f 53 354 55
f 354 53 351
f 128 345 347
f 345 128 127
f 128 350 54
f 350 128 347
f 307 339 342
f 339 307 45
f 345 127 309
f 345 309 346
f 339 45 46
f 339 46 340
f 402 143 142
f 143 402 403
f 404 402 294
f 294 402 142
f 406 292 209
f 292 406 405
f 407 209 208
f 209 407 406
f 214 408 208
f 208 408 407
f 409 214 358
f 214 409 408
f 410 358 355
f 358 410 409
f 413 355 12
f 355 413 410
f 411 12 10
f 12 411 413
f 412 10 7
f 10 412 411
f 414 7 114
f 7 414 412
f 113 415 114
f 414 114 415
f 415 113 323
f 415 323 420
f 419 416 322
f 322 17 419
f 421 419 17
f 17 19 421
f 76 161 158
f 161 76 75
f 267 76 266
f 266 76 158
f 156 264 220
f 264 156 269
f 216 152 217
f 154 217 152
f 154 220 217
f 220 154 156
f 243 70 72
f 70 243 241
f 68 241 213
f 241 68 70
f 210 151 211
f 151 210 149
f 211 151 68
f 211 68 213
f 210 296 149
f 149 296 289
f 65 287 423
f 423 424 65
f 66 65 424
f 424 425 66
f 192 426 193
f 426 192 427
f 427 67 426
f 67 427 64
f 428 288 427
f 288 64 427
f 428 427 286
f 286 427 192
f 238 429 283
f 429 238 430
f 430 150 290
f 430 290 429
f 150 431 148
f 431 150 430
f 237 431 430
f 237 430 238
f 432 431 237
f 432 237 187
f 148 432 71
f 432 148 431
f 71 433 69
f 433 71 432
f 433 187 183
f 187 433 432
f 434 433 183
f 434 183 185
f 73 433 434
f 433 73 69
f 153 435 155
f 155 435 436
f 436 435 230
f 435 232 230
f 436 230 437
f 230 229 437
f 436 157 155
f 157 436 437
f 438 439 440
f 438 440 441
f 437 270 157
f 270 437 442
f 229 442 437
f 442 229 276
f 440 439 275
f 275 182 440
f 440 443 441
f 443 440 444
f 444 440 182
f 182 181 444
f 445 178 177
f 178 445 446
f 447 448 445
f 445 448 446
f 449 450 445
f 450 447 445
f 449 445 274
f 274 445 177
f 234 451 271
f 451 234 452
f 452 453 454
f 452 454 451
f 455 233 232
f 233 455 456
f 455 457 458
f 455 458 456
f 453 452 458
f 456 458 452
f 233 456 452
f 233 452 234
f 459 460 461
f 460 459 462
f 457 455 462
f 460 462 455
f 460 232 435
f 232 460 455
f 153 460 435
f 460 153 461
f 463 461 464
f 461 463 459
f 152 461 153
f 461 152 464
f 216 464 152
f 464 216 465
f 466 464 465
f 464 466 463
f 467 468 469
f 468 467 470
f 466 465 470
f 468 470 465
f 468 216 218
f 216 468 465
f 170 469 218
f 218 469 468
f 471 472 473
f 472 471 474
f 467 469 474
f 472 474 469
f 472 170 366
f 170 472 469
f 473 366 365
f 366 473 472
f 475 473 476
f 473 475 471
f 476 365 36
f 365 476 473
f 477 478 479
f 478 477 480
f 478 480 476
f 480 475 476
f 478 36 35
f 36 478 476
f 479 35 34
f 35 479 478
f 98 481 99
f 482 99 481
f 482 483 484
f 483 482 481
f 477 479 484
f 482 484 479
f 482 34 99
f 34 482 479
f 485 486 487
f 485 487 488
f 481 489 483
f 489 481 490
f 98 490 481
f 490 98 329
f 486 24 487
f 24 486 328
f 487 491 488
f 488 491 492
f 487 25 491
f 25 487 24
f 447 86 87
f 447 87 448
f 450 277 86
f 450 86 447
f 279 454 191
f 453 191 454
f 184 458 185
f 457 185 458
f 458 184 191
f 458 191 453
f 434 462 73
f 459 73 462
f 462 434 185
f 462 185 457
f 72 459 463
f 459 72 73
f 72 463 243
f 466 243 463
f 470 244 242
f 467 244 470
f 242 466 470
f 466 242 243
f 359 474 360
f 471 360 474
f 359 467 474
f 467 359 244
f 13 471 475
f 471 13 360
f 14 480 15
f 477 15 480
f 14 475 480
f 475 14 13
f 484 109 111
f 109 484 483
f 111 477 484
f 477 111 15
f 493 20 326
f 20 493 494
f 483 325 109
f 325 483 489
f 20 494 495
f 20 495 21
f 496 497 498
f 497 496 499
f 499 496 500
f 500 501 499
f 502 503 504
f 503 502 505
f 506 505 507
f 507 505 502
f 508 502 509
f 502 508 507
f 509 502 504
f 509 504 510
f 511 512 513
f 512 511 514
f 514 511 515
f 515 516 514
f 517 518 519
f 518 517 520
f 517 521 520
f 521 522 520
f 523 524 525
f 523 525 526
f 526 525 527
f 526 527 528
f 525 529 527
f 529 525 530
f 531 530 524
f 524 530 525
f 532 533 534
f 533 532 535
f 535 532 536
f 536 537 535
f 538 539 540
f 539 538 541
f 541 538 542
f 542 543 541
f 544 545 546
f 545 544 547
f 548 547 549
f 549 547 544
f 550 544 551
f 544 550 549
f 546 551 544
f 551 546 552
f 553 554 555
f 554 553 556
f 556 553 557
f 557 558 556
f 559 560 561
f 562 561 560
f 563 564 565
f 564 563 566
f 563 567 568
f 567 563 565
f 569 570 571
f 570 569 572
f 573 574 575
f 573 575 576
f 575 574 577
f 577 578 575
f 579 580 581
f 580 579 582
f 582 579 583
f 583 584 582
f 534 533 585
f 585 533 586
f 585 587 588
f 587 585 586
f 589 590 591
f 589 591 592
f 592 593 589
f 593 592 594
f 527 529 594
f 527 594 592
f 528 527 592
f 528 592 591
f 595 596 597
f 596 595 598
f 599 597 600
f 597 599 595
f 601 597 602
f 597 601 600
f 603 602 596
f 602 597 596
f 604 605 606
f 604 606 607
f 607 608 604
f 608 607 609
f 504 503 609
f 504 609 607
f 607 510 504
f 510 607 606
f 546 545 610
f 546 610 611
f 611 552 546
f 552 611 612
f 613 614 612
f 613 612 611
f 615 613 610
f 613 611 610
f 498 497 616
f 616 497 617
f 616 543 542
f 543 616 617
f 618 619 620
f 618 620 621
f 621 622 618
f 622 621 623
f 548 621 547
f 621 548 623
f 621 620 547
f 547 620 545
f 624 625 626
f 626 627 624
f 624 557 625
f 557 624 558
f 628 629 630
f 628 630 631
f 631 632 628
f 632 631 633
f 633 631 634
f 633 634 635
f 630 634 631
f 634 630 636
f 637 638 639
f 639 640 637
f 638 641 642
f 641 638 637
f 643 644 645
f 644 643 646
f 644 646 566
f 564 566 646
f 647 648 649
f 649 650 647
f 651 652 648
f 651 648 647
f 653 654 655
f 654 653 656
f 653 655 577
f 577 655 578
f 657 658 659
f 658 657 660
f 659 661 662
f 661 659 658
f 658 663 661
f 663 658 664
f 658 660 664
f 664 660 665
f 666 667 668
f 668 669 666
f 667 670 671
f 670 667 666
f 672 673 674
f 674 675 672
f 676 672 677
f 672 676 673
f 678 679 680
f 679 678 681
f 682 678 680
f 678 682 683
f 684 685 682
f 684 682 680
f 680 679 684
f 686 684 679
f 687 688 689
f 689 690 687
f 688 687 583
f 583 687 584
f 691 692 693
f 692 691 694
f 598 692 596
f 692 598 693
f 603 692 694
f 692 603 596
f 615 695 696
f 695 615 610
f 619 695 620
f 695 619 696
f 545 695 610
f 695 545 620
f 629 697 630
f 697 629 698
f 697 636 630
f 636 697 699
f 700 697 698
f 697 700 699
f 701 702 703
f 702 704 703
f 705 703 704
f 703 705 706
f 707 708 705
f 707 705 704
f 709 704 702
f 704 709 707
f 710 711 712
f 711 710 713
f 711 714 712
f 712 714 715
f 660 657 714
f 660 714 711
f 665 711 713
f 711 665 660
f 716 717 718
f 717 716 719
f 720 717 721
f 717 720 718
f 722 717 719
f 717 722 721
f 723 724 725
f 724 723 726
f 727 724 728
f 724 727 725
f 729 724 726
f 724 729 728
f 685 730 682
f 730 685 731
f 730 683 682
f 683 730 732
f 733 730 731
f 730 733 732
f 734 707 735
f 735 707 709
f 708 734 736
f 734 708 707
f 734 737 736
f 738 736 737
f 734 739 737
f 739 734 735
f 740 603 741
f 603 740 602
f 740 601 602
f 601 740 742
f 537 743 535
f 743 537 744
f 745 533 535
f 535 743 745
f 746 719 747
f 719 746 722
f 669 748 666
f 666 748 749
f 750 670 666
f 666 749 750
f 747 719 751
f 751 719 716
f 576 575 752
f 576 752 753
f 754 662 755
f 662 754 659
f 756 659 754
f 659 756 657
f 578 757 575
f 575 757 752
f 715 758 759
f 758 715 714
f 654 760 655
f 655 760 761
f 757 578 655
f 655 761 757
f 758 657 756
f 657 758 714
f 762 763 569
f 572 569 763
f 764 652 651
f 652 764 765
f 766 726 767
f 726 766 729
f 675 768 672
f 672 768 769
f 770 677 672
f 672 769 770
f 767 726 771
f 771 726 723
f 580 582 772
f 582 773 772
f 684 774 775
f 774 684 686
f 775 685 684
f 685 775 776
f 584 777 582
f 582 777 773
f 778 731 779
f 731 778 733
f 690 780 687
f 687 780 781
f 777 584 687
f 687 781 777
f 779 731 776
f 776 731 685
f 782 560 559
f 560 782 783
f 784 645 785
f 645 784 643
f 701 786 787
f 786 701 703
f 640 788 637
f 637 788 789
f 790 641 637
f 637 789 790
f 786 706 791
f 706 786 703
f 554 556 792
f 556 793 792
f 794 795 628
f 794 628 632
f 795 629 628
f 629 795 796
f 558 797 556
f 556 797 793
f 798 698 799
f 698 798 700
f 627 800 624
f 624 800 801
f 797 558 624
f 624 801 797
f 799 698 796
f 796 698 629
f 539 541 802
f 541 803 802
f 618 804 805
f 804 618 622
f 805 619 618
f 619 805 806
f 543 803 541
f 803 543 807
f 808 696 809
f 696 808 615
f 497 810 617
f 617 810 811
f 807 543 617
f 617 811 807
f 809 696 806
f 806 696 619
f 810 497 499
f 499 812 810
f 813 615 808
f 615 813 613
f 814 613 813
f 613 814 614
f 499 501 815
f 499 815 812
f 816 512 514
f 514 817 816
f 818 819 604
f 818 604 608
f 819 605 604
f 605 819 820
f 514 516 821
f 514 821 817
f 822 518 520
f 520 823 822
f 824 589 825
f 825 589 593
f 824 826 590
f 824 590 589
f 520 522 827
f 520 827 823
f 741 694 828
f 694 741 603
f 533 745 586
f 586 745 829
f 830 587 586
f 586 829 830
f 828 694 831
f 831 694 691
f 832 626 833
f 626 832 627
f 832 833 834
f 834 835 832
f 832 835 836
f 832 836 837
f 800 627 832
f 832 837 800
f 838 700 798
f 700 838 839
f 840 839 838
f 839 840 841
f 839 841 842
f 839 842 843
f 700 839 699
f 839 843 699
f 636 699 844
f 699 843 844
f 842 844 843
f 844 842 845
f 844 846 847
f 846 844 845
f 636 847 634
f 847 636 844
f 847 635 634
f 635 847 848
f 847 846 848
f 848 846 849
f 850 851 852
f 851 850 853
f 709 850 735
f 850 709 853
f 850 854 735
f 739 735 854
f 850 852 854
f 854 852 855
f 664 856 663
f 856 664 857
f 856 857 858
f 856 858 859
f 857 860 858
f 860 857 861
f 665 857 664
f 857 665 861
f 862 863 864
f 863 862 865
f 718 720 865
f 718 865 862
f 866 716 718
f 866 718 862
f 862 864 866
f 867 866 864
f 868 869 866
f 868 866 867
f 869 716 866
f 716 869 751
f 670 870 871
f 870 670 750
f 872 871 873
f 871 870 873
f 874 872 875
f 872 874 871
f 671 670 874
f 874 670 871
f 876 877 878
f 878 877 879
f 877 876 573
f 573 576 877
f 877 576 753
f 877 753 880
f 881 879 877
f 877 880 881
f 882 722 746
f 722 882 883
f 755 883 882
f 883 755 662
f 662 884 883
f 884 662 661
f 722 883 721
f 883 884 721
f 884 885 721
f 721 885 720
f 661 885 884
f 885 661 663
f 663 886 885
f 886 663 856
f 720 886 865
f 886 720 885
f 886 887 865
f 865 887 863
f 886 859 887
f 859 886 856
f 888 523 526
f 888 526 889
f 599 889 595
f 889 599 888
f 889 598 595
f 598 889 890
f 889 528 890
f 528 889 526
f 891 691 693
f 891 693 892
f 892 590 891
f 590 892 591
f 890 528 591
f 890 591 892
f 598 890 693
f 890 892 693
f 522 893 827
f 893 894 827
f 826 895 891
f 826 891 590
f 895 691 891
f 691 895 831
f 587 830 893
f 893 830 894
f 896 522 521
f 522 896 893
f 588 587 896
f 896 587 893
f 897 555 554
f 897 554 898
f 898 554 792
f 898 792 899
f 900 794 632
f 900 632 901
f 901 632 633
f 633 902 901
f 902 633 635
f 635 903 902
f 904 848 849
f 904 849 905
f 903 635 848
f 903 848 904
f 906 551 552
f 906 552 907
f 908 550 551
f 908 551 906
f 907 552 612
f 907 612 909
f 909 614 910
f 614 909 612
f 911 912 913
f 911 913 914
f 910 814 915
f 814 910 614
f 916 917 911
f 917 912 911
f 536 875 537
f 875 872 537
f 742 868 867
f 742 867 601
f 873 537 872
f 537 873 744
f 600 864 863
f 863 599 600
f 864 600 867
f 601 867 600
f 887 523 888
f 523 887 859
f 887 888 863
f 863 888 599
f 859 858 524
f 859 524 523
f 858 531 524
f 531 858 860
f 852 506 507
f 506 852 851
f 855 507 508
f 507 855 852
f 905 849 550
f 905 550 908
f 549 846 845
f 845 548 549
f 846 549 849
f 849 549 550
f 623 841 622
f 841 623 842
f 842 623 845
f 845 623 548
f 802 835 539
f 835 802 836
f 804 841 840
f 841 804 622
f 834 540 835
f 540 539 835
f 897 898 639
f 639 898 640
f 788 640 898
f 898 899 788
f 900 901 787
f 787 901 701
f 902 701 901
f 701 902 702
f 903 702 902
f 702 903 709
f 904 709 903
f 709 904 853
f 904 905 853
f 853 905 851
f 905 908 851
f 851 908 506
f 506 906 505
f 906 506 908
f 505 906 907
f 505 907 503
f 909 503 907
f 503 909 609
f 910 608 609
f 910 609 909
f 818 910 915
f 910 818 608
f 512 816 912
f 912 816 913
f 513 512 917
f 917 512 912
f 570 572 656
f 656 572 654
f 760 654 572
f 572 763 760
f 764 651 759
f 759 651 715
f 650 710 712
f 650 712 647
f 647 715 651
f 715 647 712
f 565 738 567
f 738 565 736
f 564 736 565
f 736 564 708
f 706 646 643
f 646 706 705
f 646 705 564
f 708 564 705
f 791 643 784
f 643 791 706
f 918 919 559
f 559 919 782
f 920 918 561
f 561 918 559
f 921 690 689
f 690 921 922
f 562 922 921
f 922 562 560
f 922 560 783
f 922 783 923
f 780 690 922
f 922 923 780
f 924 733 778
f 733 924 925
f 785 925 924
f 925 785 645
f 645 926 925
f 926 645 644
f 733 925 732
f 925 926 732
f 683 732 927
f 732 926 927
f 926 644 927
f 927 644 566
f 928 566 563
f 566 928 927
f 683 928 678
f 928 683 927
f 928 929 678
f 681 678 929
f 928 568 929
f 568 928 563
f 930 648 931
f 648 930 649
f 725 727 930
f 725 930 931
f 932 723 725
f 932 725 931
f 931 652 932
f 652 931 648
f 933 934 935
f 934 936 935
f 765 937 932
f 765 932 652
f 937 723 932
f 723 937 771
f 677 770 934
f 934 770 936
f 938 934 939
f 939 934 933
f 676 677 938
f 938 677 934
f 940 941 674
f 674 941 675
f 941 940 942
f 942 943 941
f 941 943 944
f 941 944 945
f 768 675 941
f 941 945 768
f 946 729 766
f 729 946 947
f 948 947 946
f 947 948 949
f 950 951 728
f 728 951 727
f 952 951 950
f 951 952 953
f 947 949 952
f 947 952 950
f 729 947 728
f 947 950 728
f 954 955 956
f 955 954 957
f 951 953 957
f 951 957 954
f 727 954 930
f 954 727 951
f 954 649 930
f 649 954 956
f 956 958 959
f 958 956 955
f 956 650 649
f 650 956 959
f 959 710 650
f 710 959 960
f 959 961 960
f 961 959 958
f 962 963 964
f 963 962 965
f 960 961 964
f 964 963 960
f 963 710 960
f 710 963 713
f 965 713 963
f 713 965 665
f 966 967 968
f 967 966 969
f 965 962 969
f 965 969 966
f 665 966 861
f 966 665 965
f 966 968 861
f 861 968 860
f 968 970 971
f 970 968 967
f 968 971 860
f 860 971 531
f 972 973 974
f 973 972 975
f 971 970 975
f 971 975 972
f 531 972 530
f 972 531 971
f 972 974 530
f 530 974 529
f 976 593 594
f 976 594 977
f 977 978 976
f 978 977 979
f 974 973 979
f 974 979 977
f 977 529 974
f 529 977 594
f 980 981 982
f 981 983 982
f 984 985 976
f 984 976 978
f 985 593 976
f 593 985 825
f 518 983 981
f 983 518 822
f 986 980 987
f 980 986 981
f 519 981 986
f 981 519 518
f 942 581 943
f 581 580 943
f 772 944 580
f 943 580 944
f 948 774 686
f 948 686 949
f 952 679 681
f 952 681 953
f 679 952 686
f 949 686 952
f 957 929 568
f 957 568 955
f 929 957 681
f 953 681 957
f 568 567 955
f 955 567 958
f 958 567 738
f 958 738 961
f 739 962 964
f 739 964 737
f 737 961 738
f 961 737 964
f 969 854 855
f 969 855 967
f 854 962 739
f 962 854 969
f 855 508 967
f 967 508 970
f 975 509 510
f 975 510 973
f 509 970 508
f 970 509 975
f 605 978 979
f 605 979 606
f 606 973 510
f 973 606 979
f 516 988 989
f 516 989 821
f 820 978 605
f 978 820 984
f 515 990 516
f 990 988 516
