# generated by normalize_glyphs.py from glyph_7.obj
# x=width y=cap-height(0.103) z=thickness(0.025), metres, centred
v -0.039147 0.014335 -0.011821
v -0.019110 0.030197 -0.011821
v -0.039147 0.048564 -0.011821
v 0.038911 0.048564 -0.011821
v 0.038911 0.033954 -0.011821
v 0.013170 0.030197 -0.011821
v 0.002735 -0.048835 -0.011821
v -0.019110 0.014335 -0.011821
v -0.021754 -0.048835 -0.011821
v -0.039147 0.014335 0.011821
v -0.039147 0.048564 0.011821
v -0.019110 0.030197 0.011821
v 0.038911 0.048564 0.011821
v 0.038911 0.033954 0.011821
v 0.013170 0.030197 0.011821
v 0.002735 -0.048835 0.011821
v -0.019110 0.014335 0.011821
v -0.021754 -0.048835 0.011821
v 0.039604 0.049256 0.011741
v -0.039147 0.048564 0.011821
v -0.039839 0.049256 0.011741
v 0.040228 0.049881 0.011509
v -0.040464 0.049881 0.011509
v 0.040724 0.050376 0.011149
v -0.040959 0.050376 0.011149
v -0.041278 0.050695 0.010694
v 0.041152 0.050804 0.010190
v -0.041387 0.050804 0.010190
v 0.041152 0.050804 -0.010190
v -0.041387 0.050804 -0.010190
v 0.041042 0.050695 -0.010694
v -0.041278 0.050695 -0.010694
v 0.040724 0.050376 -0.011149
v -0.040959 0.050376 -0.011149
v -0.040464 0.049881 -0.011509
v 0.039604 0.049256 -0.011741
v -0.039839 0.049256 -0.011741
v 0.038911 0.048564 -0.011821
v -0.039147 0.048564 -0.011821
v 0.039604 0.033809 0.011741
v 0.038911 0.048564 0.011821
v 0.040228 0.033679 0.011509
v 0.040724 0.033575 0.011149
v 0.041042 0.033509 0.010694
v 0.041042 0.050695 0.010694
v 0.041152 0.033486 0.010190
v 0.041152 0.033486 -0.010190
v 0.041042 0.033509 -0.010694
v 0.040228 0.049881 -0.011509
v 0.040724 0.033575 -0.011149
v 0.040228 0.033679 -0.011509
v 0.039604 0.033809 -0.011741
v 0.002735 -0.048835 0.011821
v 0.038911 0.033954 0.011821
v 0.003188 -0.049527 0.011741
v 0.003596 -0.050152 0.011509
v 0.003921 -0.050647 0.011149
v 0.004129 -0.050966 0.010694
v 0.004201 -0.051075 -0.010190
v 0.004129 -0.050966 -0.010694
v 0.003921 -0.050647 -0.011149
v 0.003596 -0.050152 -0.011509
v 0.003188 -0.049527 -0.011741
v 0.002735 -0.048835 -0.011821
v 0.038911 0.033954 -0.011821
v -0.021754 -0.048835 0.011821
v -0.022817 -0.049527 0.011741
v -0.023776 -0.050152 0.011509
v -0.024537 -0.050647 0.011149
v 0.004201 -0.051075 0.010190
v -0.025026 -0.050966 0.010694
v -0.025194 -0.051075 -0.010190
v -0.025026 -0.050966 -0.010694
v -0.024537 -0.050647 -0.011149
v -0.023776 -0.050152 -0.011509
v -0.022817 -0.049527 -0.011741
v -0.021754 -0.048835 -0.011821
v 0.012107 0.029505 0.011741
v 0.011148 0.028880 0.011509
v 0.010387 0.028384 0.011149
v 0.009899 0.028066 0.010694
v 0.009730 0.027956 0.010190
v -0.025194 -0.051075 0.010190
v 0.009730 0.027956 -0.010190
v 0.009899 0.028066 -0.010694
v 0.010387 0.028384 -0.011149
v 0.011148 0.028880 -0.011509
v 0.012107 0.029505 -0.011741
v -0.019110 0.030197 0.011821
v 0.013170 0.030197 0.011821
v -0.018418 0.029505 0.011741
v -0.017793 0.028880 0.011509
v -0.017298 0.028384 0.011149
v -0.016979 0.028066 0.010694
v -0.016870 0.027956 -0.010190
v -0.016979 0.028066 -0.010694
v -0.017298 0.028384 -0.011149
v -0.017793 0.028880 -0.011509
v -0.018418 0.029505 -0.011741
v -0.019110 0.030197 -0.011821
v 0.013170 0.030197 -0.011821
v -0.019110 0.014335 0.011821
v -0.018418 0.013643 0.011741
v -0.017793 0.013018 0.011509
v -0.017298 0.012522 0.011149
v -0.016870 0.027956 0.010190
v -0.016979 0.012204 0.010694
v -0.016870 0.012094 -0.010190
v -0.016979 0.012204 -0.010694
v -0.017298 0.012522 -0.011149
v -0.017793 0.013018 -0.011509
v -0.018418 0.013643 -0.011741
v -0.019110 0.014335 -0.011821
v -0.039147 0.014335 0.011821
v -0.040464 0.013018 0.011509
v -0.040959 0.012522 0.011149
v -0.041278 0.012204 0.010694
v -0.016870 0.012094 0.010190
v -0.041387 0.012094 -0.010190
v -0.041278 0.012204 -0.010694
v -0.040959 0.012522 -0.011149
v -0.040464 0.013018 -0.011509
v -0.039147 0.014335 -0.011821
v -0.039839 0.013643 0.011741
v -0.041387 0.012094 0.010190
v -0.039839 0.013643 -0.011741
v -0.039029 0.014471 -0.011549
v -0.018993 0.030333 -0.011549
v -0.039029 0.048699 -0.011549
v 0.039029 0.048699 -0.011549
v 0.039029 0.034089 -0.011549
v 0.013288 0.030333 -0.011549
v 0.002852 -0.048699 -0.011549
v -0.018993 0.014471 -0.011549
v -0.021636 -0.048699 -0.011549
v -0.039029 0.014471 0.011549
v -0.039029 0.048699 0.011549
v -0.018993 0.030333 0.011549
v 0.039029 0.048699 0.011549
v 0.039029 0.034089 0.011549
v 0.013288 0.030333 0.011549
v 0.002852 -0.048699 0.011549
v -0.018993 0.014471 0.011549
v -0.021636 -0.048699 0.011549
v 0.039894 0.049565 0.011449
v -0.039029 0.048699 0.011549
v -0.039894 0.049565 0.011449
v -0.040675 0.050345 0.011160
v 0.041295 0.050965 0.010709
v -0.041295 0.050965 0.010709
v 0.041693 0.051363 0.010141
v -0.041693 0.051363 0.010141
v 0.041830 0.051500 0.009511
v -0.041830 0.051500 0.009511
v 0.041830 0.051500 -0.009511
v -0.041830 0.051500 -0.009511
v 0.041693 0.051363 -0.010141
v -0.041693 0.051363 -0.010141
v 0.041295 0.050965 -0.010709
v -0.041295 0.050965 -0.010709
v 0.040675 0.050345 -0.011160
v -0.040675 0.050345 -0.011160
v 0.039894 0.049565 -0.011449
v -0.039894 0.049565 -0.011449
v -0.039029 0.048699 -0.011549
v 0.039894 0.033909 0.011449
v 0.039029 0.048699 0.011549
v 0.040675 0.033745 0.011160
v 0.040675 0.050345 0.011160
v 0.041295 0.033616 0.010709
v 0.041693 0.033533 0.010141
v 0.041830 0.033504 0.009511
v 0.041830 0.033504 -0.009511
v 0.041693 0.033533 -0.010141
v 0.041295 0.033616 -0.010709
v 0.040675 0.033745 -0.011160
v 0.039029 0.048699 -0.011549
v 0.039894 0.033909 -0.011449
v 0.002852 -0.048699 0.011549
v 0.039029 0.034089 0.011549
v 0.003419 -0.049565 0.011449
v 0.003930 -0.050345 0.011160
v 0.004335 -0.050965 0.010709
v 0.004595 -0.051363 0.010141
v 0.004685 -0.051500 -0.009511
v 0.004595 -0.051363 -0.010141
v 0.004335 -0.050965 -0.010709
v 0.003930 -0.050345 -0.011160
v 0.003419 -0.049565 -0.011449
v 0.002852 -0.048699 -0.011549
v 0.039029 0.034089 -0.011549
v -0.021636 -0.048699 0.011549
v -0.022965 -0.049565 0.011449
v -0.024164 -0.050345 0.011160
v -0.025115 -0.050965 0.010709
v 0.004685 -0.051500 0.009511
v -0.025726 -0.051363 0.010141
v -0.025936 -0.051500 -0.009511
v -0.025726 -0.051363 -0.010141
v -0.025115 -0.050965 -0.010709
v -0.024164 -0.050345 -0.011160
v -0.022965 -0.049565 -0.011449
v -0.021636 -0.048699 -0.011549
v 0.011959 0.029467 0.011449
v 0.010760 0.028686 0.011160
v 0.009809 0.028067 0.010709
v 0.009198 0.027669 0.010141
v 0.008988 0.027532 0.009511
v -0.025936 -0.051500 0.009511
v 0.008988 0.027532 -0.009511
v 0.009198 0.027669 -0.010141
v 0.009809 0.028067 -0.010709
v 0.010760 0.028686 -0.011160
v 0.011959 0.029467 -0.011449
v -0.018993 0.030333 0.011549
v 0.013288 0.030333 0.011549
v -0.018127 0.029467 0.011449
v -0.017346 0.028686 0.011160
v -0.016727 0.028067 0.010709
v -0.016329 0.027669 0.010141
v -0.016192 0.027532 -0.009511
v -0.016329 0.027669 -0.010141
v -0.016727 0.028067 -0.010709
v -0.017346 0.028686 -0.011160
v -0.018127 0.029467 -0.011449
v -0.018993 0.030333 -0.011549
v 0.013288 0.030333 -0.011549
v -0.018993 0.014471 0.011549
v -0.018127 0.013605 0.011449
v -0.017346 0.012824 0.011160
v -0.016727 0.012205 0.010709
v -0.016192 0.027532 0.009511
v -0.016329 0.011807 0.010141
v -0.016192 0.011670 -0.009511
v -0.016329 0.011807 -0.010141
v -0.016727 0.012205 -0.010709
v -0.017346 0.012824 -0.011160
v -0.018127 0.013605 -0.011449
v -0.018993 0.014471 -0.011549
v -0.039029 0.014471 0.011549
v -0.040675 0.012824 0.011160
v -0.041295 0.012205 0.010709
v -0.041693 0.011807 0.010141
v -0.041830 0.011670 0.009511
v -0.016192 0.011670 0.009511
v -0.041830 0.011670 -0.009511
v -0.041693 0.011807 -0.010141
v -0.041295 0.012205 -0.010709
v -0.040675 0.012824 -0.011160
v -0.039894 0.013605 -0.011449
v -0.039029 0.014471 -0.011549
v -0.039894 0.013605 0.011449
v -0.039446 0.013987 -0.012500
v -0.019410 0.029849 -0.012500
v -0.039446 0.048215 -0.012500
v 0.038612 0.048215 -0.012500
v 0.038612 0.033605 -0.012500
v 0.012871 0.029849 -0.012500
v 0.002435 -0.049183 -0.012500
v -0.019410 0.013987 -0.012500
v -0.022053 -0.049183 -0.012500
v -0.039446 0.013987 0.012500
v -0.039446 0.048215 0.012500
v -0.019410 0.029849 0.012500
v 0.038612 0.048215 0.012500
v 0.038612 0.033605 0.012500
v 0.012871 0.029849 0.012500
v 0.002435 -0.049183 0.012500
v -0.019410 0.013987 0.012500
v -0.022053 -0.049183 0.012500
v 0.038900 0.048504 0.012467
v -0.039446 0.048215 0.012500
v -0.039734 0.048504 0.012467
v -0.039995 0.048764 0.012370
v -0.040201 0.048971 0.012220
v 0.039161 0.048764 0.012370
v 0.039500 0.049103 0.012031
v -0.040334 0.049103 0.012031
v 0.039545 0.049149 0.011821
v -0.040380 0.049149 0.011821
v 0.039545 0.049149 -0.011821
v -0.040380 0.049149 -0.011821
v 0.039500 0.049103 -0.012031
v -0.040334 0.049103 -0.012031
v -0.040201 0.048971 -0.012220
v -0.039995 0.048764 -0.012370
v 0.039367 0.048971 -0.012220
v 0.038900 0.048504 -0.012467
v -0.039734 0.048504 -0.012467
v -0.039446 0.048215 -0.012500
v 0.038900 0.033545 0.012467
v 0.038612 0.048215 0.012500
v 0.039161 0.033491 0.012370
v 0.039367 0.033448 0.012220
v 0.039367 0.048971 0.012220
v 0.039500 0.033420 0.012031
v 0.039545 0.033410 0.011821
v 0.039545 0.033410 -0.011821
v 0.039500 0.033420 -0.012031
v 0.039161 0.048764 -0.012370
v 0.039367 0.033448 -0.012220
v 0.039161 0.033491 -0.012370
v 0.038612 0.048215 -0.012500
v 0.038900 0.033545 -0.012467
v 0.002435 -0.049183 0.012500
v 0.038612 0.033605 0.012500
v 0.002624 -0.049472 0.012467
v 0.002794 -0.049732 0.012370
v 0.002930 -0.049938 0.012220
v 0.003016 -0.050071 0.012031
v 0.003046 -0.050117 -0.011821
v 0.003016 -0.050071 -0.012031
v 0.002930 -0.049938 -0.012220
v 0.002794 -0.049732 -0.012370
v 0.002624 -0.049472 -0.012467
v 0.002435 -0.049183 -0.012500
v 0.038612 0.033605 -0.012500
v -0.022053 -0.049183 0.012500
v -0.022496 -0.049472 0.012467
v -0.022896 -0.049732 0.012370
v -0.023213 -0.049938 0.012220
v 0.003046 -0.050117 0.011821
v -0.023417 -0.050071 0.012031
v -0.023487 -0.050117 -0.011821
v -0.023417 -0.050071 -0.012031
v -0.023213 -0.049938 -0.012220
v -0.022896 -0.049732 -0.012370
v -0.022496 -0.049472 -0.012467
v -0.022053 -0.049183 -0.012500
v 0.012428 0.029560 0.012467
v 0.012028 0.029300 0.012370
v 0.011711 0.029093 0.012220
v 0.011508 0.028961 0.012031
v 0.011437 0.028915 0.011821
v -0.023487 -0.050117 0.011821
v 0.011437 0.028915 -0.011821
v 0.011508 0.028961 -0.012031
v 0.011711 0.029093 -0.012220
v 0.012028 0.029300 -0.012370
v 0.012428 0.029560 -0.012467
v -0.019410 0.029849 0.012500
v 0.012871 0.029849 0.012500
v -0.019121 0.029560 0.012467
v -0.018861 0.029300 0.012370
v -0.018654 0.029093 0.012220
v -0.018522 0.028961 0.012031
v -0.018476 0.028915 -0.011821
v -0.018522 0.028961 -0.012031
v -0.018654 0.029093 -0.012220
v -0.018861 0.029300 -0.012370
v -0.019121 0.029560 -0.012467
v -0.019410 0.029849 -0.012500
v 0.012871 0.029849 -0.012500
v -0.019410 0.013987 0.012500
v -0.019121 0.013698 0.012467
v -0.018861 0.013438 0.012370
v -0.018654 0.013231 0.012220
v -0.018476 0.028915 0.011821
v -0.018522 0.013099 0.012031
v -0.018476 0.013053 -0.011821
v -0.018522 0.013099 -0.012031
v -0.018654 0.013231 -0.012220
v -0.018861 0.013438 -0.012370
v -0.019121 0.013698 -0.012467
v -0.019410 0.013987 -0.012500
v -0.039734 0.013698 0.012467
v -0.039995 0.013438 0.012370
v -0.040201 0.013231 0.012220
v -0.040334 0.013099 0.012031
v -0.018476 0.013053 0.011821
v -0.040380 0.013053 -0.011821
v -0.040334 0.013099 -0.012031
v -0.040201 0.013231 -0.012220
v -0.039995 0.013438 -0.012370
v -0.039734 0.013698 -0.012467
v -0.039446 0.013987 0.012500
v -0.040380 0.013053 0.011821
v -0.039446 0.013987 -0.012500
f 1 2 3
f 2 4 3
f 2 5 4
f 2 6 5
f 6 7 5
f 1 8 2
f 9 7 6
f 10 11 12
f 12 11 13
f 12 13 14
f 12 14 15
f 15 14 16
f 10 12 17
f 18 15 16
f 19 20 21
f 22 21 23
f 24 23 25
f 26 24 25
f 27 26 28
f 29 28 30
f 31 30 32
f 33 32 34
f 35 33 34
f 36 35 37
f 38 37 39
f 40 41 19
f 42 19 22
f 43 22 24
f 44 24 45
f 46 45 27
f 47 27 29
f 31 47 29
f 33 48 31
f 49 50 33
f 36 51 49
f 38 52 36
f 40 53 54
f 42 55 40
f 43 56 42
f 44 57 43
f 46 58 44
f 59 46 47
f 60 47 48
f 61 48 50
f 62 50 51
f 63 51 52
f 64 52 65
f 55 66 53
f 56 67 55
f 57 68 56
f 58 69 57
f 70 71 58
f 72 70 59
f 73 59 60
f 74 60 61
f 75 61 62
f 76 62 63
f 77 63 64
f 78 66 67
f 79 67 68
f 80 68 69
f 81 69 71
f 82 71 83
f 84 83 72
f 73 84 72
f 74 85 73
f 75 86 74
f 76 87 75
f 77 88 76
f 78 89 90
f 79 91 78
f 80 92 79
f 81 93 80
f 82 94 81
f 95 82 84
f 96 84 85
f 97 85 86
f 98 86 87
f 99 87 88
f 100 88 101
f 91 102 89
f 92 103 91
f 93 104 92
f 94 105 93
f 106 107 94
f 108 106 95
f 109 95 96
f 110 96 97
f 111 97 98
f 112 98 99
f 113 99 100
f 103 114 102
f 115 103 104
f 116 104 105
f 117 105 107
f 118 117 107
f 119 118 108
f 120 108 109
f 121 109 110
f 122 110 111
f 112 122 111
f 123 112 113
f 21 114 124
f 115 21 124
f 116 23 115
f 26 116 117
f 125 26 117
f 30 125 119
f 32 119 120
f 121 32 120
f 35 121 122
f 37 122 126
f 123 37 126
f 19 41 20
f 22 19 21
f 24 22 23
f 26 45 24
f 27 45 26
f 29 27 28
f 31 29 30
f 33 31 32
f 35 49 33
f 36 49 35
f 38 36 37
f 40 54 41
f 42 40 19
f 43 42 22
f 44 43 24
f 46 44 45
f 47 46 27
f 31 48 47
f 33 50 48
f 49 51 50
f 36 52 51
f 38 65 52
f 40 55 53
f 42 56 55
f 43 57 56
f 44 58 57
f 46 70 58
f 59 70 46
f 60 59 47
f 61 60 48
f 62 61 50
f 63 62 51
f 64 63 52
f 55 67 66
f 56 68 67
f 57 69 68
f 58 71 69
f 70 83 71
f 72 83 70
f 73 72 59
f 74 73 60
f 75 74 61
f 76 75 62
f 77 76 63
f 78 90 66
f 79 78 67
f 80 79 68
f 81 80 69
f 82 81 71
f 84 82 83
f 73 85 84
f 74 86 85
f 75 87 86
f 76 88 87
f 77 101 88
f 78 91 89
f 79 92 91
f 80 93 92
f 81 94 93
f 82 106 94
f 95 106 82
f 96 95 84
f 97 96 85
f 98 97 86
f 99 98 87
f 100 99 88
f 91 103 102
f 92 104 103
f 93 105 104
f 94 107 105
f 106 118 107
f 108 118 106
f 109 108 95
f 110 109 96
f 111 110 97
f 112 111 98
f 113 112 99
f 103 124 114
f 115 124 103
f 116 115 104
f 117 116 105
f 118 125 117
f 119 125 118
f 120 119 108
f 121 120 109
f 122 121 110
f 112 126 122
f 123 126 112
f 21 20 114
f 115 23 21
f 116 25 23
f 26 25 116
f 125 28 26
f 30 28 125
f 32 30 119
f 121 34 32
f 35 34 121
f 37 35 122
f 123 39 37
f 127 128 129
f 128 130 129
f 128 131 130
f 128 132 131
f 132 133 131
f 127 134 128
f 135 133 132
f 136 137 138
f 138 137 139
f 138 139 140
f 138 140 141
f 141 140 142
f 136 138 143
f 144 141 142
f 145 146 147
f 148 145 147
f 149 148 150
f 151 150 152
f 153 152 154
f 155 154 156
f 157 156 158
f 159 158 160
f 161 160 162
f 163 162 164
f 165 163 164
f 166 167 145
f 168 145 169
f 170 169 149
f 171 149 151
f 172 151 153
f 173 153 155
f 157 173 155
f 159 174 157
f 161 175 159
f 163 176 161
f 177 178 163
f 166 179 180
f 168 181 166
f 170 182 168
f 171 183 170
f 172 184 171
f 185 172 173
f 186 173 174
f 187 174 175
f 188 175 176
f 189 176 178
f 190 178 191
f 181 192 179
f 182 193 181
f 183 194 182
f 184 195 183
f 196 197 184
f 198 196 185
f 199 185 186
f 200 186 187
f 201 187 188
f 202 188 189
f 203 189 190
f 204 192 193
f 205 193 194
f 206 194 195
f 207 195 197
f 208 197 209
f 210 209 198
f 199 210 198
f 200 211 199
f 201 212 200
f 202 213 201
f 203 214 202
f 204 215 216
f 205 217 204
f 206 218 205
f 207 219 206
f 208 220 207
f 221 208 210
f 222 210 211
f 223 211 212
f 224 212 213
f 225 213 214
f 226 214 227
f 217 228 215
f 218 229 217
f 219 230 218
f 220 231 219
f 232 233 220
f 234 232 221
f 235 221 222
f 236 222 223
f 237 223 224
f 238 224 225
f 239 225 226
f 229 240 228
f 241 229 230
f 242 230 231
f 243 231 233
f 244 233 245
f 246 245 234
f 247 234 235
f 248 235 236
f 249 236 237
f 250 237 238
f 251 238 239
f 252 146 240
f 148 252 241
f 150 241 242
f 152 242 243
f 154 243 244
f 156 244 246
f 158 246 247
f 160 247 248
f 162 248 249
f 164 249 250
f 165 250 251
f 145 167 146
f 148 169 145
f 149 169 148
f 151 149 150
f 153 151 152
f 155 153 154
f 157 155 156
f 159 157 158
f 161 159 160
f 163 161 162
f 165 177 163
f 166 180 167
f 168 166 145
f 170 168 169
f 171 170 149
f 172 171 151
f 173 172 153
f 157 174 173
f 159 175 174
f 161 176 175
f 163 178 176
f 177 191 178
f 166 181 179
f 168 182 181
f 170 183 182
f 171 184 183
f 172 196 184
f 185 196 172
f 186 185 173
f 187 186 174
f 188 187 175
f 189 188 176
f 190 189 178
f 181 193 192
f 182 194 193
f 183 195 194
f 184 197 195
f 196 209 197
f 198 209 196
f 199 198 185
f 200 199 186
f 201 200 187
f 202 201 188
f 203 202 189
f 204 216 192
f 205 204 193
f 206 205 194
f 207 206 195
f 208 207 197
f 210 208 209
f 199 211 210
f 200 212 211
f 201 213 212
f 202 214 213
f 203 227 214
f 204 217 215
f 205 218 217
f 206 219 218
f 207 220 219
f 208 232 220
f 221 232 208
f 222 221 210
f 223 222 211
f 224 223 212
f 225 224 213
f 226 225 214
f 217 229 228
f 218 230 229
f 219 231 230
f 220 233 231
f 232 245 233
f 234 245 232
f 235 234 221
f 236 235 222
f 237 236 223
f 238 237 224
f 239 238 225
f 229 252 240
f 241 252 229
f 242 241 230
f 243 242 231
f 244 243 233
f 246 244 245
f 247 246 234
f 248 247 235
f 249 248 236
f 250 249 237
f 251 250 238
f 252 147 146
f 148 147 252
f 150 148 241
f 152 150 242
f 154 152 243
f 156 154 244
f 158 156 246
f 160 158 247
f 162 160 248
f 164 162 249
f 165 164 250
f 253 254 255
f 254 256 255
f 254 257 256
f 254 258 257
f 258 259 257
f 253 260 254
f 261 259 258
f 262 263 264
f 264 263 265
f 264 265 266
f 264 266 267
f 267 266 268
f 262 264 269
f 270 267 268
f 271 272 273
f 274 271 273
f 275 276 274
f 277 275 278
f 279 278 280
f 281 280 282
f 283 282 284
f 285 283 284
f 286 287 285
f 288 286 289
f 290 288 289
f 291 292 271
f 293 271 276
f 294 276 295
f 296 295 277
f 297 277 279
f 298 279 281
f 283 298 281
f 287 299 283
f 300 301 287
f 288 302 300
f 303 304 288
f 291 305 306
f 293 307 291
f 294 308 293
f 296 309 294
f 297 310 296
f 311 297 298
f 312 298 299
f 313 299 301
f 314 301 302
f 315 302 304
f 316 304 317
f 307 318 305
f 308 319 307
f 309 320 308
f 310 321 309
f 322 323 310
f 324 322 311
f 325 311 312
f 326 312 313
f 327 313 314
f 328 314 315
f 329 315 316
f 330 318 319
f 331 319 320
f 332 320 321
f 333 321 323
f 334 323 335
f 336 335 324
f 325 336 324
f 326 337 325
f 327 338 326
f 328 339 327
f 329 340 328
f 330 341 342
f 331 343 330
f 332 344 331
f 333 345 332
f 334 346 333
f 347 334 336
f 348 336 337
f 349 337 338
f 350 338 339
f 351 339 340
f 352 340 353
f 343 354 341
f 344 355 343
f 345 356 344
f 346 357 345
f 358 359 346
f 360 358 347
f 361 347 348
f 362 348 349
f 363 349 350
f 364 350 351
f 365 351 352
f 366 354 355
f 367 355 356
f 368 356 357
f 369 357 359
f 370 369 359
f 371 370 360
f 372 360 361
f 373 361 362
f 374 362 363
f 375 363 364
f 365 375 364
f 273 376 366
f 274 366 367
f 275 367 368
f 278 368 369
f 280 369 377
f 282 377 371
f 284 371 372
f 285 372 373
f 374 285 373
f 289 374 375
f 290 375 378
f 271 292 272
f 274 276 271
f 275 295 276
f 277 295 275
f 279 277 278
f 281 279 280
f 283 281 282
f 285 287 283
f 286 300 287
f 288 300 286
f 290 303 288
f 291 306 292
f 293 291 271
f 294 293 276
f 296 294 295
f 297 296 277
f 298 297 279
f 283 299 298
f 287 301 299
f 300 302 301
f 288 304 302
f 303 317 304
f 291 307 305
f 293 308 307
f 294 309 308
f 296 310 309
f 297 322 310
f 311 322 297
f 312 311 298
f 313 312 299
f 314 313 301
f 315 314 302
f 316 315 304
f 307 319 318
f 308 320 319
f 309 321 320
f 310 323 321
f 322 335 323
f 324 335 322
f 325 324 311
f 326 325 312
f 327 326 313
f 328 327 314
f 329 328 315
f 330 342 318
f 331 330 319
f 332 331 320
f 333 332 321
f 334 333 323
f 336 334 335
f 325 337 336
f 326 338 337
f 327 339 338
f 328 340 339
f 329 353 340
f 330 343 341
f 331 344 343
f 332 345 344
f 333 346 345
f 334 358 346
f 347 358 334
f 348 347 336
f 349 348 337
f 350 349 338
f 351 350 339
f 352 351 340
f 343 355 354
f 344 356 355
f 345 357 356
f 346 359 357
f 358 370 359
f 360 370 358
f 361 360 347
f 362 361 348
f 363 362 349
f 364 363 350
f 365 364 351
f 366 376 354
f 367 366 355
f 368 367 356
f 369 368 357
f 370 377 369
f 371 377 370
f 372 371 360
f 373 372 361
f 374 373 362
f 375 374 363
f 365 378 375
f 273 272 376
f 274 273 366
f 275 274 367
f 278 275 368
f 280 278 369
f 282 280 377
f 284 282 371
f 285 284 372
f 374 286 285
f 289 286 374
f 290 289 375
