# generated by normalize_glyphs.py from glyph_a.obj
# x=width y=cap-height(0.103) z=thickness(0.025), metres, centred
v 0.043788 -0.031952 0.012500
v 0.044404 -0.033639 0.012500
v 0.047021 -0.031948 0.012500
v 0.047651 -0.033635 0.012500
v 0.044752 -0.034596 0.012500
v 0.048008 -0.034593 0.012500
v 0.049031 -0.033634 0.012328
v 0.049390 -0.034592 0.012328
v 0.048397 -0.031948 0.012328
v 0.023582 0.023417 0.012500
v 0.024138 0.021852 0.012500
v 0.026342 0.023417 0.012500
v 0.026923 0.021852 0.012500
v 0.027609 0.023417 0.012328
v 0.028196 0.021852 0.012328
v 0.049339 -0.047271 0.012500
v 0.050299 -0.049925 0.012500
v 0.052734 -0.047270 0.012500
v 0.053724 -0.049925 0.012500
v 0.050726 -0.051106 0.012328
v 0.054164 -0.051106 0.012328
v 0.055104 -0.050800 0.012194
v 0.055145 -0.049925 0.012328
v 0.054148 -0.047270 0.012328
v 0.016214 0.051500 0.011812
v 0.017282 0.051162 0.010939
v 0.016214 0.051500 0.010939
v 0.017282 0.051162 0.011812
v 0.014870 0.051500 0.011812
v 0.014870 0.051500 0.010939
v 0.014974 0.051162 0.012328
v 0.016214 0.051500 0.011812
v 0.014870 0.051500 0.011812
v 0.016336 0.051162 0.012328
v 0.017135 0.050898 0.012194
v 0.017282 0.051162 0.011812
v 0.026693 0.025874 0.012328
v 0.018676 0.048289 0.011812
v 0.018350 0.048289 0.012328
v 0.027107 0.025874 0.011812
v 0.049491 -0.033634 0.011812
v 0.049851 -0.034591 0.011812
v 0.049491 -0.033634 0.010939
v 0.049851 -0.034591 0.010939
v 0.048856 -0.031947 0.010939
v 0.048856 -0.031947 0.011812
v 0.049491 -0.033634 0.011812
v 0.048856 -0.031947 0.011812
v 0.049851 -0.034591 0.011812
v 0.000000 0.023294 0.012399
v 0.000000 0.022692 0.011590
v 0.000820 0.021852 0.012273
v 0.000531 0.021852 0.011590
v 0.028031 0.023417 0.011812
v 0.028620 0.021852 0.011812
v 0.028620 0.021852 0.010939
v 0.028031 0.023417 0.010939
v 0.028031 0.023417 0.011812
v 0.028620 0.021852 0.011812
v 0.022029 -0.047277 0.010939
v 0.022811 -0.049927 0.011812
v 0.022029 -0.047277 0.011812
v 0.022811 -0.049927 0.010939
v 0.023498 -0.051107 0.011812
v 0.023498 -0.051107 0.010939
v 0.022811 -0.049927 0.011812
v 0.023670 -0.050801 0.012194
v 0.023148 -0.049927 0.012328
v 0.023498 -0.051107 0.011812
v 0.022364 -0.047277 0.012328
v 0.022029 -0.047277 0.011812
v 0.050869 -0.051500 0.010939
v 0.054311 -0.051500 0.010939
v 0.050869 -0.051500 0.011812
v 0.054311 -0.051500 0.011812
v 0.055588 -0.051106 0.011812
v 0.055588 -0.051106 0.010939
v 0.054311 -0.051500 0.011812
v 0.055588 -0.051106 0.011812
v 0.050869 -0.051500 0.011812
v 0.055618 -0.049925 0.011812
v 0.055618 -0.049925 0.010939
v 0.054620 -0.047270 0.011812
v 0.054620 -0.047270 0.010939
v 0.055618 -0.049925 0.011812
v 0.054620 -0.047270 0.011812
v 0.022799 0.025874 0.012500
v 0.017372 0.048289 0.012500
v 0.015863 0.048289 0.012500
v 0.025450 0.025874 0.012500
v 0.016303 -0.033661 0.012500
v 0.017379 -0.031972 0.012500
v 0.015825 -0.031972 0.012500
v 0.017896 -0.033661 0.012500
v 0.016505 -0.034372 0.012328
v 0.018224 -0.034615 0.012390
v 0.017934 -0.034856 0.011812
v 0.016572 -0.034609 0.011812
v 0.016572 -0.034609 0.010939
v 0.017934 -0.034856 0.010939
v 0.017934 -0.034856 0.011812
v 0.016572 -0.034609 0.011812
v 0.011204 -0.011857 0.012354
v 0.010844 -0.011640 0.011590
v 0.010197 -0.012109 0.012273
v 0.010148 -0.011937 0.011590
v 0.017282 0.051162 0.000000
v 0.016214 0.051500 0.000000
v 0.014870 0.051500 0.000000
v 0.028620 0.021852 0.000000
v 0.028031 0.023417 0.000000
v 0.049851 -0.034591 0.000000
v 0.049491 -0.033634 0.000000
v 0.048856 -0.031947 0.000000
v 0.055588 -0.051106 0.000000
v 0.055618 -0.049925 0.000000
v 0.054620 -0.047270 0.000000
v 0.050869 -0.051500 0.000000
v 0.054311 -0.051500 0.000000
v 0.022029 -0.047277 0.000000
v 0.022811 -0.049927 0.000000
v 0.023498 -0.051107 0.000000
v 0.016572 -0.034609 0.000000
v 0.017934 -0.034856 0.000000
v 0.024630 -0.051500 0.000000
v 0.024630 -0.051500 0.010939
v 0.023498 -0.051107 0.010939
v 0.023498 -0.051107 0.000000
v 0.027301 -0.051500 0.010939
v 0.027301 -0.051500 0.000000
v 0.024630 -0.051500 0.011812
v 0.023498 -0.051107 0.011812
v 0.027301 -0.051500 0.011812
v 0.027179 -0.051107 0.012328
v 0.024630 -0.051500 0.011812
v 0.027301 -0.051500 0.011812
v 0.024513 -0.051107 0.012328
v 0.023370 -0.047276 0.012500
v 0.024161 -0.049927 0.012500
v 0.026814 -0.049927 0.012500
v 0.025994 -0.047275 0.012500
v 0.018758 -0.031971 0.012500
v 0.019291 -0.033660 0.012500
v 0.019588 -0.034618 0.012500
v 0.021767 -0.033656 0.012500
v 0.022073 -0.034614 0.012500
v 0.021220 -0.031968 0.012500
v 0.001281 0.023417 0.012500
v 0.001687 0.021852 0.012500
v 0.003270 0.023417 0.012500
v 0.003702 0.021852 0.012500
v 0.000000 0.025874 0.012500
v 0.000768 0.048289 0.012500
v 0.000000 0.048289 0.012500
v 0.001115 0.025874 0.012500
v 0.000719 0.051500 0.011812
v 0.000719 0.051500 0.010939
v 0.000000 0.051500 0.011812
v 0.000000 0.051500 0.010939
v 0.000000 0.051162 0.012328
v 0.000719 0.051500 0.011812
v 0.000000 0.051500 0.011812
v 0.000724 0.051162 0.012328
v 0.001322 0.051162 0.012328
v 0.001299 0.051500 0.011812
v 0.001299 0.051500 0.011812
v 0.001299 0.051500 0.010939
v 0.000719 0.051500 0.000000
v 0.000000 0.051500 0.000000
v 0.001299 0.051500 0.000000
v 0.000000 0.050146 0.012500
v 0.000740 0.050146 0.012500
v 0.001389 0.050146 0.012500
v 0.001512 0.048289 0.012500
v 0.015289 0.050146 0.012500
v 0.016702 0.050146 0.012500
v 0.017659 0.050146 0.012328
v 0.017977 0.050146 0.011812
v 0.017977 0.050146 0.010939
v 0.017977 0.050146 0.011812
v 0.017977 0.050146 0.011812
v 0.018676 0.048289 0.010939
v 0.017977 0.050146 0.010939
v 0.018676 0.048289 0.011812
v 0.017977 0.050146 0.000000
v 0.017977 0.050146 0.000000
v 0.018676 0.048289 0.000000
v 0.019235 -0.037809 0.010939
v 0.019235 -0.037809 0.000000
v 0.019235 -0.037809 0.011812
v 0.019235 -0.037809 0.011812
v 0.019562 -0.037809 0.012328
v 0.020544 -0.037808 0.012500
v 0.023064 -0.037805 0.012500
v 0.045909 -0.037790 0.012500
v 0.049199 -0.037787 0.012500
v 0.050589 -0.037786 0.012328
v 0.051052 -0.037786 0.011812
v 0.051052 -0.037786 0.010939
v 0.051052 -0.037786 0.011812
v 0.051052 -0.037786 0.000000
v 0.018582 -0.035597 0.000000
v 0.018582 -0.035597 0.010939
v 0.018582 -0.035597 0.011812
v 0.018582 -0.035597 0.011812
v 0.018908 -0.035596 0.012328
v 0.019884 -0.035596 0.012500
v 0.022379 -0.035592 0.012500
v 0.045107 -0.035575 0.012500
v 0.048373 -0.035571 0.012500
v 0.049758 -0.035570 0.012328
v 0.050219 -0.035570 0.011812
v 0.050219 -0.035570 0.010939
v 0.050219 -0.035570 0.011812
v 0.050219 -0.035570 0.000000
v 0.041282 -0.011811 0.010939
v 0.041282 -0.011811 0.000000
v 0.040882 -0.010748 0.010939
v 0.040882 -0.010748 0.000000
v 0.040882 -0.010748 0.011812
v 0.041282 -0.011811 0.011812
v 0.040882 -0.010748 0.011812
v 0.040437 -0.010748 0.012328
v 0.040837 -0.011811 0.012328
v 0.041282 -0.011811 0.011812
v 0.036439 -0.011811 0.012500
v 0.039103 -0.010748 0.012500
v 0.036051 -0.010748 0.012500
v 0.039500 -0.011811 0.012500
v 0.014690 -0.011811 0.012500
v 0.014344 -0.010748 0.012500
v 0.012062 -0.010748 0.012500
v 0.011135 -0.010748 0.012273
v 0.012400 -0.011812 0.012500
v 0.010825 -0.010748 0.011590
v 0.010343 -0.012625 0.012500
v 0.011458 -0.012625 0.012500
v 0.010724 -0.013969 0.012500
v 0.011869 -0.013969 0.012500
v 0.012657 -0.012624 0.012500
v 0.013081 -0.013968 0.012500
v 0.014954 -0.012624 0.012500
v 0.015390 -0.013968 0.012500
v 0.036736 -0.012624 0.012500
v 0.037226 -0.013967 0.012500
v 0.039803 -0.012624 0.012500
v 0.040305 -0.013966 0.012500
v 0.041142 -0.012624 0.012328
v 0.041646 -0.013966 0.012328
v 0.041588 -0.012624 0.011812
v 0.041588 -0.012624 0.010939
v 0.041588 -0.012624 0.011812
v 0.042093 -0.013966 0.011812
v 0.042093 -0.013966 0.010939
v 0.042093 -0.013966 0.011812
v 0.041588 -0.012624 0.000000
v 0.042093 -0.013966 0.000000
v 0.010844 -0.011640 0.011590
v 0.010844 -0.011640 0.000000
v 0.010148 -0.011937 0.011590
v 0.010148 -0.011937 0.000000
v 0.010825 -0.010748 0.011590
v 0.010825 -0.010748 0.000000
v 0.000531 0.021852 0.011590
v 0.000531 0.021852 0.000000
v 0.000000 0.022692 0.011590
v 0.000000 0.022692 0.000000
v -0.047651 -0.033635 0.012500
v -0.049031 -0.033634 0.012328
v -0.048008 -0.034593 0.012500
v -0.049390 -0.034592 0.012328
v -0.044773 -0.034596 0.012500
v -0.044425 -0.033639 0.012500
v -0.047021 -0.031948 0.012500
v -0.043809 -0.031952 0.012500
v -0.048397 -0.031948 0.012328
v -0.028196 0.021852 0.012328
v -0.039103 -0.010748 0.012500
v -0.026923 0.021852 0.012500
v -0.040437 -0.010748 0.012328
v -0.036072 -0.010748 0.012500
v -0.024158 0.021852 0.012500
v -0.026342 0.023417 0.012500
v -0.023603 0.023417 0.012500
v -0.027609 0.023417 0.012328
v -0.053724 -0.049925 0.012500
v -0.055104 -0.050800 0.012194
v -0.054164 -0.051106 0.012328
v -0.055145 -0.049925 0.012328
v -0.050747 -0.051106 0.012328
v -0.050320 -0.049925 0.012500
v -0.052734 -0.047270 0.012500
v -0.049359 -0.047271 0.012500
v -0.054148 -0.047270 0.012328
v -0.014995 0.051162 0.012328
v -0.016214 0.051500 0.011812
v -0.016336 0.051162 0.012328
v -0.014890 0.051500 0.011812
v -0.016214 0.051500 0.011812
v -0.014890 0.051500 0.010939
v -0.016214 0.051500 0.010939
v -0.014890 0.051500 0.011812
v -0.017282 0.051162 0.011812
v -0.017282 0.051162 0.010939
v -0.017135 0.050898 0.012194
v -0.017282 0.051162 0.011812
v -0.018676 0.048289 0.011812
v -0.026693 0.025874 0.012328
v -0.018350 0.048289 0.012328
v -0.027107 0.025874 0.011812
v -0.027107 0.025874 0.011812
v -0.018676 0.048289 0.011812
v -0.018676 0.048289 0.010939
v -0.027107 0.025874 0.010939
v -0.049491 -0.033634 0.011812
v -0.048856 -0.031947 0.011812
v -0.049491 -0.033634 0.011812
v -0.048856 -0.031947 0.010939
v -0.049491 -0.033634 0.010939
v -0.048856 -0.031947 0.011812
v -0.049851 -0.034591 0.011812
v -0.049851 -0.034591 0.010939
v -0.049851 -0.034591 0.011812
v -0.000820 0.021852 0.012273
v -0.011135 -0.010748 0.012273
v -0.010825 -0.010748 0.011590
v -0.000531 0.021852 0.011590
v -0.010825 -0.010748 0.011590
v -0.010825 -0.010748 0.000000
v -0.000531 0.021852 0.011590
v -0.000531 0.021852 0.000000
v 0.000000 0.022692 0.000000
v 0.000000 0.022692 0.011590
v -0.028031 0.023417 0.011812
v -0.028620 0.021852 0.011812
v -0.028620 0.021852 0.011812
v -0.028031 0.023417 0.011812
v -0.028620 0.021852 0.010939
v -0.028031 0.023417 0.010939
v -0.040882 -0.010748 0.011812
v -0.040882 -0.010748 0.010939
v -0.040882 -0.010748 0.011812
v -0.023670 -0.050801 0.012194
v -0.022811 -0.049927 0.011812
v -0.023148 -0.049927 0.012328
v -0.023498 -0.051107 0.011812
v -0.022811 -0.049927 0.011812
v -0.023498 -0.051107 0.011812
v -0.022811 -0.049927 0.010939
v -0.023498 -0.051107 0.010939
v -0.022029 -0.047277 0.010939
v -0.022029 -0.047277 0.011812
v -0.022029 -0.047277 0.011812
v -0.022364 -0.047277 0.012328
v -0.054311 -0.051500 0.011812
v -0.055588 -0.051106 0.011812
v -0.054311 -0.051500 0.011812
v -0.055588 -0.051106 0.011812
v -0.054311 -0.051500 0.010939
v -0.055588 -0.051106 0.010939
v -0.050889 -0.051500 0.011812
v -0.050889 -0.051500 0.010939
v -0.050889 -0.051500 0.011812
v -0.055618 -0.049925 0.011812
v -0.054620 -0.047270 0.011812
v -0.054620 -0.047270 0.010939
v -0.055618 -0.049925 0.010939
v -0.054620 -0.047270 0.011812
v -0.055618 -0.049925 0.011812
v -0.055588 -0.051106 0.010939
v -0.055588 -0.051106 0.011812
v -0.025450 0.025874 0.012500
v -0.017371 0.048289 0.012500
v -0.022819 0.025874 0.012500
v -0.015884 0.048289 0.012500
v -0.016505 -0.034372 0.012328
v -0.016303 -0.033661 0.012500
v -0.015825 -0.031972 0.012500
v -0.017379 -0.031972 0.012500
v -0.017896 -0.033661 0.012500
v -0.018224 -0.034615 0.012390
v -0.016572 -0.034609 0.011812
v -0.017934 -0.034856 0.011812
v -0.016572 -0.034609 0.011812
v -0.017934 -0.034856 0.010939
v -0.016572 -0.034609 0.010939
v -0.017934 -0.034856 0.011812
v -0.010148 -0.011937 0.011590
v -0.010197 -0.012109 0.012273
v -0.010148 -0.011937 0.011590
v -0.010148 -0.011937 0.000000
v -0.010844 -0.011640 0.011590
v -0.010844 -0.011640 0.000000
v -0.010844 -0.011640 0.011590
v -0.011204 -0.011857 0.012354
v -0.016214 0.051500 0.000000
v -0.014890 0.051500 0.000000
v -0.017282 0.051162 0.000000
v -0.027107 0.025874 0.000000
v -0.018676 0.048289 0.000000
v -0.028031 0.023417 0.000000
v -0.028620 0.021852 0.000000
v -0.040882 -0.010748 0.000000
v -0.049491 -0.033634 0.000000
v -0.048856 -0.031947 0.000000
v -0.049851 -0.034591 0.000000
v -0.055618 -0.049925 0.000000
v -0.054620 -0.047270 0.000000
v -0.055588 -0.051106 0.000000
v -0.054311 -0.051500 0.000000
v -0.055588 -0.051106 0.000000
v -0.050889 -0.051500 0.000000
v -0.022811 -0.049927 0.000000
v -0.023498 -0.051107 0.000000
v -0.022029 -0.047277 0.000000
v -0.017934 -0.034856 0.000000
v -0.016572 -0.034609 0.000000
v -0.027521 -0.051500 0.010939
v -0.027521 -0.051500 0.000000
v -0.024630 -0.051500 0.010939
v -0.024630 -0.051500 0.000000
v -0.027400 -0.051107 0.012328
v -0.024630 -0.051500 0.011812
v -0.024513 -0.051107 0.012328
v -0.027521 -0.051500 0.011812
v -0.027521 -0.051500 0.011812
v -0.024630 -0.051500 0.011812
v -0.027035 -0.049927 0.012500
v -0.024161 -0.049927 0.012500
v -0.023370 -0.047276 0.012500
v -0.026214 -0.047275 0.012500
v -0.022294 -0.034614 0.012500
v -0.019588 -0.034618 0.012500
v -0.021987 -0.033656 0.012500
v -0.019291 -0.033660 0.012500
v -0.018758 -0.031971 0.012500
v -0.021440 -0.031968 0.012500
v -0.003923 0.021852 0.012500
v -0.012062 -0.010748 0.012500
v -0.001687 0.021852 0.012500
v -0.014564 -0.010748 0.012500
v -0.001281 0.023417 0.012500
v -0.003491 0.023417 0.012500
v -0.001733 0.048289 0.012500
v -0.001115 0.025874 0.012500
v -0.000768 0.048289 0.012500
v -0.003219 0.025874 0.012500
v -0.000724 0.051162 0.012328
v -0.001520 0.051500 0.011812
v -0.001542 0.051162 0.012328
v -0.000719 0.051500 0.011812
v -0.000719 0.051500 0.010939
v -0.000719 0.051500 0.011812
v -0.001520 0.051500 0.011812
v -0.001520 0.051500 0.010939
v -0.001520 0.051500 0.000000
v -0.000719 0.051500 0.000000
v -0.000740 0.050146 0.012500
v -0.001610 0.050146 0.012500
v -0.016702 0.050146 0.012500
v -0.017659 0.050146 0.012328
v -0.015309 0.050146 0.012500
v -0.017977 0.050146 0.011812
v -0.017977 0.050146 0.011812
v -0.017977 0.050146 0.010939
v -0.017977 0.050146 0.000000
v -0.019235 -0.037809 0.010939
v -0.019235 -0.037809 0.000000
v -0.019235 -0.037809 0.011812
v -0.019562 -0.037809 0.012328
v -0.019235 -0.037809 0.011812
v -0.023284 -0.037805 0.012500
v -0.020544 -0.037808 0.012500
v -0.045929 -0.037790 0.012500
v -0.050589 -0.037786 0.012328
v -0.049199 -0.037787 0.012500
v -0.051052 -0.037786 0.011812
v -0.051052 -0.037786 0.011812
v -0.051052 -0.037786 0.010939
v -0.051052 -0.037786 0.000000
v -0.018582 -0.035597 0.000000
v -0.018582 -0.035597 0.010939
v -0.018582 -0.035597 0.011812
v -0.018908 -0.035596 0.012328
v -0.018582 -0.035597 0.011812
v -0.019884 -0.035596 0.012500
v -0.022600 -0.035592 0.012500
v -0.045128 -0.035575 0.012500
v -0.048373 -0.035571 0.012500
v -0.049758 -0.035570 0.012328
v -0.050219 -0.035570 0.011812
v -0.050219 -0.035570 0.011812
v -0.050219 -0.035570 0.010939
v -0.050219 -0.035570 0.000000
v -0.041282 -0.011811 0.010939
v -0.041282 -0.011811 0.000000
v -0.041282 -0.011811 0.011812
v -0.041282 -0.011811 0.011812
v -0.040837 -0.011811 0.012328
v -0.039500 -0.011811 0.012500
v -0.036460 -0.011811 0.012500
v -0.014911 -0.011811 0.012500
v -0.012400 -0.011812 0.012500
v -0.010343 -0.012625 0.012500
v -0.010724 -0.013969 0.012500
v -0.011458 -0.012625 0.012500
v -0.011869 -0.013969 0.012500
v -0.012657 -0.012624 0.012500
v -0.015175 -0.012624 0.012500
v -0.013081 -0.013968 0.012500
v -0.015610 -0.013968 0.012500
v -0.036757 -0.012624 0.012500
v -0.037246 -0.013967 0.012500
v -0.039803 -0.012624 0.012500
v -0.041142 -0.012624 0.012328
v -0.040305 -0.013966 0.012500
v -0.041646 -0.013966 0.012328
v -0.042093 -0.013966 0.011812
v -0.041588 -0.012624 0.011812
v -0.041588 -0.012624 0.010939
v -0.041588 -0.012624 0.011812
v -0.042093 -0.013966 0.010939
v -0.042093 -0.013966 0.011812
v -0.041588 -0.012624 0.000000
v -0.042093 -0.013966 0.000000
v -0.027528 0.024754 0.010939
v -0.027528 0.024754 0.000000
v -0.027528 0.024754 0.011812
v -0.027528 0.024754 0.011812
v -0.027110 0.024754 0.012328
v -0.025854 0.024754 0.012500
v -0.023166 0.024754 0.012500
v -0.003293 0.024754 0.012500
v -0.001133 0.024754 0.012500
v 0.000000 0.024754 0.012500
v 0.001133 0.024754 0.012500
v 0.003073 0.024754 0.012500
v 0.023145 0.024754 0.012500
v 0.025854 0.024754 0.012500
v 0.027110 0.024754 0.012328
v 0.027528 0.024754 0.011812
v 0.027528 0.024754 0.010939
v 0.027528 0.024754 0.011812
v 0.027528 0.024754 0.000000
v 0.002998 0.025874 0.012500
v 0.027107 0.025874 0.011812
v 0.027107 0.025874 0.010939
v 0.027107 0.025874 0.000000
v 0.044404 -0.033639 -0.012500
v 0.047021 -0.031948 -0.012500
v 0.047651 -0.033635 -0.012500
v 0.043788 -0.031952 -0.012500
v 0.044752 -0.034596 -0.012500
v 0.048008 -0.034593 -0.012500
v 0.049390 -0.034592 -0.012328
v 0.049031 -0.033634 -0.012328
v 0.048397 -0.031948 -0.012328
v 0.024138 0.021852 -0.012500
v 0.026342 0.023417 -0.012500
v 0.026923 0.021852 -0.012500
v 0.023582 0.023417 -0.012500
v 0.036051 -0.010748 -0.012500
v 0.039103 -0.010748 -0.012500
v 0.028196 0.021852 -0.012328
v 0.040437 -0.010748 -0.012328
v 0.027609 0.023417 -0.012328
v 0.050299 -0.049925 -0.012500
v 0.052734 -0.047270 -0.012500
v 0.053724 -0.049925 -0.012500
v 0.049339 -0.047271 -0.012500
v 0.050726 -0.051106 -0.012328
v 0.054164 -0.051106 -0.012328
v 0.055104 -0.050800 -0.012194
v 0.055145 -0.049925 -0.012328
v 0.054148 -0.047270 -0.012328
v 0.017282 0.051162 -0.010939
v 0.016214 0.051500 -0.011812
v 0.016214 0.051500 -0.010939
v 0.017282 0.051162 -0.011812
v 0.014870 0.051500 -0.010939
v 0.014870 0.051500 -0.011812
v 0.016214 0.051500 -0.011812
v 0.014974 0.051162 -0.012328
v 0.014870 0.051500 -0.011812
v 0.016336 0.051162 -0.012328
v 0.017135 0.050898 -0.012194
v 0.017282 0.051162 -0.011812
v 0.049491 -0.033634 -0.010939
v 0.049851 -0.034591 -0.010939
v 0.049851 -0.034591 -0.011812
v 0.049491 -0.033634 -0.011812
v 0.048856 -0.031947 -0.010939
v 0.048856 -0.031947 -0.011812
v 0.049491 -0.033634 -0.011812
v 0.048856 -0.031947 -0.011812
v 0.049851 -0.034591 -0.011812
v 0.000000 0.022692 0.000000
v 0.000000 0.022692 -0.011590
v 0.000531 0.021852 0.000000
v 0.000531 0.021852 -0.011590
v 0.010825 -0.010748 0.000000
v 0.010825 -0.010748 -0.011590
v 0.010825 -0.010748 -0.011590
v 0.000531 0.021852 -0.011590
v 0.000820 0.021852 -0.012273
v 0.011135 -0.010748 -0.012273
v 0.000000 0.022692 -0.011590
v 0.000000 0.023294 -0.012399
v 0.028620 0.021852 -0.010939
v 0.040882 -0.010748 -0.010939
v 0.040882 -0.010748 -0.011812
v 0.028620 0.021852 -0.011812
v 0.028031 0.023417 -0.010939
v 0.028031 0.023417 -0.011812
v 0.028031 0.023417 -0.011812
v 0.028620 0.021852 -0.011812
v 0.040882 -0.010748 -0.011812
v 0.022029 -0.047277 -0.010939
v 0.022811 -0.049927 -0.011812
v 0.022811 -0.049927 -0.010939
v 0.022029 -0.047277 -0.011812
v 0.023498 -0.051107 -0.010939
v 0.023498 -0.051107 -0.011812
v 0.022811 -0.049927 -0.011812
v 0.023670 -0.050801 -0.012194
v 0.023498 -0.051107 -0.011812
v 0.023148 -0.049927 -0.012328
v 0.022029 -0.047277 -0.011812
v 0.022364 -0.047277 -0.012328
v 0.054311 -0.051500 -0.010939
v 0.050869 -0.051500 -0.010939
v 0.050869 -0.051500 -0.011812
v 0.054311 -0.051500 -0.011812
v 0.055588 -0.051106 -0.010939
v 0.055588 -0.051106 -0.011812
v 0.054311 -0.051500 -0.011812
v 0.055588 -0.051106 -0.011812
v 0.050869 -0.051500 -0.011812
v 0.055618 -0.049925 -0.011812
v 0.055618 -0.049925 -0.010939
v 0.054620 -0.047270 -0.011812
v 0.054620 -0.047270 -0.010939
v 0.055618 -0.049925 -0.011812
v 0.054620 -0.047270 -0.011812
v 0.016303 -0.033661 -0.012500
v 0.017379 -0.031972 -0.012500
v 0.017896 -0.033661 -0.012500
v 0.015825 -0.031972 -0.012500
v -0.016303 -0.033661 -0.012500
v -0.015825 -0.031972 -0.012500
v 0.016505 -0.034372 -0.012328
v -0.016505 -0.034372 -0.012328
v 0.018224 -0.034615 -0.012390
v 0.017934 -0.034856 -0.010939
v 0.016572 -0.034609 -0.010939
v 0.017934 -0.034856 -0.011812
v 0.016572 -0.034609 -0.011812
v 0.016572 -0.034609 -0.011812
v 0.017934 -0.034856 -0.011812
v -0.016572 -0.034609 -0.011812
v -0.016572 -0.034609 -0.010939
v -0.016572 -0.034609 -0.011812
v 0.010844 -0.011640 0.000000
v 0.010844 -0.011640 -0.011590
v 0.010148 -0.011937 0.000000
v 0.010148 -0.011937 -0.011590
v -0.010148 -0.011937 -0.011590
v 0.010148 -0.011937 -0.011590
v 0.010197 -0.012109 -0.012273
v -0.010197 -0.012109 -0.012273
v 0.010844 -0.011640 -0.011590
v 0.011204 -0.011857 -0.012354
v 0.016214 0.051500 0.000000
v 0.014870 0.051500 0.000000
v 0.017282 0.051162 0.000000
v 0.040882 -0.010748 0.000000
v 0.028620 0.021852 0.000000
v 0.028031 0.023417 0.000000
v 0.049491 -0.033634 0.000000
v 0.048856 -0.031947 0.000000
v 0.049851 -0.034591 0.000000
v 0.055618 -0.049925 0.000000
v 0.054620 -0.047270 0.000000
v 0.055588 -0.051106 0.000000
v 0.054311 -0.051500 0.000000
v 0.050869 -0.051500 0.000000
v 0.022811 -0.049927 0.000000
v 0.023498 -0.051107 0.000000
v 0.022029 -0.047277 0.000000
v 0.016572 -0.034609 0.000000
v 0.017934 -0.034856 0.000000
v -0.016572 -0.034609 0.000000
v 0.024630 -0.051500 0.000000
v 0.024630 -0.051500 -0.010939
v 0.027301 -0.051500 0.000000
v 0.027301 -0.051500 -0.010939
v 0.023498 -0.051107 0.000000
v 0.023498 -0.051107 -0.010939
v 0.023498 -0.051107 -0.011812
v 0.024630 -0.051500 -0.011812
v 0.027301 -0.051500 -0.011812
v 0.024630 -0.051500 -0.011812
v 0.027179 -0.051107 -0.012328
v 0.027301 -0.051500 -0.011812
v 0.024513 -0.051107 -0.012328
v 0.023370 -0.047276 -0.012500
v 0.024161 -0.049927 -0.012500
v 0.026814 -0.049927 -0.012500
v 0.025994 -0.047275 -0.012500
v 0.018758 -0.031971 -0.012500
v 0.019291 -0.033660 -0.012500
v 0.019588 -0.034618 -0.012500
v 0.021767 -0.033656 -0.012500
v 0.022073 -0.034614 -0.012500
v 0.021220 -0.031968 -0.012500
v 0.001281 0.023417 -0.012500
v 0.001687 0.021852 -0.012500
v 0.012062 -0.010748 -0.012500
v 0.003702 0.021852 -0.012500
v 0.014344 -0.010748 -0.012500
v 0.003270 0.023417 -0.012500
v 0.000000 0.051500 -0.011812
v 0.000000 0.051500 -0.010939
v 0.000719 0.051500 -0.010939
v 0.000719 0.051500 -0.011812
v 0.000719 0.051500 -0.011812
v 0.000000 0.051162 -0.012328
v 0.000000 0.051500 -0.011812
v 0.000724 0.051162 -0.012328
v 0.001299 0.051500 -0.011812
v 0.001322 0.051162 -0.012328
v 0.001299 0.051500 -0.010939
v 0.001299 0.051500 -0.011812
v 0.000000 0.051500 0.000000
v 0.000719 0.051500 0.000000
v 0.001299 0.051500 0.000000
v 0.000000 0.050146 -0.012500
v 0.000740 0.050146 -0.012500
v 0.000000 0.048289 -0.012500
v 0.000768 0.048289 -0.012500
v 0.001389 0.050146 -0.012500
v 0.001512 0.048289 -0.012500
v 0.015289 0.050146 -0.012500
v 0.016702 0.050146 -0.012500
v 0.015863 0.048289 -0.012500
v 0.017372 0.048289 -0.012500
v 0.017659 0.050146 -0.012328
v 0.018350 0.048289 -0.012328
v 0.017977 0.050146 -0.010939
v 0.017977 0.050146 -0.011812
v 0.017977 0.050146 -0.011812
v 0.018676 0.048289 -0.011812
v 0.018676 0.048289 -0.010939
v 0.017977 0.050146 -0.011812
v 0.017977 0.050146 -0.010939
v 0.018676 0.048289 -0.011812
v 0.017977 0.050146 0.000000
v 0.018676 0.048289 0.000000
v 0.017977 0.050146 0.000000
v 0.019235 -0.037809 0.000000
v 0.019235 -0.037809 -0.010939
v 0.019235 -0.037809 -0.011812
v 0.019235 -0.037809 -0.011812
v 0.019562 -0.037809 -0.012328
v 0.020544 -0.037808 -0.012500
v 0.023064 -0.037805 -0.012500
v 0.045909 -0.037790 -0.012500
v 0.049199 -0.037787 -0.012500
v 0.050589 -0.037786 -0.012328
v 0.051052 -0.037786 -0.011812
v 0.051052 -0.037786 -0.011812
v 0.051052 -0.037786 -0.010939
v 0.051052 -0.037786 0.000000
v 0.018582 -0.035597 0.000000
v 0.018582 -0.035597 -0.010939
v 0.018582 -0.035597 -0.011812
v 0.018582 -0.035597 -0.011812
v 0.018908 -0.035596 -0.012328
v 0.019884 -0.035596 -0.012500
v 0.022379 -0.035592 -0.012500
v 0.045107 -0.035575 -0.012500
v 0.048373 -0.035571 -0.012500
v 0.049758 -0.035570 -0.012328
v 0.050219 -0.035570 -0.010939
v 0.050219 -0.035570 -0.011812
v 0.050219 -0.035570 -0.011812
v 0.050219 -0.035570 0.000000
v 0.041282 -0.011811 0.000000
v 0.041282 -0.011811 -0.010939
v 0.041282 -0.011811 -0.011812
v 0.041282 -0.011811 -0.011812
v 0.040837 -0.011811 -0.012328
v 0.036439 -0.011811 -0.012500
v 0.039500 -0.011811 -0.012500
v 0.014690 -0.011811 -0.012500
v 0.012400 -0.011812 -0.012500
v 0.010343 -0.012625 -0.012500
v 0.011458 -0.012625 -0.012500
v -0.010343 -0.012625 -0.012500
v -0.010724 -0.013969 -0.012500
v 0.010724 -0.013969 -0.012500
v 0.011869 -0.013969 -0.012500
v 0.012657 -0.012624 -0.012500
v 0.013081 -0.013968 -0.012500
v 0.015390 -0.013968 -0.012500
v 0.014954 -0.012624 -0.012500
v 0.036736 -0.012624 -0.012500
v 0.037226 -0.013967 -0.012500
v 0.039803 -0.012624 -0.012500
v 0.040305 -0.013966 -0.012500
v 0.041646 -0.013966 -0.012328
v 0.041142 -0.012624 -0.012328
v 0.041588 -0.012624 -0.010939
v 0.041588 -0.012624 -0.011812
v 0.041588 -0.012624 -0.011812
v 0.042093 -0.013966 -0.011812
v 0.042093 -0.013966 -0.010939
v 0.042093 -0.013966 -0.011812
v 0.041588 -0.012624 0.000000
v 0.042093 -0.013966 0.000000
v -0.010148 -0.011937 -0.011590
v -0.010148 -0.011937 0.000000
v -0.048008 -0.034593 -0.012500
v -0.049390 -0.034592 -0.012328
v -0.049031 -0.033634 -0.012328
v -0.047651 -0.033635 -0.012500
v -0.044773 -0.034596 -0.012500
v -0.044425 -0.033639 -0.012500
v -0.047021 -0.031948 -0.012500
v -0.043809 -0.031952 -0.012500
v -0.048397 -0.031948 -0.012328
v -0.026923 0.021852 -0.012500
v -0.026342 0.023417 -0.012500
v -0.024158 0.021852 -0.012500
v -0.023603 0.023417 -0.012500
v -0.027609 0.023417 -0.012328
v -0.028196 0.021852 -0.012328
v -0.055104 -0.050800 -0.012194
v -0.053724 -0.049925 -0.012500
v -0.054164 -0.051106 -0.012328
v -0.055145 -0.049925 -0.012328
v -0.050747 -0.051106 -0.012328
v -0.050320 -0.049925 -0.012500
v -0.052734 -0.047270 -0.012500
v -0.049359 -0.047271 -0.012500
v -0.054148 -0.047270 -0.012328
v -0.016214 0.051500 -0.011812
v -0.014995 0.051162 -0.012328
v -0.016336 0.051162 -0.012328
v -0.014890 0.051500 -0.011812
v -0.014890 0.051500 -0.010939
v -0.016214 0.051500 -0.011812
v -0.016214 0.051500 -0.010939
v -0.014890 0.051500 -0.011812
v -0.017282 0.051162 -0.010939
v -0.017282 0.051162 -0.011812
v -0.017135 0.050898 -0.012194
v -0.017282 0.051162 -0.011812
v -0.049491 -0.033634 -0.011812
v -0.048856 -0.031947 -0.011812
v -0.049491 -0.033634 -0.010939
v -0.048856 -0.031947 -0.010939
v -0.048856 -0.031947 -0.011812
v -0.049491 -0.033634 -0.011812
v -0.049851 -0.034591 -0.010939
v -0.049851 -0.034591 -0.011812
v -0.049851 -0.034591 -0.011812
v -0.000531 0.021852 -0.011590
v -0.000820 0.021852 -0.012273
v -0.028031 0.023417 -0.011812
v -0.028620 0.021852 -0.011812
v -0.028620 0.021852 -0.010939
v -0.028031 0.023417 -0.010939
v -0.028031 0.023417 -0.011812
v -0.028620 0.021852 -0.011812
v -0.022811 -0.049927 -0.011812
v -0.023670 -0.050801 -0.012194
v -0.023148 -0.049927 -0.012328
v -0.023498 -0.051107 -0.011812
v -0.022811 -0.049927 -0.010939
v -0.023498 -0.051107 -0.010939
v -0.023498 -0.051107 -0.011812
v -0.022811 -0.049927 -0.011812
v -0.022029 -0.047277 -0.010939
v -0.022029 -0.047277 -0.011812
v -0.022029 -0.047277 -0.011812
v -0.022364 -0.047277 -0.012328
v -0.054311 -0.051500 -0.011812
v -0.055588 -0.051106 -0.011812
v -0.054311 -0.051500 -0.010939
v -0.055588 -0.051106 -0.010939
v -0.055588 -0.051106 -0.011812
v -0.054311 -0.051500 -0.011812
v -0.050889 -0.051500 -0.011812
v -0.050889 -0.051500 -0.010939
v -0.050889 -0.051500 -0.011812
v -0.055618 -0.049925 -0.011812
v -0.054620 -0.047270 -0.011812
v -0.055618 -0.049925 -0.010939
v -0.054620 -0.047270 -0.010939
v -0.054620 -0.047270 -0.011812
v -0.055618 -0.049925 -0.011812
v -0.055588 -0.051106 -0.010939
v -0.055588 -0.051106 -0.011812
v -0.017379 -0.031972 -0.012500
v -0.017896 -0.033661 -0.012500
v -0.018224 -0.034615 -0.012390
v -0.017934 -0.034856 -0.011812
v -0.017934 -0.034856 -0.010939
v -0.017934 -0.034856 -0.011812
v -0.010844 -0.011640 -0.011590
v -0.011204 -0.011857 -0.012354
v -0.014890 0.051500 0.000000
v -0.016214 0.051500 0.000000
v -0.017282 0.051162 0.000000
v -0.028031 0.023417 0.000000
v -0.028620 0.021852 0.000000
v -0.049491 -0.033634 0.000000
v -0.048856 -0.031947 0.000000
v -0.049851 -0.034591 0.000000
v -0.054620 -0.047270 0.000000
v -0.055618 -0.049925 0.000000
v -0.055588 -0.051106 0.000000
v -0.054311 -0.051500 0.000000
v -0.055588 -0.051106 0.000000
v -0.050889 -0.051500 0.000000
v -0.023498 -0.051107 0.000000
v -0.022811 -0.049927 0.000000
v -0.022029 -0.047277 0.000000
v -0.017934 -0.034856 0.000000
v -0.027521 -0.051500 0.000000
v -0.027521 -0.051500 -0.010939
v -0.024630 -0.051500 0.000000
v -0.024630 -0.051500 -0.010939
v -0.024630 -0.051500 -0.011812
v -0.027400 -0.051107 -0.012328
v -0.024513 -0.051107 -0.012328
v -0.027521 -0.051500 -0.011812
v -0.027521 -0.051500 -0.011812
v -0.024630 -0.051500 -0.011812
v -0.027035 -0.049927 -0.012500
v -0.024161 -0.049927 -0.012500
v -0.023370 -0.047276 -0.012500
v -0.026214 -0.047275 -0.012500
v -0.019588 -0.034618 -0.012500
v -0.022294 -0.034614 -0.012500
v -0.021987 -0.033656 -0.012500
v -0.019291 -0.033660 -0.012500
v -0.018758 -0.031971 -0.012500
v -0.021440 -0.031968 -0.012500
v -0.001687 0.021852 -0.012500
v -0.001281 0.023417 -0.012500
v -0.003491 0.023417 -0.012500
v -0.003923 0.021852 -0.012500
v -0.000719 0.051500 -0.011812
v -0.000724 0.051162 -0.012328
v -0.001520 0.051500 -0.011812
v -0.001542 0.051162 -0.012328
v -0.000719 0.051500 -0.010939
v -0.000719 0.051500 -0.011812
v -0.001520 0.051500 -0.011812
v -0.001520 0.051500 -0.010939
v -0.000719 0.051500 0.000000
v -0.001520 0.051500 0.000000
v -0.001733 0.048289 -0.012500
v -0.001610 0.050146 -0.012500
v -0.000768 0.048289 -0.012500
v -0.000740 0.050146 -0.012500
v -0.018350 0.048289 -0.012328
v -0.017659 0.050146 -0.012328
v -0.017371 0.048289 -0.012500
v -0.016702 0.050146 -0.012500
v -0.015884 0.048289 -0.012500
v -0.015309 0.050146 -0.012500
v -0.018676 0.048289 -0.011812
v -0.017977 0.050146 -0.011812
v -0.017977 0.050146 -0.010939
v -0.017977 0.050146 -0.011812
v -0.018676 0.048289 -0.010939
v -0.018676 0.048289 -0.011812
v -0.017977 0.050146 0.000000
v -0.018676 0.048289 0.000000
v -0.019235 -0.037809 0.000000
v -0.019235 -0.037809 -0.010939
v -0.019235 -0.037809 -0.011812
v -0.019235 -0.037809 -0.011812
v -0.019562 -0.037809 -0.012328
v -0.020544 -0.037808 -0.012500
v -0.023284 -0.037805 -0.012500
v -0.045929 -0.037790 -0.012500
v -0.049199 -0.037787 -0.012500
v -0.050589 -0.037786 -0.012328
v -0.051052 -0.037786 -0.011812
v -0.051052 -0.037786 -0.011812
v -0.051052 -0.037786 -0.010939
v -0.051052 -0.037786 0.000000
v -0.018582 -0.035597 0.000000
v -0.018582 -0.035597 -0.010939
v -0.018582 -0.035597 -0.011812
v -0.018908 -0.035596 -0.012328
v -0.018582 -0.035597 -0.011812
v -0.022600 -0.035592 -0.012500
v -0.019884 -0.035596 -0.012500
v -0.045128 -0.035575 -0.012500
v -0.049758 -0.035570 -0.012328
v -0.048373 -0.035571 -0.012500
v -0.050219 -0.035570 -0.011812
v -0.050219 -0.035570 -0.010939
v -0.050219 -0.035570 -0.011812
v -0.050219 -0.035570 0.000000
v -0.040882 -0.010748 -0.010939
v -0.040882 -0.010748 0.000000
v -0.041282 -0.011811 0.000000
v -0.041282 -0.011811 -0.010939
v -0.040437 -0.010748 -0.012328
v -0.040882 -0.010748 -0.011812
v -0.040882 -0.010748 -0.011812
v -0.041282 -0.011811 -0.011812
v -0.041282 -0.011811 -0.011812
v -0.040837 -0.011811 -0.012328
v -0.039103 -0.010748 -0.012500
v -0.039500 -0.011811 -0.012500
v -0.036460 -0.011811 -0.012500
v -0.036072 -0.010748 -0.012500
v -0.014911 -0.011811 -0.012500
v -0.014564 -0.010748 -0.012500
v -0.012062 -0.010748 -0.012500
v -0.012400 -0.011812 -0.012500
v -0.011135 -0.010748 -0.012273
v -0.010825 -0.010748 -0.011590
v -0.011458 -0.012625 -0.012500
v -0.011869 -0.013969 -0.012500
v -0.013081 -0.013968 -0.012500
v -0.015610 -0.013968 -0.012500
v -0.015175 -0.012624 -0.012500
v -0.012657 -0.012624 -0.012500
v -0.036757 -0.012624 -0.012500
v -0.037246 -0.013967 -0.012500
v -0.040305 -0.013966 -0.012500
v -0.041646 -0.013966 -0.012328
v -0.041142 -0.012624 -0.012328
v -0.039803 -0.012624 -0.012500
v -0.041588 -0.012624 -0.011812
v -0.042093 -0.013966 -0.011812
v -0.041588 -0.012624 -0.010939
v -0.041588 -0.012624 -0.011812
v -0.042093 -0.013966 -0.010939
v -0.042093 -0.013966 -0.011812
v -0.041588 -0.012624 0.000000
v -0.042093 -0.013966 0.000000
v -0.010844 -0.011640 0.000000
v -0.010844 -0.011640 -0.011590
v -0.010825 -0.010748 0.000000
v -0.000531 0.021852 -0.011590
v -0.000531 0.021852 0.000000
v -0.010825 -0.010748 -0.011590
v 0.000000 0.022692 -0.011590
v 0.000000 0.022692 0.000000
v -0.027107 0.025874 -0.010939
v -0.027107 0.025874 0.000000
v -0.027528 0.024754 0.000000
v -0.027528 0.024754 -0.010939
v -0.026693 0.025874 -0.012328
v -0.027107 0.025874 -0.011812
v -0.027107 0.025874 -0.011812
v -0.027528 0.024754 -0.011812
v -0.027528 0.024754 -0.011812
v -0.027110 0.024754 -0.012328
v -0.025450 0.025874 -0.012500
v -0.025854 0.024754 -0.012500
v -0.023166 0.024754 -0.012500
v -0.022819 0.025874 -0.012500
v -0.003293 0.024754 -0.012500
v -0.003219 0.025874 -0.012500
v -0.001115 0.025874 -0.012500
v -0.001133 0.024754 -0.012500
v 0.000000 0.024754 -0.012500
v 0.000000 0.025874 -0.012500
v 0.001115 0.025874 -0.012500
v 0.001133 0.024754 -0.012500
v 0.003073 0.024754 -0.012500
v 0.002998 0.025874 -0.012500
v 0.023145 0.024754 -0.012500
v 0.022799 0.025874 -0.012500
v 0.025450 0.025874 -0.012500
v 0.025854 0.024754 -0.012500
v 0.027110 0.024754 -0.012328
v 0.026693 0.025874 -0.012328
v 0.027528 0.024754 -0.011812
v 0.027528 0.024754 -0.010939
v 0.027107 0.025874 -0.011812
v 0.027107 0.025874 -0.010939
v 0.027107 0.025874 -0.011812
v 0.027528 0.024754 -0.011812
v 0.027107 0.025874 0.000000
v 0.027528 0.024754 0.000000
f 1 2 3
f 3 2 4
f 5 4 2
f 4 5 6
f 7 4 6
f 6 8 7
f 4 9 3
f 9 4 7
f 10 11 12
f 12 11 13
f 13 14 12
f 14 13 15
f 16 17 18
f 18 17 19
f 20 19 17
f 19 20 21
f 19 22 23
f 22 19 21
f 19 24 18
f 24 19 23
f 25 26 27
f 26 25 28
f 29 25 27
f 29 27 30
f 31 32 33
f 32 31 34
f 35 32 34
f 32 35 36
f 37 38 39
f 38 37 40
f 41 42 43
f 42 44 43
f 41 45 46
f 45 41 43
f 9 47 48
f 47 9 7
f 8 49 7
f 7 49 47
f 50 51 52
f 52 51 53
f 54 55 56
f 54 56 57
f 15 58 14
f 58 15 59
f 60 61 62
f 61 60 63
f 64 61 63
f 64 63 65
f 66 67 68
f 67 66 69
f 68 70 71
f 68 71 66
f 72 73 74
f 75 74 73
f 76 75 73
f 76 73 77
f 78 22 21
f 22 78 79
f 21 20 80
f 21 80 78
f 81 77 82
f 77 81 76
f 83 81 82
f 83 82 84
f 24 85 86
f 85 24 23
f 22 85 23
f 85 22 79
f 87 88 89
f 88 87 90
f 91 92 93
f 92 91 94
f 94 91 95
f 95 96 94
f 97 98 99
f 97 99 100
f 95 101 96
f 101 95 102
f 103 104 105
f 105 104 106
f 26 107 27
f 27 107 108
f 27 108 30
f 30 108 109
f 56 110 57
f 57 110 111
f 44 112 43
f 43 112 113
f 43 114 45
f 114 43 113
f 77 115 82
f 82 115 116
f 82 116 84
f 84 116 117
f 72 118 73
f 73 118 119
f 73 115 77
f 115 73 119
f 60 120 63
f 63 120 121
f 63 121 65
f 65 121 122
f 99 123 100
f 100 123 124
f 125 126 127
f 127 128 125
f 126 125 129
f 129 125 130
f 131 132 126
f 132 127 126
f 133 131 126
f 133 126 129
f 134 135 136
f 135 134 137
f 67 135 137
f 135 67 69
f 70 68 138
f 138 68 139
f 67 139 68
f 139 67 137
f 140 139 137
f 137 134 140
f 139 141 138
f 141 139 140
f 92 94 142
f 142 94 143
f 96 143 94
f 143 96 144
f 145 143 144
f 144 146 145
f 143 147 142
f 147 143 145
f 52 148 50
f 148 52 149
f 149 150 148
f 150 149 151
f 152 153 154
f 153 152 155
f 156 157 158
f 158 157 159
f 160 161 162
f 161 160 163
f 164 165 163
f 163 165 161
f 157 156 166
f 166 167 157
f 168 159 157
f 159 168 169
f 167 170 157
f 157 170 168
f 160 171 163
f 163 171 172
f 172 154 153
f 154 172 171
f 172 153 173
f 173 153 174
f 164 172 173
f 172 164 163
f 31 175 34
f 34 175 176
f 89 176 175
f 176 89 88
f 176 88 177
f 88 39 177
f 176 35 34
f 35 176 177
f 28 178 179
f 28 179 26
f 180 35 177
f 35 180 36
f 39 180 177
f 180 39 38
f 181 182 183
f 182 181 184
f 179 107 26
f 107 179 185
f 186 183 182
f 182 187 186
f 167 109 170
f 109 167 30
f 166 29 30
f 166 30 167
f 33 164 31
f 164 33 165
f 31 164 173
f 31 173 175
f 175 173 174
f 174 89 175
f 151 10 150
f 10 151 11
f 145 1 147
f 1 145 2
f 146 2 145
f 2 146 5
f 140 16 141
f 16 140 17
f 134 17 140
f 17 134 20
f 133 72 74
f 72 133 129
f 20 134 136
f 20 136 80
f 72 129 118
f 129 130 118
f 188 120 60
f 120 188 189
f 62 190 188
f 62 188 60
f 191 70 192
f 70 191 71
f 193 70 138
f 70 193 192
f 193 138 194
f 194 138 141
f 195 194 141
f 195 141 16
f 16 196 195
f 196 16 18
f 196 18 197
f 197 18 24
f 198 84 199
f 84 198 83
f 197 24 86
f 197 86 200
f 199 117 201
f 117 199 84
f 202 203 100
f 100 124 202
f 203 189 188
f 189 203 202
f 203 204 97
f 97 100 203
f 190 204 203
f 190 203 188
f 192 205 191
f 205 192 206
f 96 101 206
f 206 101 205
f 96 206 144
f 144 206 207
f 192 207 206
f 207 192 193
f 208 207 193
f 193 194 208
f 207 146 144
f 146 207 208
f 5 146 208
f 5 208 209
f 209 208 194
f 194 195 209
f 6 5 209
f 6 209 210
f 195 210 209
f 210 195 196
f 210 196 211
f 196 197 211
f 210 8 6
f 8 210 211
f 42 212 213
f 42 213 44
f 8 214 49
f 214 8 211
f 211 197 200
f 211 200 214
f 212 198 213
f 198 199 213
f 213 112 44
f 112 213 215
f 213 201 215
f 201 213 199
f 216 217 218
f 218 217 219
f 218 110 56
f 110 218 219
f 220 221 218
f 221 216 218
f 218 56 220
f 55 220 56
f 222 59 223
f 15 223 59
f 224 225 223
f 223 225 222
f 226 227 228
f 227 226 229
f 223 227 229
f 229 224 223
f 223 15 227
f 13 227 15
f 227 13 228
f 11 228 13
f 230 228 231
f 228 230 226
f 151 231 11
f 231 228 11
f 103 232 233
f 232 103 234
f 231 232 234
f 234 230 231
f 231 151 232
f 149 232 151
f 232 149 233
f 52 233 149
f 233 104 103
f 104 233 235
f 52 235 233
f 235 52 53
f 236 103 105
f 103 236 237
f 236 238 237
f 238 239 237
f 103 237 234
f 234 237 240
f 239 240 237
f 240 239 241
f 242 240 241
f 241 243 242
f 240 230 234
f 230 240 242
f 226 230 242
f 226 242 244
f 243 244 242
f 244 243 245
f 229 226 244
f 229 244 246
f 245 246 244
f 246 245 247
f 248 246 247
f 247 249 248
f 246 224 229
f 224 246 248
f 250 251 221
f 221 251 216
f 248 225 224
f 225 248 252
f 249 253 248
f 248 253 252
f 250 254 251
f 254 250 255
f 251 217 216
f 217 251 256
f 254 256 251
f 256 254 257
f 258 259 260
f 260 259 261
f 259 258 262
f 262 263 259
f 262 264 263
f 264 265 263
f 266 267 264
f 264 267 265
f 268 269 270
f 269 271 270
f 268 272 273
f 272 268 270
f 274 273 275
f 273 274 268
f 276 268 274
f 268 276 269
f 277 278 279
f 278 277 280
f 279 281 282
f 281 279 278
f 283 282 284
f 282 283 279
f 285 279 283
f 279 285 277
f 286 287 288
f 287 286 289
f 286 290 291
f 290 286 288
f 292 291 293
f 291 292 286
f 294 286 292
f 286 294 289
f 295 296 297
f 296 295 298
f 299 300 301
f 300 299 302
f 303 299 301
f 303 301 304
f 296 305 297
f 305 296 306
f 307 308 309
f 308 307 310
f 311 312 313
f 311 313 314
f 276 315 269
f 315 276 316
f 317 318 319
f 318 317 320
f 321 317 319
f 321 319 322
f 269 323 271
f 323 269 315
f 324 325 326
f 324 326 327
f 328 329 330
f 330 329 331
f 330 332 333
f 332 330 331
f 324 51 50
f 51 324 327
f 277 285 334
f 277 334 335
f 336 337 338
f 337 339 338
f 338 340 336
f 340 338 341
f 335 342 277
f 280 277 342
f 343 344 345
f 344 343 346
f 347 348 349
f 348 350 349
f 347 351 352
f 351 347 349
f 345 353 354
f 353 345 344
f 287 355 288
f 355 287 356
f 357 358 359
f 358 360 359
f 361 357 359
f 361 359 362
f 288 363 290
f 363 288 355
f 294 364 289
f 364 294 365
f 366 367 368
f 369 368 367
f 369 370 371
f 370 369 367
f 364 287 289
f 287 364 356
f 309 372 373
f 372 309 308
f 373 374 375
f 374 373 372
f 376 95 377
f 377 95 91
f 377 91 378
f 378 91 93
f 379 377 378
f 377 379 380
f 381 376 380
f 377 380 376
f 382 95 376
f 95 382 102
f 381 383 376
f 376 383 382
f 384 385 386
f 385 384 387
f 386 99 384
f 98 384 99
f 105 388 389
f 388 105 106
f 260 261 390
f 390 261 391
f 390 391 392
f 392 391 393
f 389 394 395
f 394 389 388
f 300 396 301
f 396 300 397
f 396 304 301
f 304 396 398
f 313 399 314
f 399 313 400
f 339 401 338
f 338 401 402
f 338 403 341
f 403 338 402
f 404 319 318
f 318 405 404
f 319 404 322
f 322 404 406
f 366 407 367
f 407 366 408
f 367 409 370
f 409 367 407
f 410 359 360
f 360 411 410
f 410 362 359
f 362 410 412
f 350 413 349
f 413 350 414
f 349 415 351
f 415 349 413
f 385 416 386
f 386 416 417
f 417 123 386
f 99 386 123
f 418 419 420
f 420 419 421
f 420 414 350
f 414 420 421
f 422 423 424
f 423 422 425
f 418 420 426
f 427 426 420
f 348 427 420
f 348 420 350
f 423 343 424
f 343 423 346
f 422 424 428
f 429 428 424
f 429 343 345
f 343 429 424
f 430 345 354
f 345 430 429
f 431 429 430
f 429 431 428
f 432 433 434
f 435 434 433
f 435 381 380
f 381 435 433
f 436 380 379
f 380 436 435
f 437 435 436
f 435 437 434
f 438 439 440
f 439 438 441
f 440 325 324
f 325 440 439
f 50 442 324
f 324 442 440
f 443 440 442
f 440 443 438
f 444 445 446
f 445 444 447
f 446 152 154
f 152 446 445
f 448 449 450
f 449 448 451
f 160 451 448
f 451 160 162
f 452 453 158
f 158 159 452
f 453 452 454
f 454 452 455
f 452 456 455
f 456 452 457
f 457 452 159
f 159 169 457
f 446 458 459
f 459 444 446
f 458 154 171
f 154 458 446
f 448 171 160
f 171 448 458
f 450 458 448
f 458 450 459
f 373 460 461
f 461 309 373
f 460 375 462
f 375 460 373
f 297 462 295
f 462 297 460
f 305 460 297
f 460 305 461
f 461 307 309
f 307 461 463
f 305 463 461
f 463 305 306
f 464 303 465
f 303 304 465
f 312 464 465
f 312 465 313
f 313 466 400
f 466 313 465
f 465 398 466
f 398 465 304
f 300 455 397
f 455 456 397
f 449 298 450
f 295 450 298
f 302 454 455
f 302 455 300
f 462 444 459
f 444 462 375
f 295 459 450
f 459 295 462
f 375 447 444
f 447 375 374
f 282 441 438
f 441 282 281
f 282 438 284
f 443 284 438
f 273 432 434
f 432 273 272
f 273 434 275
f 437 275 434
f 291 422 428
f 422 291 290
f 291 428 293
f 431 293 428
f 290 425 422
f 425 290 363
f 361 418 426
f 418 361 362
f 418 362 419
f 362 412 419
f 351 415 467
f 467 415 468
f 353 469 354
f 470 354 469
f 352 467 471
f 467 352 351
f 472 430 473
f 430 472 431
f 473 354 470
f 354 473 430
f 474 431 472
f 431 474 293
f 475 292 476
f 292 475 294
f 476 293 474
f 293 476 292
f 475 365 294
f 365 475 477
f 478 366 368
f 366 478 479
f 479 408 366
f 408 479 480
f 481 482 467
f 467 468 481
f 482 416 385
f 416 482 481
f 470 483 484
f 483 470 469
f 485 471 482
f 471 467 482
f 485 482 387
f 387 482 385
f 484 383 381
f 383 484 483
f 486 487 473
f 487 472 473
f 486 470 484
f 470 486 473
f 381 433 484
f 484 433 486
f 432 486 433
f 486 432 487
f 488 472 487
f 472 488 474
f 272 487 432
f 487 272 488
f 476 489 490
f 490 475 476
f 489 474 488
f 474 489 476
f 270 488 272
f 488 270 489
f 271 489 270
f 489 271 490
f 490 477 475
f 477 490 491
f 271 491 490
f 491 271 323
f 492 321 493
f 321 322 493
f 478 492 493
f 478 493 479
f 493 480 479
f 480 493 494
f 494 493 322
f 322 406 494
f 403 495 341
f 495 403 496
f 497 340 341
f 497 341 495
f 280 498 499
f 498 280 342
f 278 280 500
f 280 499 500
f 278 501 281
f 501 278 500
f 281 502 441
f 502 281 501
f 502 503 441
f 439 441 503
f 439 395 325
f 395 439 503
f 395 394 325
f 325 394 326
f 392 393 328
f 328 393 329
f 236 504 505
f 236 505 238
f 105 389 504
f 105 504 236
f 395 504 389
f 504 395 506
f 505 504 506
f 506 507 505
f 508 509 510
f 509 511 510
f 508 507 506
f 507 508 510
f 503 506 395
f 506 503 508
f 502 508 503
f 508 502 509
f 512 511 509
f 511 512 513
f 501 509 502
f 509 501 512
f 514 515 516
f 515 517 516
f 514 513 512
f 513 514 516
f 500 512 501
f 512 500 514
f 499 514 500
f 514 499 515
f 515 518 517
f 518 515 519
f 499 519 515
f 519 499 498
f 520 521 497
f 497 495 520
f 521 522 523
f 522 521 520
f 520 524 522
f 522 524 525
f 524 520 495
f 495 496 524
f 526 401 339
f 401 526 527
f 528 339 337
f 339 528 526
f 285 529 334
f 529 285 530
f 283 531 530
f 530 285 283
f 531 284 532
f 284 531 283
f 532 443 533
f 443 532 284
f 534 533 442
f 533 443 442
f 534 50 535
f 50 534 442
f 536 50 148
f 50 536 535
f 537 536 148
f 537 148 150
f 538 537 150
f 150 10 538
f 10 539 538
f 539 10 12
f 539 12 540
f 12 14 540
f 541 57 542
f 57 541 54
f 14 543 540
f 543 14 58
f 544 542 57
f 57 111 544
f 155 174 153
f 174 155 545
f 174 545 89
f 89 545 87
f 88 90 39
f 39 90 37
f 184 546 547
f 184 547 182
f 182 547 187
f 547 548 187
f 549 550 551
f 550 549 552
f 553 551 554
f 551 553 549
f 555 554 556
f 554 551 556
f 551 557 556
f 557 551 550
f 558 559 560
f 559 558 561
f 562 560 563
f 560 562 558
f 564 565 563
f 563 560 564
f 560 566 564
f 566 560 559
f 567 568 569
f 568 567 570
f 571 569 572
f 569 571 567
f 573 569 574
f 569 573 572
f 569 575 574
f 575 569 568
f 576 577 578
f 577 576 579
f 580 578 581
f 578 577 581
f 582 583 584
f 583 582 585
f 582 586 585
f 586 582 587
f 588 589 590
f 588 590 591
f 592 588 593
f 588 591 593
f 594 557 595
f 557 594 556
f 596 556 594
f 556 596 555
f 597 598 599
f 599 598 600
f 601 599 600
f 601 600 602
f 603 604 605
f 603 605 606
f 607 605 604
f 605 607 608
f 609 610 611
f 609 611 612
f 613 609 614
f 609 612 614
f 615 616 564
f 615 564 566
f 617 564 616
f 564 617 565
f 618 619 620
f 619 618 621
f 622 620 623
f 620 619 623
f 624 625 626
f 625 624 627
f 628 627 624
f 627 628 629
f 630 631 632
f 630 632 633
f 634 630 635
f 630 633 635
f 636 573 637
f 573 636 572
f 638 572 636
f 572 638 571
f 634 639 640
f 639 634 635
f 639 641 640
f 642 640 641
f 643 575 644
f 575 643 574
f 643 573 574
f 573 643 637
f 645 646 647
f 646 645 648
f 645 649 650
f 645 650 648
f 651 652 649
f 651 649 645
f 645 647 651
f 653 651 647
f 654 655 656
f 655 657 656
f 658 651 659
f 659 651 653
f 660 651 658
f 651 660 652
f 655 661 662
f 655 662 657
f 663 664 665
f 665 664 666
f 667 668 669
f 667 669 670
f 671 669 668
f 669 671 672
f 673 580 674
f 580 673 578
f 675 576 673
f 673 576 578
f 676 609 677
f 609 676 610
f 677 609 678
f 678 609 613
f 679 592 680
f 592 679 588
f 681 589 679
f 679 589 588
f 682 642 683
f 642 682 640
f 684 640 682
f 640 684 634
f 685 634 684
f 634 685 630
f 686 631 685
f 685 631 630
f 687 622 688
f 622 687 620
f 689 620 687
f 620 689 618
f 690 655 691
f 691 655 654
f 661 655 692
f 690 692 655
f 693 694 695
f 695 694 696
f 694 693 697
f 697 698 694
f 694 698 699
f 694 699 700
f 700 701 694
f 696 694 701
f 702 703 704
f 703 702 705
f 702 625 705
f 625 702 626
f 627 706 707
f 706 627 629
f 625 707 705
f 707 625 627
f 707 708 705
f 703 705 708
f 707 709 708
f 709 707 706
f 647 710 711
f 710 647 646
f 653 711 712
f 711 653 647
f 711 713 712
f 714 712 713
f 711 715 713
f 715 711 710
f 605 716 717
f 716 605 608
f 717 718 606
f 606 605 717
f 719 720 718
f 718 717 719
f 717 721 719
f 721 717 716
f 722 723 724
f 724 725 722
f 726 727 728
f 727 726 729
f 730 729 726
f 729 730 731
f 732 733 724
f 724 733 725
f 724 734 735
f 734 724 723
f 736 724 735
f 724 736 732
f 737 729 738
f 729 737 727
f 739 738 740
f 738 739 737
f 741 742 740
f 740 738 741
f 738 731 741
f 731 738 729
f 743 585 744
f 585 743 583
f 745 744 746
f 744 745 743
f 747 748 746
f 746 744 747
f 744 586 747
f 586 744 585
f 576 749 579
f 749 750 579
f 751 586 587
f 586 751 747
f 751 748 747
f 748 751 752
f 753 754 755
f 754 753 756
f 757 576 675
f 576 757 749
f 758 753 759
f 759 753 755
f 736 674 732
f 674 580 732
f 584 731 730
f 731 584 583
f 732 580 581
f 732 581 733
f 741 743 742
f 745 742 743
f 741 583 743
f 583 741 731
f 558 562 720
f 720 719 558
f 719 561 558
f 561 719 721
f 713 549 714
f 553 714 549
f 713 552 549
f 552 713 715
f 708 567 703
f 571 703 567
f 708 570 567
f 570 708 709
f 704 571 638
f 571 704 703
f 701 632 696
f 631 696 632
f 686 695 631
f 695 696 631
f 760 761 689
f 689 761 618
f 761 621 618
f 621 761 762
f 763 629 628
f 629 763 764
f 765 706 629
f 629 764 765
f 706 766 709
f 766 706 765
f 709 767 570
f 767 709 766
f 768 568 570
f 570 767 768
f 568 769 575
f 769 568 768
f 644 769 770
f 769 644 575
f 641 771 642
f 772 642 771
f 772 773 683
f 683 642 772
f 774 761 760
f 761 774 775
f 775 774 691
f 691 654 775
f 654 656 775
f 775 656 776
f 761 775 762
f 775 776 762
f 777 764 763
f 764 777 778
f 659 778 777
f 778 659 653
f 778 712 779
f 712 778 653
f 764 779 765
f 779 764 778
f 766 765 780
f 765 779 780
f 779 714 780
f 714 779 712
f 766 781 767
f 781 766 780
f 780 553 781
f 553 780 714
f 781 554 782
f 554 781 553
f 767 782 768
f 782 767 781
f 783 769 768
f 768 782 783
f 782 555 783
f 555 782 554
f 589 784 590
f 784 785 590
f 786 555 596
f 555 786 783
f 770 783 786
f 783 770 769
f 784 772 771
f 784 771 785
f 787 589 681
f 589 787 784
f 784 787 773
f 773 772 784
f 788 789 676
f 676 789 610
f 610 789 790
f 610 790 611
f 791 565 617
f 565 791 792
f 793 563 794
f 563 793 562
f 792 794 565
f 794 563 565
f 720 562 795
f 793 795 562
f 672 718 796
f 718 672 606
f 718 720 796
f 795 796 720
f 601 602 663
f 663 602 664
f 603 606 671
f 671 606 672
f 797 672 798
f 672 797 669
f 797 799 670
f 797 670 669
f 800 797 801
f 797 800 799
f 798 802 801
f 801 797 798
f 798 796 803
f 796 798 672
f 802 803 804
f 803 802 798
f 805 804 806
f 804 803 806
f 803 795 806
f 795 803 796
f 806 807 805
f 808 805 807
f 806 793 807
f 793 806 795
f 807 794 809
f 794 807 793
f 808 809 810
f 809 808 807
f 811 810 812
f 810 809 812
f 809 792 812
f 792 809 794
f 790 789 813
f 813 814 790
f 815 792 791
f 792 815 812
f 816 812 815
f 812 816 811
f 813 817 818
f 813 818 814
f 788 813 789
f 813 788 819
f 820 817 819
f 819 817 813
f 665 821 822
f 821 665 666
f 823 824 825
f 825 826 823
f 826 827 823
f 827 826 828
f 826 829 828
f 828 829 830
f 831 826 825
f 826 831 829
f 832 833 834
f 834 833 835
f 836 832 837
f 832 836 833
f 838 839 840
f 839 838 841
f 839 842 840
f 842 839 843
f 839 844 843
f 843 844 845
f 846 839 841
f 839 846 844
f 847 848 849
f 848 847 850
f 851 852 853
f 852 851 854
f 855 853 856
f 853 852 856
f 847 857 858
f 857 847 849
f 859 831 825
f 831 859 860
f 861 862 863
f 861 863 864
f 865 861 866
f 861 864 866
f 859 825 867
f 867 825 824
f 868 869 607
f 607 869 608
f 870 837 871
f 837 870 836
f 872 873 874
f 872 874 875
f 876 877 878
f 877 876 879
f 880 881 882
f 880 882 883
f 883 884 880
f 884 883 885
f 886 876 878
f 886 878 887
f 888 838 840
f 838 888 889
f 890 891 892
f 890 892 893
f 893 894 890
f 895 890 894
f 896 888 840
f 896 840 842
f 897 846 841
f 846 897 898
f 899 900 901
f 899 901 902
f 903 902 904
f 902 903 899
f 897 838 889
f 838 897 841
f 905 649 906
f 649 905 650
f 652 907 906
f 906 649 652
f 908 652 660
f 652 908 907
f 909 662 661
f 662 909 910
f 667 670 911
f 911 670 912
f 913 851 914
f 914 851 853
f 853 915 914
f 915 853 855
f 916 873 917
f 917 873 872
f 861 918 919
f 919 862 861
f 918 861 920
f 920 861 865
f 921 900 922
f 922 900 899
f 922 899 923
f 923 899 903
f 890 924 925
f 925 891 890
f 890 926 924
f 926 890 895
f 927 881 928
f 928 881 880
f 928 880 929
f 929 880 884
f 930 909 692
f 692 909 661
f 931 932 933
f 933 932 934
f 933 881 927
f 881 933 934
f 935 936 937
f 936 935 938
f 934 932 939
f 934 939 940
f 881 934 882
f 934 940 882
f 935 877 879
f 877 935 937
f 937 936 941
f 941 942 937
f 942 877 937
f 877 942 878
f 942 943 878
f 878 943 887
f 944 942 941
f 942 944 943
f 945 946 947
f 947 948 945
f 948 907 945
f 907 948 906
f 948 949 906
f 906 949 905
f 950 948 947
f 948 950 949
f 951 952 869
f 869 952 608
f 953 951 954
f 951 953 952
f 955 956 957
f 957 956 958
f 955 727 956
f 727 955 728
f 723 722 959
f 959 722 960
f 961 962 959
f 959 960 961
f 963 723 959
f 723 963 734
f 963 959 964
f 964 959 962
f 965 966 967
f 967 966 968
f 739 968 737
f 968 739 967
f 968 956 737
f 737 956 727
f 968 958 956
f 958 968 966
f 969 970 971
f 970 972 971
f 972 973 971
f 973 972 974
f 972 849 974
f 974 849 848
f 857 972 970
f 972 857 849
f 975 976 970
f 975 970 969
f 976 857 970
f 857 976 858
f 977 855 856
f 977 856 978
f 979 977 980
f 977 978 980
f 977 981 915
f 915 855 977
f 981 979 982
f 979 981 977
f 913 962 851
f 962 913 964
f 850 958 848
f 958 850 957
f 962 854 851
f 854 962 961
f 974 965 973
f 965 974 966
f 966 974 848
f 966 848 958
f 835 954 834
f 954 835 953
f 828 946 827
f 946 828 947
f 830 947 828
f 947 830 950
f 843 936 842
f 936 843 941
f 845 941 843
f 941 845 944
f 938 896 842
f 938 842 936
f 894 939 895
f 932 895 939
f 926 932 931
f 932 926 895
f 929 884 983
f 983 884 984
f 984 884 885
f 984 885 985
f 986 887 987
f 887 986 886
f 988 887 943
f 887 988 987
f 988 943 989
f 944 989 943
f 944 845 990
f 990 989 944
f 991 845 844
f 845 991 990
f 991 844 992
f 846 992 844
f 898 993 992
f 898 992 846
f 994 900 995
f 900 994 901
f 921 995 900
f 995 921 996
f 997 984 998
f 984 997 983
f 930 998 909
f 998 930 997
f 999 987 1000
f 987 999 986
f 998 984 985
f 998 985 1001
f 910 909 998
f 998 1001 910
f 999 1000 908
f 908 1000 907
f 988 989 1002
f 1002 1003 988
f 1003 987 988
f 987 1003 1000
f 1003 945 1000
f 1000 945 907
f 946 1003 1002
f 1003 946 945
f 989 990 1004
f 989 1004 1002
f 1002 1004 827
f 827 946 1002
f 992 1005 991
f 1005 1006 991
f 1006 990 991
f 990 1006 1004
f 1004 1006 823
f 1004 823 827
f 824 1006 1005
f 1006 824 823
f 993 1007 1005
f 993 1005 992
f 1007 824 1005
f 824 1007 867
f 1008 865 866
f 1008 866 1009
f 995 1008 994
f 1008 1009 994
f 1008 1010 920
f 920 865 1008
f 996 1008 995
f 1008 996 1010
f 917 1011 1012
f 1011 917 872
f 1011 1013 1012
f 1013 1011 1014
f 871 1015 1016
f 1015 871 837
f 872 1017 1011
f 1017 872 875
f 1014 1011 1018
f 1011 1017 1018
f 1016 1015 1019
f 1019 1015 1020
f 1015 837 1021
f 1021 837 832
f 1022 1020 1015
f 1015 1021 1022
f 1021 1023 1022
f 1023 1021 1024
f 1021 832 1024
f 1024 832 834
f 1024 1025 1023
f 1025 1024 1026
f 1024 834 1026
f 1026 834 954
f 1026 954 1027
f 1027 954 951
f 1028 1025 1026
f 1026 1027 1028
f 912 1027 1029
f 1027 912 1028
f 1027 951 1029
f 1029 951 869
f 1029 869 1030
f 868 1030 869
f 911 1029 1030
f 1029 911 912
f 912 799 1031
f 799 912 670
f 1032 1031 800
f 1031 799 800
f 1033 1034 1035
f 1035 1036 1033
f 1036 1032 1033
f 1032 1036 1031
f 1036 1028 1031
f 1031 1028 912
f 1025 1036 1035
f 1036 1025 1028
f 1037 1034 1038
f 1034 1037 1035
f 1035 1037 1023
f 1023 1025 1035
f 1039 1040 1041
f 1041 1042 1039
f 1042 1038 1039
f 1038 1042 1037
f 1037 1042 1022
f 1037 1022 1023
f 1020 1042 1041
f 1042 1020 1022
f 1043 1041 1044
f 1044 1041 1040
f 1043 1020 1041
f 1020 1043 1019
f 1014 1018 1045
f 1045 1018 1046
f 1047 1045 1048
f 1045 1046 1048
f 1045 1049 1013
f 1013 1014 1045
f 1049 1045 1050
f 1050 1045 1047
f 821 1051 822
f 1051 821 1052
f 1053 1054 1055
f 1054 1053 1056
f 1051 1056 1053
f 1056 1051 1052
f 1055 1057 1058
f 1057 1055 1054
f 982 1059 1060
f 1059 982 979
f 1061 873 916
f 873 1061 1062
f 975 1063 1064
f 1063 975 969
f 979 1065 1059
f 1065 979 980
f 873 1066 874
f 1066 873 1062
f 1067 836 870
f 836 1067 1068
f 1063 969 1069
f 1069 969 971
f 836 1068 833
f 1068 1070 833
f 1070 835 833
f 835 1070 1071
f 1069 971 1072
f 1072 971 973
f 953 835 1071
f 953 1071 1073
f 1072 973 1074
f 1074 973 965
f 1074 965 1075
f 1075 965 967
f 952 953 1073
f 952 1073 1076
f 608 1076 1077
f 1076 608 952
f 1075 967 1078
f 1078 967 739
f 1078 740 1079
f 740 1078 739
f 608 1080 716
f 1080 608 1077
f 721 716 1081
f 716 1080 1081
f 1079 742 1082
f 742 1079 740
f 721 1083 561
f 1083 721 1081
f 1082 745 1084
f 745 1082 742
f 1084 746 1085
f 746 1084 745
f 561 1086 559
f 1086 561 1083
f 1087 566 559
f 559 1086 1087
f 1085 748 1088
f 748 1085 746
f 613 1089 1090
f 1089 613 614
f 1091 756 1092
f 753 1092 756
f 1088 752 1093
f 752 1088 748
f 1094 566 1087
f 566 1094 615
f 758 1095 753
f 1095 1092 753
f 1090 1096 678
f 678 613 1090
f 155 535 536
f 535 155 152
f 545 536 537
f 536 545 155
f 87 545 537
f 87 537 538
f 538 90 87
f 90 538 539
f 90 539 37
f 37 539 540
f 37 540 543
f 37 543 40
f 546 541 542
f 546 542 547
f 548 547 542
f 542 544 548
f 1092 1095 1096
f 1096 1090 1092
f 1092 1090 1091
f 1090 1089 1091
f 1093 1094 1088
f 1094 1087 1088
f 1086 1088 1087
f 1088 1086 1085
f 1083 1085 1086
f 1085 1083 1084
f 1081 1084 1083
f 1084 1081 1082
f 1080 1082 1081
f 1082 1080 1079
f 1077 1079 1080
f 1079 1077 1078
f 1076 1075 1077
f 1077 1075 1078
f 1076 1073 1074
f 1076 1074 1075
f 1073 1071 1072
f 1073 1072 1074
f 1071 1070 1069
f 1071 1069 1072
f 1068 1063 1070
f 1070 1063 1069
f 1064 1068 1067
f 1068 1064 1063
f 1059 1066 1062
f 1066 1059 1065
f 1060 1062 1061
f 1062 1060 1059
f 314 527 526
f 527 314 399
f 311 314 528
f 528 314 526
f 530 308 529
f 308 310 529
f 308 531 372
f 531 308 530
f 372 532 374
f 532 372 531
f 374 533 447
f 533 374 532
f 447 534 445
f 534 447 533
f 445 535 152
f 535 445 534
f 93 239 238
f 239 93 92
f 239 92 241
f 241 92 142
f 142 243 241
f 243 142 147
f 243 147 245
f 245 147 1
f 245 1 247
f 247 1 3
f 247 3 249
f 249 3 9
f 249 48 253
f 48 249 9
f 255 46 45
f 255 45 254
f 45 257 254
f 257 45 114
f 650 1032 800
f 1032 650 905
f 1032 905 1033
f 949 1033 905
f 949 1034 1033
f 1034 949 950
f 950 830 1038
f 1038 1034 950
f 1038 830 1039
f 829 1039 830
f 1039 829 1040
f 831 1040 829
f 1040 860 1044
f 860 1040 831
f 862 1047 1048
f 862 1048 863
f 919 1050 862
f 1050 1047 862
f 505 378 238
f 238 378 93
f 507 378 505
f 378 507 379
f 379 507 510
f 510 436 379
f 511 436 510
f 436 511 437
f 511 513 437
f 513 275 437
f 275 513 516
f 516 274 275
f 274 516 517
f 517 276 274
f 517 316 276
f 316 517 518
f 523 318 320
f 318 523 522
f 318 522 405
f 522 525 405
f 648 650 800
f 648 800 801
f 648 802 646
f 802 648 801
f 646 804 710
f 804 646 802
f 710 805 715
f 805 710 804
f 715 808 552
f 808 715 805
f 552 810 550
f 810 552 808
f 550 811 557
f 811 550 810
f 595 811 816
f 811 595 557
f 593 818 592
f 817 592 818
f 680 817 820
f 817 680 592
