# generated by normalize_glyphs.py from glyph_1.obj
# x=width y=cap-height(0.103) z=thickness(0.025), metres, centred
v -0.021057 0.030566 -0.011821
v 0.020963 0.048655 -0.011821
v -0.021057 0.048655 -0.011821
v -0.001578 0.030566 -0.011821
v 0.020963 -0.048743 -0.011821
v -0.001578 -0.048743 -0.011821
v -0.021057 0.030566 0.011821
v -0.021057 0.048655 0.011821
v 0.020963 0.048655 0.011821
v -0.001578 0.030566 0.011821
v 0.020963 -0.048743 0.011821
v -0.001578 -0.048743 0.011821
v 0.021655 0.049347 0.011741
v -0.021057 0.048655 0.011821
v -0.021750 0.049347 0.011741
v 0.022280 0.049972 0.011509
v -0.022374 0.049972 0.011509
v 0.022776 0.050468 0.011149
v -0.022870 0.050468 0.011149
v 0.023094 0.050786 0.010694
v -0.023188 0.050786 0.010694
v 0.023204 0.050895 0.010190
v -0.023298 0.050895 0.010190
v 0.023204 0.050895 -0.010190
v -0.023298 0.050895 -0.010190
v 0.023094 0.050786 -0.010694
v -0.023188 0.050786 -0.010694
v 0.022776 0.050468 -0.011149
v -0.022870 0.050468 -0.011149
v 0.022280 0.049972 -0.011509
v -0.022374 0.049972 -0.011509
v 0.021655 0.049347 -0.011741
v -0.021750 0.049347 -0.011741
v -0.021057 0.048655 -0.011821
v 0.021655 -0.049436 0.011741
v 0.020963 0.048655 0.011821
v 0.022280 -0.050061 0.011509
v 0.022776 -0.050556 0.011149
v 0.023094 -0.050875 0.010694
v 0.023204 -0.050984 -0.010190
v 0.022776 -0.050556 -0.011149
v 0.022280 -0.050061 -0.011509
v 0.021655 -0.049436 -0.011741
v 0.020963 -0.048743 -0.011821
v 0.020963 0.048655 -0.011821
v -0.001578 -0.048743 0.011821
v 0.020963 -0.048743 0.011821
v -0.002895 -0.050061 0.011509
v -0.003390 -0.050556 0.011149
v -0.003709 -0.050875 0.010694
v -0.003818 -0.050984 0.010190
v 0.023204 -0.050984 0.010190
v -0.003818 -0.050984 -0.010190
v -0.003709 -0.050875 -0.010694
v 0.023094 -0.050875 -0.010694
v -0.003390 -0.050556 -0.011149
v -0.002895 -0.050061 -0.011509
v -0.002270 -0.049436 -0.011741
v -0.001578 -0.048743 -0.011821
v -0.002270 0.029874 0.011741
v -0.002270 -0.049436 0.011741
v -0.002895 0.029249 0.011509
v -0.003390 0.028754 0.011149
v -0.003709 0.028435 0.010694
v -0.003818 0.028326 0.010190
v -0.003818 0.028326 -0.010190
v -0.003709 0.028435 -0.010694
v -0.003390 0.028754 -0.011149
v -0.002895 0.029249 -0.011509
v -0.002270 0.029874 -0.011741
v -0.021057 0.030566 0.011821
v -0.001578 0.030566 0.011821
v -0.021750 0.029874 0.011741
v -0.022374 0.029249 0.011509
v -0.022870 0.028754 0.011149
v -0.023188 0.028435 0.010694
v -0.023298 0.028326 -0.010190
v -0.023188 0.028435 -0.010694
v -0.022870 0.028754 -0.011149
v -0.022374 0.029249 -0.011509
v -0.021750 0.029874 -0.011741
v -0.021057 0.030566 -0.011821
v -0.001578 0.030566 -0.011821
v -0.023298 0.028326 0.010190
v -0.021010 0.030611 -0.011549
v 0.021010 0.048699 -0.011549
v -0.021010 0.048699 -0.011549
v -0.001531 0.030611 -0.011549
v 0.021010 -0.048699 -0.011549
v -0.001531 -0.048699 -0.011549
v -0.021010 0.030611 0.011549
v -0.021010 0.048699 0.011549
v 0.021010 0.048699 0.011549
v -0.001531 0.030611 0.011549
v 0.021010 -0.048699 0.011549
v -0.001531 -0.048699 0.011549
v -0.021876 0.049565 0.011449
v 0.021010 0.048699 0.011549
v -0.021010 0.048699 0.011549
v 0.022657 0.050345 0.011160
v -0.022657 0.050345 0.011160
v 0.023276 0.050965 0.010709
v -0.023276 0.050965 0.010709
v 0.023674 0.051363 0.010141
v -0.023674 0.051363 0.010141
v 0.023811 0.051500 0.009511
v -0.023811 0.051500 0.009511
v 0.023811 0.051500 -0.009511
v -0.023811 0.051500 -0.009511
v 0.023674 0.051363 -0.010141
v -0.023674 0.051363 -0.010141
v 0.023276 0.050965 -0.010709
v -0.023276 0.050965 -0.010709
v 0.022657 0.050345 -0.011160
v -0.022657 0.050345 -0.011160
v 0.021876 0.049565 -0.011449
v -0.021876 0.049565 -0.011449
v 0.021010 0.048699 -0.011549
v -0.021010 0.048699 -0.011549
v 0.021876 -0.049565 0.011449
v 0.021876 0.049565 0.011449
v 0.022657 -0.050345 0.011160
v 0.023276 -0.050965 0.010709
v 0.023674 -0.051363 0.010141
v 0.023811 -0.051500 0.009511
v 0.023811 -0.051500 -0.009511
v 0.023674 -0.051363 -0.010141
v 0.023276 -0.050965 -0.010709
v 0.022657 -0.050345 -0.011160
v 0.021876 -0.049565 -0.011449
v 0.021010 -0.048699 -0.011549
v -0.002396 -0.049565 0.011449
v 0.021010 -0.048699 0.011549
v -0.003177 -0.050345 0.011160
v -0.003797 -0.050965 0.010709
v -0.004194 -0.051363 0.010141
v -0.004331 -0.051500 0.009511
v -0.004331 -0.051500 -0.009511
v -0.004194 -0.051363 -0.010141
v -0.003797 -0.050965 -0.010709
v -0.003177 -0.050345 -0.011160
v -0.002396 -0.049565 -0.011449
v -0.002396 0.029745 0.011449
v -0.001531 -0.048699 0.011549
v -0.003177 0.028965 0.011160
v -0.003797 0.028345 0.010709
v -0.004194 0.027947 0.010141
v -0.004331 0.027810 0.009511
v -0.004331 0.027810 -0.009511
v -0.004194 0.027947 -0.010141
v -0.003797 0.028345 -0.010709
v -0.003177 0.028965 -0.011160
v -0.001531 -0.048699 -0.011549
v -0.002396 0.029745 -0.011449
v -0.021010 0.030611 0.011549
v -0.001531 0.030611 0.011549
v -0.021876 0.029745 0.011449
v -0.022657 0.028965 0.011160
v -0.023276 0.028345 0.010709
v -0.023674 0.027947 0.010141
v -0.023811 0.027810 -0.009511
v -0.023674 0.027947 -0.010141
v -0.023276 0.028345 -0.010709
v -0.022657 0.028965 -0.011160
v -0.021876 0.029745 -0.011449
v -0.021010 0.030611 -0.011549
v -0.001531 0.030611 -0.011549
v -0.023811 0.027810 0.009511
v -0.021179 0.030451 -0.012500
v 0.020842 0.048540 -0.012500
v -0.021179 0.048540 -0.012500
v -0.001699 0.030451 -0.012500
v 0.020842 -0.048858 -0.012500
v -0.001699 -0.048858 -0.012500
v -0.021179 0.030451 0.012500
v -0.021179 0.048540 0.012500
v 0.020842 0.048540 0.012500
v -0.001699 0.030451 0.012500
v 0.020842 -0.048858 0.012500
v -0.001699 -0.048858 0.012500
v 0.021130 0.048828 0.012467
v -0.021179 0.048540 0.012500
v -0.021467 0.048828 0.012467
v 0.021390 0.049088 0.012370
v -0.021727 0.049088 0.012370
v -0.021934 0.049295 0.012220
v 0.021730 0.049428 0.012031
v -0.022067 0.049428 0.012031
v 0.021775 0.049473 0.011821
v -0.022112 0.049473 0.011821
v 0.021775 0.049473 -0.011821
v -0.022112 0.049473 -0.011821
v 0.021730 0.049428 -0.012031
v -0.022067 0.049428 -0.012031
v 0.021597 0.049295 -0.012220
v -0.021934 0.049295 -0.012220
v -0.021727 0.049088 -0.012370
v 0.021130 0.048828 -0.012467
v -0.021467 0.048828 -0.012467
v 0.020842 0.048540 -0.012500
v -0.021179 0.048540 -0.012500
v 0.021130 -0.049147 0.012467
v 0.020842 0.048540 0.012500
v 0.021390 -0.049407 0.012370
v 0.021597 -0.049614 0.012220
v 0.021597 0.049295 0.012220
v 0.021730 -0.049746 0.012031
v 0.021775 -0.049792 0.011821
v 0.021775 -0.049792 -0.011821
v 0.021730 -0.049746 -0.012031
v 0.021597 -0.049614 -0.012220
v 0.021390 -0.049407 -0.012370
v 0.021390 0.049088 -0.012370
v 0.021130 -0.049147 -0.012467
v 0.020842 -0.048858 -0.012500
v -0.001988 -0.049147 0.012467
v 0.020842 -0.048858 0.012500
v -0.002248 -0.049407 0.012370
v -0.002454 -0.049614 0.012220
v -0.002587 -0.049746 0.012031
v -0.002633 -0.049792 0.011821
v -0.002633 -0.049792 -0.011821
v -0.002587 -0.049746 -0.012031
v -0.002454 -0.049614 -0.012220
v -0.002248 -0.049407 -0.012370
v -0.001988 -0.049147 -0.012467
v -0.001699 -0.048858 -0.012500
v -0.001988 0.030163 0.012467
v -0.001699 -0.048858 0.012500
v -0.002248 0.029903 0.012370
v -0.002454 0.029696 0.012220
v -0.002587 0.029564 0.012031
v -0.002633 0.029518 0.011821
v -0.002633 0.029518 -0.011821
v -0.002587 0.029564 -0.012031
v -0.002454 0.029696 -0.012220
v -0.002248 0.029903 -0.012370
v -0.001988 0.030163 -0.012467
v -0.021179 0.030451 0.012500
v -0.001699 0.030451 0.012500
v -0.021467 0.030163 0.012467
v -0.021727 0.029903 0.012370
v -0.021934 0.029696 0.012220
v -0.022067 0.029564 0.012031
v -0.022112 0.029518 -0.011821
v -0.022067 0.029564 -0.012031
v -0.021934 0.029696 -0.012220
v -0.021727 0.029903 -0.012370
v -0.021467 0.030163 -0.012467
v -0.021179 0.030451 -0.012500
v -0.001699 0.030451 -0.012500
v -0.022112 0.029518 0.011821
f 1 2 3
f 1 4 2
f 4 5 2
f 6 5 4
f 7 8 9
f 7 9 10
f 10 9 11
f 12 10 11
f 13 14 15
f 16 15 17
f 18 17 19
f 20 19 21
f 22 21 23
f 24 23 25
f 26 25 27
f 28 27 29
f 30 29 31
f 32 31 33
f 34 32 33
f 35 36 13
f 37 13 16
f 38 16 18
f 20 38 18
f 22 39 20
f 40 22 24
f 26 40 24
f 41 26 28
f 42 28 30
f 43 30 32
f 44 32 45
f 35 46 47
f 48 35 37
f 49 37 38
f 50 38 39
f 51 39 52
f 53 52 40
f 54 40 55
f 56 55 41
f 57 41 42
f 58 42 43
f 59 43 44
f 60 46 61
f 62 61 48
f 63 48 49
f 64 49 50
f 65 50 51
f 66 51 53
f 54 66 53
f 56 67 54
f 57 68 56
f 58 69 57
f 59 70 58
f 60 71 72
f 62 73 60
f 63 74 62
f 64 75 63
f 65 76 64
f 77 65 66
f 78 66 67
f 79 67 68
f 80 68 69
f 81 69 70
f 82 70 83
f 15 71 73
f 74 15 73
f 75 17 74
f 21 75 76
f 84 21 76
f 25 84 77
f 27 77 78
f 79 27 78
f 31 79 80
f 33 80 81
f 82 33 81
f 13 36 14
f 16 13 15
f 18 16 17
f 20 18 19
f 22 20 21
f 24 22 23
f 26 24 25
f 28 26 27
f 30 28 29
f 32 30 31
f 34 45 32
f 35 47 36
f 37 35 13
f 38 37 16
f 20 39 38
f 22 52 39
f 40 52 22
f 26 55 40
f 41 55 26
f 42 41 28
f 43 42 30
f 44 43 32
f 35 61 46
f 48 61 35
f 49 48 37
f 50 49 38
f 51 50 39
f 53 51 52
f 54 53 40
f 56 54 55
f 57 56 41
f 58 57 42
f 59 58 43
f 60 72 46
f 62 60 61
f 63 62 48
f 64 63 49
f 65 64 50
f 66 65 51
f 54 67 66
f 56 68 67
f 57 69 68
f 58 70 69
f 59 83 70
f 60 73 71
f 62 74 73
f 63 75 74
f 64 76 75
f 65 84 76
f 77 84 65
f 78 77 66
f 79 78 67
f 80 79 68
f 81 80 69
f 82 81 70
f 15 14 71
f 74 17 15
f 75 19 17
f 21 19 75
f 84 23 21
f 25 23 84
f 27 25 77
f 79 29 27
f 31 29 79
f 33 31 80
f 82 34 33
f 85 86 87
f 85 88 86
f 88 89 86
f 90 89 88
f 91 92 93
f 91 93 94
f 94 93 95
f 96 94 95
f 97 98 99
f 100 97 101
f 102 101 103
f 104 103 105
f 106 105 107
f 108 107 109
f 110 109 111
f 112 111 113
f 114 113 115
f 116 115 117
f 118 117 119
f 120 98 121
f 122 121 100
f 123 100 102
f 124 102 104
f 125 104 106
f 126 106 108
f 127 108 110
f 128 110 112
f 129 112 114
f 130 114 116
f 131 116 118
f 132 133 120
f 134 120 122
f 135 122 123
f 136 123 124
f 137 124 125
f 138 125 126
f 139 126 127
f 140 127 128
f 141 128 129
f 142 129 130
f 131 142 130
f 143 144 132
f 145 132 134
f 146 134 135
f 147 135 136
f 148 136 137
f 138 148 137
f 139 149 138
f 140 150 139
f 141 151 140
f 142 152 141
f 153 154 142
f 143 155 156
f 145 157 143
f 146 158 145
f 147 159 146
f 148 160 147
f 161 148 149
f 162 149 150
f 163 150 151
f 164 151 152
f 165 152 154
f 166 154 167
f 157 99 155
f 101 157 158
f 103 158 159
f 105 159 160
f 168 105 160
f 109 168 161
f 111 161 162
f 163 111 162
f 115 163 164
f 117 164 165
f 119 165 166
f 97 121 98
f 100 121 97
f 102 100 101
f 104 102 103
f 106 104 105
f 108 106 107
f 110 108 109
f 112 110 111
f 114 112 113
f 116 114 115
f 118 116 117
f 120 133 98
f 122 120 121
f 123 122 100
f 124 123 102
f 125 124 104
f 126 125 106
f 127 126 108
f 128 127 110
f 129 128 112
f 130 129 114
f 131 130 116
f 132 144 133
f 134 132 120
f 135 134 122
f 136 135 123
f 137 136 124
f 138 137 125
f 139 138 126
f 140 139 127
f 141 140 128
f 142 141 129
f 131 153 142
f 143 156 144
f 145 143 132
f 146 145 134
f 147 146 135
f 148 147 136
f 138 149 148
f 139 150 149
f 140 151 150
f 141 152 151
f 142 154 152
f 153 167 154
f 143 157 155
f 145 158 157
f 146 159 158
f 147 160 159
f 148 168 160
f 161 168 148
f 162 161 149
f 163 162 150
f 164 163 151
f 165 164 152
f 166 165 154
f 157 97 99
f 101 97 157
f 103 101 158
f 105 103 159
f 168 107 105
f 109 107 168
f 111 109 161
f 163 113 111
f 115 113 163
f 117 115 164
f 119 117 165
f 169 170 171
f 169 172 170
f 172 173 170
f 174 173 172
f 175 176 177
f 175 177 178
f 178 177 179
f 180 178 179
f 181 182 183
f 184 183 185
f 186 184 185
f 187 186 188
f 189 188 190
f 191 190 192
f 193 192 194
f 195 194 196
f 197 195 196
f 198 197 199
f 200 199 201
f 202 203 181
f 204 181 184
f 205 184 206
f 207 206 187
f 208 187 189
f 209 189 191
f 210 191 193
f 211 193 195
f 212 195 213
f 214 213 198
f 215 198 200
f 216 217 202
f 218 202 204
f 219 204 205
f 220 205 207
f 221 207 208
f 222 208 209
f 223 209 210
f 224 210 211
f 225 211 212
f 226 212 214
f 227 214 215
f 228 229 216
f 230 216 218
f 231 218 219
f 232 219 220
f 233 220 221
f 234 221 222
f 223 234 222
f 224 235 223
f 225 236 224
f 226 237 225
f 227 238 226
f 228 239 240
f 230 241 228
f 231 242 230
f 232 243 231
f 233 244 232
f 245 233 234
f 246 234 235
f 247 235 236
f 248 236 237
f 249 237 238
f 250 238 251
f 183 239 241
f 185 241 242
f 186 242 243
f 188 243 244
f 252 188 244
f 192 252 245
f 194 245 246
f 196 246 247
f 248 196 247
f 249 197 248
f 201 249 250
f 181 203 182
f 184 181 183
f 186 206 184
f 187 206 186
f 189 187 188
f 191 189 190
f 193 191 192
f 195 193 194
f 197 213 195
f 198 213 197
f 200 198 199
f 202 217 203
f 204 202 181
f 205 204 184
f 207 205 206
f 208 207 187
f 209 208 189
f 210 209 191
f 211 210 193
f 212 211 195
f 214 212 213
f 215 214 198
f 216 229 217
f 218 216 202
f 219 218 204
f 220 219 205
f 221 220 207
f 222 221 208
f 223 222 209
f 224 223 210
f 225 224 211
f 226 225 212
f 227 226 214
f 228 240 229
f 230 228 216
f 231 230 218
f 232 231 219
f 233 232 220
f 234 233 221
f 223 235 234
f 224 236 235
f 225 237 236
f 226 238 237
f 227 251 238
f 228 241 239
f 230 242 241
f 231 243 242
f 232 244 243
f 233 252 244
f 245 252 233
f 246 245 234
f 247 246 235
f 248 247 236
f 249 248 237
f 250 249 238
f 183 182 239
f 185 183 241
f 186 185 242
f 188 186 243
f 252 190 188
f 192 190 252
f 194 192 245
f 196 194 246
f 248 197 196
f 249 199 197
f 201 199 249
