# generated by normalize_glyphs.py from glyph_i.obj
# x=width y=cap-height(0.103) z=thickness(0.025), metres, centred
v 0.014766 0.050768 0.012055
v 0.014932 0.050414 0.011821
v 0.014842 0.050776 0.011821
v 0.014932 0.050414 0.011821
v 0.014766 0.050768 0.012055
v 0.014842 0.050414 0.012060
v 0.014932 0.048863 0.011821
v 0.014842 0.048863 0.012060
v 0.014932 0.050414 0.011821
v 0.014932 0.048863 0.011049
v 0.014932 0.050414 0.011049
v 0.014932 0.048863 0.011821
v 0.014842 0.050776 0.011821
v 0.014842 0.050776 0.011049
v 0.012145 0.050776 0.012446
v 0.013694 0.050414 0.012500
v 0.013694 0.050776 0.012446
v 0.012145 0.050414 0.012500
v 0.013694 0.048863 0.012500
v 0.012145 0.048863 0.012500
v 0.014170 0.048863 0.012446
v 0.014170 0.050414 0.012446
v 0.014162 0.050768 0.012401
v 0.014162 0.030973 0.012055
v 0.013694 0.030807 0.011821
v 0.014170 0.030898 0.011821
v 0.013694 0.030807 0.011821
v 0.014162 0.030973 0.012055
v 0.013694 0.030898 0.012060
v 0.012145 0.030898 0.012060
v 0.012145 0.030807 0.011821
v 0.013694 0.030807 0.011821
v 0.012145 0.030807 0.011821
v 0.013694 0.030807 0.011049
v 0.012145 0.030807 0.011049
v 0.014170 0.030898 0.011821
v 0.014170 0.030898 0.011049
v 0.013694 0.051409 0.012060
v 0.012145 0.051500 0.011821
v 0.012145 0.051409 0.012060
v 0.013694 0.051500 0.011821
v 0.014162 0.051334 0.012055
v 0.013694 0.051500 0.011821
v 0.014162 0.051334 0.012055
v 0.014170 0.051409 0.011821
v 0.013694 0.051500 0.011821
v 0.014170 0.051409 0.011049
v 0.013694 0.051500 0.011049
v 0.014170 0.051409 0.011821
v 0.012145 0.051500 0.011821
v 0.012145 0.051500 0.011049
v -0.014841 0.050414 0.012060
v -0.014932 0.048863 0.011821
v -0.014841 0.048863 0.012060
v -0.014932 0.050414 0.011821
v -0.014766 0.050768 0.012055
v -0.014932 0.050414 0.011821
v -0.014766 0.050768 0.012055
v -0.014841 0.050776 0.011821
v -0.014932 0.050414 0.011049
v -0.014932 0.050414 0.011821
v -0.014841 0.050776 0.011821
v -0.014841 0.050776 0.011049
v -0.014932 0.048863 0.011049
v -0.014932 0.048863 0.011821
v 0.013819 -0.051499 0.010933
v 0.013819 -0.051499 -0.000060
v 0.014201 -0.051408 0.010933
v 0.014201 -0.051408 -0.000060
v 0.012391 -0.051499 0.010933
v 0.012391 -0.051499 -0.000060
v 0.014194 0.030838 0.012401
v 0.013819 0.030838 0.012500
v 0.014201 0.030838 0.012446
v 0.013819 0.030838 0.012446
v 0.012391 0.030838 0.012446
v 0.012391 0.030838 0.012500
v 0.013819 0.020439 0.012500
v 0.012391 0.020439 0.012500
v 0.014201 0.020439 0.012446
v -0.014867 0.030838 0.010933
v -0.014867 0.020438 -0.000060
v -0.014867 0.020438 0.010933
v -0.014867 0.030838 -0.000060
v -0.014776 0.030838 0.010933
v -0.014776 0.030838 -0.000060
v 0.013819 0.030838 0.010933
v 0.013819 0.030838 -0.000060
v 0.012391 0.030838 0.010933
v 0.012391 0.030838 -0.000060
v 0.014201 0.030838 0.010933
v 0.014201 0.030838 -0.000060
v 0.014932 0.030838 0.010933
v 0.014932 0.030838 -0.000060
v 0.014842 0.030838 0.010933
v 0.014842 0.030838 -0.000060
v 0.014932 0.020439 0.010933
v 0.014932 0.020439 -0.000060
v 0.014540 0.031200 0.012042
v 0.014540 0.031200 0.012042
v 0.014170 0.030898 0.011821
v 0.014570 0.031169 0.011821
v 0.014570 0.031169 0.011821
v 0.014570 0.031169 0.011049
v 0.014842 0.031568 0.011821
v 0.014842 0.031568 0.011049
v 0.014540 0.031200 0.012042
v 0.014842 0.031568 0.011821
v 0.014766 0.031575 0.012055
v 0.014842 0.031568 0.011821
v 0.014842 0.048863 0.012060
v 0.014842 0.050414 0.012060
v 0.014570 0.048863 0.012284
v 0.014570 0.050414 0.012284
v 0.014540 0.050746 0.012266
v 0.014766 0.050768 0.012055
v 0.013694 0.031568 0.012446
v 0.014140 0.031200 0.012266
v 0.014162 0.031575 0.012401
v 0.013694 0.031169 0.012284
v 0.012145 0.031169 0.012284
v 0.012145 0.031568 0.012446
v 0.012145 0.030898 0.012060
v 0.013694 0.030898 0.012060
v 0.014162 0.030973 0.012055
v 0.014540 0.051108 0.012042
v 0.014540 0.051108 0.012042
v 0.014842 0.050776 0.011821
v 0.014570 0.051138 0.011821
v 0.014570 0.051138 0.011821
v 0.014570 0.051138 0.011049
v 0.014540 0.051108 0.012042
v 0.014170 0.051409 0.011821
v 0.013694 0.051138 0.012284
v 0.014140 0.051108 0.012266
v 0.013694 0.051409 0.012060
v 0.014162 0.051334 0.012055
v 0.012145 0.051409 0.012060
v 0.012145 0.051138 0.012284
v -0.014766 0.031575 0.012055
v -0.014842 0.031568 0.011821
v -0.014540 0.031200 0.012042
v -0.014540 0.031200 0.012042
v -0.014842 0.031568 0.011821
v -0.014570 0.031169 0.011821
v -0.014570 0.031169 0.011049
v -0.014570 0.031169 0.011821
v -0.014842 0.031568 0.011821
v -0.014842 0.031568 0.011049
v -0.014203 0.030898 0.011821
v -0.014203 0.030898 0.011049
v -0.014540 0.031200 0.012042
v -0.014203 0.030898 0.011821
v -0.014195 0.030973 0.012055
v -0.014203 0.030898 0.011821
v -0.014570 0.050414 0.012284
v -0.014203 0.048863 0.012446
v -0.014203 0.050414 0.012446
v -0.014570 0.048863 0.012284
v -0.014540 0.050746 0.012266
v -0.014195 0.050768 0.012401
v -0.014841 0.050414 0.012060
v -0.014766 0.050768 0.012055
v -0.014841 0.048863 0.012060
v -0.014195 0.051334 0.012055
v -0.014203 0.051409 0.011821
v -0.014540 0.051108 0.012042
v -0.014540 0.051108 0.012042
v -0.014203 0.051409 0.011821
v -0.014570 0.051138 0.011821
v -0.014570 0.051138 0.011049
v -0.014570 0.051138 0.011821
v -0.014203 0.051409 0.011821
v -0.014203 0.051409 0.011049
v -0.014841 0.050776 0.011049
v -0.014841 0.050776 0.011821
v -0.014540 0.051108 0.012042
v -0.014841 0.050776 0.011821
v -0.014776 -0.050741 0.010933
v -0.014504 -0.051138 -0.000060
v -0.014504 -0.051138 0.010933
v -0.014776 -0.050741 -0.000060
v -0.014132 -0.051409 0.010933
v -0.014132 -0.051409 -0.000060
v 0.012391 -0.051408 0.012041
v 0.013819 -0.051408 0.012041
v 0.012391 -0.051137 0.012284
v 0.013819 -0.051137 0.012284
v 0.014171 -0.051106 0.012266
v 0.014194 -0.051333 0.012036
v 0.013819 -0.050740 0.012446
v 0.014194 -0.050732 0.012401
v 0.012391 -0.050740 0.012446
v -0.014504 0.030838 0.012284
v -0.014132 0.020438 0.012446
v -0.014132 0.030838 0.012446
v -0.014504 0.020438 0.012284
v -0.014474 0.030838 0.012266
v -0.014124 0.030838 0.012401
v -0.014776 0.030838 0.012041
v -0.014701 0.030838 0.012036
v -0.014776 0.020438 0.012041
v -0.014132 0.030838 0.010933
v -0.014132 0.030838 -0.000060
v -0.014504 0.030838 0.010933
v -0.014504 0.030838 -0.000060
v 0.012391 0.030838 0.012284
v 0.013819 0.030838 0.012284
v 0.014171 0.030838 0.012266
v 0.013819 0.030838 0.012041
v 0.014194 0.030838 0.012036
v 0.012391 0.030838 0.012041
v 0.014570 -0.051137 -0.000060
v 0.014570 -0.051137 0.010933
v 0.014842 -0.050740 0.010933
v 0.014842 -0.050740 -0.000060
v 0.014842 0.020439 0.012041
v 0.014570 0.030838 0.012284
v 0.014570 0.020439 0.012284
v 0.014842 0.030838 0.012041
v 0.014540 0.030838 0.012266
v 0.014766 0.030838 0.012036
v 0.014570 0.030838 0.010933
v 0.014570 0.030838 -0.000060
v 0.014449 0.031290 0.012212
v 0.014766 0.031575 0.012055
v 0.014540 0.031598 0.012266
v 0.014540 0.031200 0.012042
v 0.014449 0.051017 0.012212
v 0.014540 0.051108 0.012042
v -0.014449 0.031290 0.012212
v -0.014195 0.030973 0.012055
v -0.014173 0.031200 0.012266
v -0.014540 0.031200 0.012042
v -0.014195 0.031575 0.012401
v -0.014540 0.031598 0.012266
v -0.014766 0.031575 0.012055
v -0.014449 0.051017 0.012212
v -0.014540 0.051108 0.012042
v -0.014172 0.051108 0.012266
v -0.014195 0.051334 0.012055
v -0.014384 -0.051017 0.012212
v -0.014124 -0.051334 0.012036
v -0.014102 -0.051108 0.012266
v -0.014474 -0.051108 0.012023
v -0.014124 -0.050734 0.012401
v -0.014474 -0.050711 0.012266
v -0.014701 -0.050734 0.012036
v -0.014384 0.030838 0.012212
v -0.014474 0.030838 0.012023
v -0.014102 0.030838 0.012266
v -0.014124 0.030838 0.012036
v 0.014449 -0.051016 0.012212
v 0.014766 -0.050732 0.012036
v 0.014540 -0.050710 0.012266
v 0.014540 -0.051106 0.012023
v 0.014449 0.030838 0.012212
v 0.014540 0.030838 0.012023
v -0.014932 0.048863 -0.000060
v -0.014932 0.050414 -0.000060
v -0.014841 0.050776 -0.000060
v -0.014842 0.031568 -0.000060
v -0.014570 0.031169 -0.000060
v -0.014203 0.030898 -0.000060
v 0.013694 0.030807 -0.000060
v 0.014170 0.030898 -0.000060
v 0.012145 0.030807 -0.000060
v 0.014570 0.031169 -0.000060
v 0.014842 0.031568 -0.000060
v 0.014932 0.050414 -0.000060
v 0.014842 0.050776 -0.000060
v 0.014932 0.048863 -0.000060
v 0.014570 0.051138 -0.000060
v 0.014170 0.051409 -0.000060
v 0.013694 0.051500 -0.000060
v 0.012145 0.051500 -0.000060
v -0.014203 0.051409 -0.000060
v -0.014570 0.051138 -0.000060
v -0.014841 0.050776 -0.000060
v -0.014932 0.033697 -0.000060
v -0.014932 0.033697 0.011049
v -0.014842 0.033697 0.012060
v -0.014932 0.033697 0.011821
v -0.014932 0.033697 0.011821
v -0.014203 0.033697 0.012446
v -0.014570 0.033697 0.012284
v -0.014842 0.033697 0.012060
v 0.013694 0.033697 0.012500
v 0.012145 0.033697 0.012500
v 0.014170 0.033697 0.012446
v 0.014570 0.033697 0.012284
v 0.014842 0.033697 0.012060
v 0.014842 0.033697 0.012060
v 0.014932 0.033697 0.011821
v 0.014932 0.033697 0.011049
v 0.014932 0.033697 0.011821
v 0.014932 0.033697 -0.000060
v -0.013825 0.051500 0.011049
v -0.013825 0.051500 -0.000060
v -0.012419 0.051500 0.011049
v -0.012419 0.051500 -0.000060
v -0.013825 0.051500 0.011821
v -0.013825 0.051500 0.011821
v -0.014195 0.051334 0.012055
v -0.013825 0.051409 0.012060
v -0.012419 0.051500 0.011821
v -0.012419 0.051409 0.012060
v -0.013825 0.051500 0.011821
v -0.012419 0.051500 0.011821
v -0.012419 0.051409 0.012060
v -0.013825 0.051409 0.012060
v -0.012419 0.051138 0.012284
v -0.013825 0.051138 0.012284
v -0.013825 0.050776 0.012446
v -0.012419 0.050776 0.012446
v -0.012419 0.050414 0.012500
v -0.013825 0.050414 0.012500
v -0.013825 0.048863 0.012500
v -0.012419 0.048863 0.012500
v -0.012420 0.033697 0.012500
v -0.013826 0.033697 0.012500
v -0.013826 0.031568 0.012446
v -0.012420 0.031169 0.012284
v -0.012420 0.031568 0.012446
v -0.013826 0.031169 0.012284
v -0.013826 0.030898 0.012060
v -0.012420 0.030898 0.012060
v -0.013826 0.030898 0.012060
v -0.012420 0.030807 0.011821
v -0.012420 0.030898 0.012060
v -0.013826 0.030807 0.011821
v -0.014195 0.030973 0.012055
v -0.013826 0.030807 0.011821
v -0.013826 0.030807 0.011049
v -0.013826 0.030807 0.011821
v -0.012420 0.030807 0.011821
v -0.012420 0.030807 0.011049
v -0.013826 0.030807 -0.000060
v -0.012420 0.030807 -0.000060
v 0.013819 0.030838 0.012041
v 0.012391 0.030838 0.011743
v 0.012391 0.030838 0.012041
v 0.013819 0.030838 0.011743
v 0.014194 0.030838 0.012036
v 0.014201 0.030838 0.011743
v 0.013819 0.030838 0.011743
v 0.014201 0.030838 0.011743
v 0.012391 0.030838 0.011743
v 0.014766 0.030838 0.012036
v 0.014842 0.030838 0.011743
v 0.014540 0.030838 0.012023
v 0.014540 0.030838 0.012023
v 0.014842 0.030838 0.011743
v 0.014570 0.030838 0.011743
v 0.014570 0.030838 0.011743
v 0.014842 0.030838 0.011743
v 0.014540 0.030838 0.012023
v 0.014201 0.030838 0.011743
v 0.014932 0.030838 0.011743
v 0.014932 0.030838 0.011743
v 0.014932 0.030838 0.011743
v 0.014766 0.030838 0.012036
v 0.014842 0.030838 0.012041
v 0.014842 0.020439 0.012041
v 0.014932 0.020439 0.011743
v 0.014932 0.020439 0.011743
v 0.014194 -0.051333 0.012036
v 0.014201 -0.051408 0.011743
v 0.014540 -0.051106 0.012023
v 0.014540 -0.051106 0.012023
v 0.014201 -0.051408 0.011743
v 0.014570 -0.051137 0.011743
v 0.014570 -0.051137 0.011743
v 0.014201 -0.051408 0.011743
v 0.014842 -0.050740 0.011743
v 0.014540 -0.051106 0.012023
v 0.014842 -0.050740 0.011743
v 0.014766 -0.050732 0.012036
v 0.014842 -0.050740 0.011743
v 0.013819 -0.051499 0.011743
v 0.013819 -0.051499 0.011743
v 0.013819 -0.051408 0.012041
v 0.012391 -0.051408 0.012041
v 0.012391 -0.051499 0.011743
v 0.012391 -0.051499 0.011743
v -0.014701 -0.050734 0.012036
v -0.014776 -0.050741 0.011743
v -0.014474 -0.051108 0.012023
v -0.014474 -0.051108 0.012023
v -0.014776 -0.050741 0.011743
v -0.014504 -0.051138 0.011743
v -0.014504 -0.051138 0.011743
v -0.014776 -0.050741 0.011743
v -0.014132 -0.051409 0.011743
v -0.014474 -0.051108 0.012023
v -0.014132 -0.051409 0.011743
v -0.014124 -0.051334 0.012036
v -0.014132 -0.051409 0.011743
v -0.014867 0.030838 0.011743
v -0.014867 0.020438 0.011743
v -0.014776 0.020438 0.012041
v -0.014867 0.030838 0.011743
v -0.014867 0.020438 0.011743
v -0.014776 0.030838 0.012041
v -0.014701 0.030838 0.012036
v -0.014867 0.030838 0.011743
v -0.014701 0.030838 0.012036
v -0.014776 0.030838 0.011743
v -0.014776 0.030838 0.011743
v -0.014124 0.030838 0.012036
v -0.014132 0.030838 0.011743
v -0.014474 0.030838 0.012023
v -0.014474 0.030838 0.012023
v -0.014132 0.030838 0.011743
v -0.014504 0.030838 0.011743
v -0.014504 0.030838 0.011743
v -0.014132 0.030838 0.011743
v -0.014474 0.030838 0.012023
v -0.014776 0.030838 0.011743
v -0.014132 0.030838 0.010933
v -0.013738 0.030838 -0.000060
v -0.014132 0.030838 -0.000060
v -0.013738 0.030838 0.010933
v -0.012272 0.030838 0.010933
v -0.012272 0.030838 -0.000060
v -0.013738 0.030838 0.011743
v -0.013738 0.030838 0.012041
v -0.012272 0.030838 0.011743
v -0.012272 0.030838 0.012041
v -0.013738 0.030838 0.011743
v -0.012272 0.030838 0.011743
v -0.014132 0.030838 0.011743
v -0.013738 0.030838 0.012284
v -0.013738 0.030838 0.012446
v -0.012272 0.030838 0.012446
v -0.012272 0.030838 0.012284
v -0.012272 0.030838 0.012041
v -0.013738 0.030838 0.012041
v -0.012272 0.030838 0.012500
v -0.013738 0.030838 0.012500
v -0.013738 0.020438 0.012500
v -0.012272 0.020438 0.012500
v -0.013738 -0.051138 0.012284
v -0.013738 -0.051409 0.012041
v -0.012272 -0.051138 0.012284
v -0.012272 -0.051409 0.012041
v -0.013738 -0.050741 0.012446
v -0.012272 -0.050741 0.012446
v -0.012272 -0.051500 0.011743
v -0.013738 -0.051500 0.011743
v -0.013738 -0.051500 0.010933
v -0.012272 -0.051500 0.010933
v -0.013738 -0.051409 0.012041
v -0.012272 -0.051500 0.011743
v -0.012272 -0.051409 0.012041
v -0.013738 -0.051500 0.011743
v -0.013738 -0.051500 -0.000060
v -0.012272 -0.051500 -0.000060
v -0.014867 -0.048463 -0.000060
v -0.014867 -0.048463 0.010933
v -0.014867 -0.048463 0.011743
v -0.014776 -0.048463 0.012041
v -0.014867 -0.048463 0.011743
v -0.014132 -0.048463 0.012446
v -0.014504 -0.048463 0.012284
v -0.014776 -0.048463 0.012041
v -0.012272 -0.048462 0.012500
v -0.013738 -0.048463 0.012500
v 0.014201 -0.048461 0.012446
v 0.013819 -0.048461 0.012500
v 0.012391 -0.048461 0.012500
v 0.014842 -0.048461 0.012041
v 0.014570 -0.048461 0.012284
v 0.014932 -0.048461 0.010933
v 0.014932 -0.048461 0.011743
v 0.014842 -0.048461 0.012041
v 0.014932 -0.048461 0.011743
v 0.014932 -0.048461 -0.000060
v -0.014932 0.032038 -0.000060
v -0.014932 0.032038 0.011049
v -0.014932 0.032038 0.011821
v -0.014932 0.032038 0.011821
v -0.014766 0.031575 0.012055
v -0.014842 0.032038 0.012060
v -0.014932 0.032038 0.011821
v -0.014203 0.032038 0.012446
v -0.014570 0.032038 0.012284
v -0.014842 0.032038 0.012060
v -0.012420 0.032038 0.012500
v -0.013826 0.032038 0.012500
v 0.012145 0.032038 0.012500
v 0.013694 0.032038 0.012500
v 0.014170 0.032038 0.012446
v 0.014570 0.032038 0.012284
v 0.014842 0.032038 0.012060
v 0.014842 0.032038 0.012060
v 0.014932 0.032038 0.011821
v 0.014766 0.031575 0.012055
v 0.014932 0.032038 0.011821
v 0.014932 0.032038 0.011049
v 0.014932 0.032038 0.011821
v 0.014932 0.032038 -0.000060
v -0.014867 -0.050275 0.010933
v -0.014867 -0.050275 -0.000060
v -0.014867 -0.050275 0.011743
v -0.014867 -0.050275 0.011743
v -0.014867 -0.050275 0.011743
v -0.014701 -0.050734 0.012036
v -0.014776 -0.050275 0.012041
v -0.014132 -0.050275 0.012446
v -0.014504 -0.050275 0.012284
v -0.014776 -0.050275 0.012041
v -0.012272 -0.050275 0.012500
v -0.013738 -0.050275 0.012500
v 0.012391 -0.050274 0.012500
v 0.014201 -0.050274 0.012446
v 0.013819 -0.050274 0.012500
v 0.014570 -0.050274 0.012284
v 0.014842 -0.050274 0.012041
v 0.014932 -0.050274 0.011743
v 0.014932 -0.050274 0.010933
v 0.014932 -0.050274 0.011743
v 0.014842 -0.050274 0.012041
v 0.014766 -0.050732 0.012036
v 0.014932 -0.050274 0.011743
v 0.014842 -0.050740 0.011743
v 0.014842 -0.050740 0.010933
v 0.014932 -0.050274 -0.000060
v 0.014842 -0.050740 -0.000060
v 0.014932 0.050414 -0.011821
v 0.014766 0.050768 -0.012055
v 0.014842 0.050776 -0.011821
v 0.014766 0.050768 -0.012055
v 0.014932 0.050414 -0.011821
v 0.014842 0.050414 -0.012060
v 0.014932 0.048863 -0.011821
v 0.014842 0.048863 -0.012060
v 0.014932 0.048863 -0.011049
v 0.014932 0.050414 -0.011821
v 0.014932 0.050414 -0.011049
v 0.014932 0.048863 -0.011821
v 0.014842 0.050776 -0.011821
v 0.014842 0.050776 -0.011049
v 0.013694 0.050414 -0.012500
v 0.012145 0.050776 -0.012446
v 0.013694 0.050776 -0.012446
v 0.012145 0.050414 -0.012500
v 0.013694 0.048863 -0.012500
v 0.012145 0.048863 -0.012500
v 0.014170 0.048863 -0.012446
v 0.014170 0.050414 -0.012446
v 0.014162 0.050768 -0.012401
v 0.013694 0.030807 -0.011821
v 0.014162 0.030973 -0.012055
v 0.014170 0.030898 -0.011821
v 0.014162 0.030973 -0.012055
v 0.013694 0.030807 -0.011821
v 0.013694 0.030898 -0.012060
v 0.012145 0.030807 -0.011821
v 0.012145 0.030898 -0.012060
v 0.013694 0.030807 -0.011049
v 0.012145 0.030807 -0.011049
v 0.012145 0.030807 -0.011821
v 0.013694 0.030807 -0.011821
v 0.014170 0.030898 -0.011821
v 0.014170 0.030898 -0.011049
v 0.012145 0.051500 -0.011821
v 0.013694 0.051500 -0.011821
v 0.013694 0.051409 -0.012060
v 0.012145 0.051409 -0.012060
v 0.014162 0.051334 -0.012055
v 0.014162 0.051334 -0.012055
v 0.013694 0.051500 -0.011821
v 0.014170 0.051409 -0.011821
v 0.014170 0.051409 -0.011049
v 0.013694 0.051500 -0.011821
v 0.013694 0.051500 -0.011049
v 0.014170 0.051409 -0.011821
v 0.012145 0.051500 -0.011049
v 0.012145 0.051500 -0.011821
v -0.014841 0.050414 -0.012060
v -0.014932 0.048863 -0.011821
v -0.014932 0.050414 -0.011821
v -0.014841 0.048863 -0.012060
v -0.014766 0.050768 -0.012055
v -0.014766 0.050768 -0.012055
v -0.014932 0.050414 -0.011821
v -0.014841 0.050776 -0.011821
v -0.014841 0.050776 -0.011049
v -0.014841 0.050776 -0.011821
v -0.014932 0.050414 -0.011049
v -0.014932 0.050414 -0.011821
v -0.014932 0.048863 -0.011049
v -0.014932 0.048863 -0.011821
v 0.013819 -0.051499 -0.000060
v 0.014201 -0.051408 -0.010933
v 0.014201 -0.051408 -0.000060
v 0.013819 -0.051499 -0.010933
v 0.012391 -0.051499 -0.010933
v 0.012391 -0.051499 -0.000060
v 0.013819 0.030838 -0.012500
v 0.014194 0.030838 -0.012401
v 0.014201 0.030838 -0.012446
v 0.013819 0.030838 -0.012446
v 0.012391 0.030838 -0.012446
v 0.012391 0.030838 -0.012500
v 0.013819 0.020439 -0.012500
v 0.012391 0.020439 -0.012500
v 0.014201 0.020439 -0.012446
v -0.014867 0.020438 -0.000060
v -0.014867 0.030838 -0.010933
v -0.014867 0.020438 -0.010933
v -0.014867 0.030838 -0.000060
v -0.014776 0.030838 -0.010933
v -0.014776 0.030838 -0.000060
v 0.013819 0.030838 -0.000060
v 0.012391 0.030838 -0.010933
v 0.012391 0.030838 -0.000060
v 0.013819 0.030838 -0.010933
v 0.014201 0.030838 -0.000060
v 0.014201 0.030838 -0.010933
v 0.014932 0.030838 -0.000060
v 0.014842 0.030838 -0.010933
v 0.014842 0.030838 -0.000060
v 0.014932 0.030838 -0.010933
v 0.014932 0.020439 -0.000060
v 0.014932 0.020439 -0.010933
v 0.014170 0.030898 -0.011821
v 0.014540 0.031200 -0.012042
v 0.014570 0.031169 -0.011821
v 0.014540 0.031200 -0.012042
v 0.014570 0.031169 -0.011821
v 0.014570 0.031169 -0.011049
v 0.014842 0.031568 -0.011821
v 0.014842 0.031568 -0.011049
v 0.014842 0.031568 -0.011821
v 0.014842 0.031568 -0.011821
v 0.014540 0.031200 -0.012042
v 0.014766 0.031575 -0.012055
v 0.014842 0.050414 -0.012060
v 0.014842 0.048863 -0.012060
v 0.014570 0.048863 -0.012284
v 0.014570 0.050414 -0.012284
v 0.014766 0.050768 -0.012055
v 0.014540 0.050746 -0.012266
v 0.013694 0.031169 -0.012284
v 0.013694 0.031568 -0.012446
v 0.014140 0.031200 -0.012266
v 0.014162 0.031575 -0.012401
v 0.012145 0.031169 -0.012284
v 0.012145 0.031568 -0.012446
v 0.013694 0.030898 -0.012060
v 0.012145 0.030898 -0.012060
v 0.014162 0.030973 -0.012055
v 0.014842 0.050776 -0.011821
v 0.014540 0.051108 -0.012042
v 0.014570 0.051138 -0.011821
v 0.014540 0.051108 -0.012042
v 0.014570 0.051138 -0.011821
v 0.014570 0.051138 -0.011049
v 0.014170 0.051409 -0.011821
v 0.014540 0.051108 -0.012042
v 0.013694 0.051409 -0.012060
v 0.014162 0.051334 -0.012055
v 0.014140 0.051108 -0.012266
v 0.013694 0.051138 -0.012284
v 0.012145 0.051409 -0.012060
v 0.012145 0.051138 -0.012284
v -0.014842 0.031568 -0.011821
v -0.014540 0.031200 -0.012042
v -0.014570 0.031169 -0.011821
v -0.014540 0.031200 -0.012042
v -0.014842 0.031568 -0.011821
v -0.014766 0.031575 -0.012055
v -0.014842 0.031568 -0.011049
v -0.014842 0.031568 -0.011821
v -0.014570 0.031169 -0.011049
v -0.014570 0.031169 -0.011821
v -0.014203 0.030898 -0.011821
v -0.014203 0.030898 -0.011049
v -0.014203 0.030898 -0.011821
v -0.014203 0.030898 -0.011821
v -0.014540 0.031200 -0.012042
v -0.014195 0.030973 -0.012055
v -0.014203 0.048863 -0.012446
v -0.014570 0.050414 -0.012284
v -0.014203 0.050414 -0.012446
v -0.014570 0.048863 -0.012284
v -0.014540 0.050746 -0.012266
v -0.014195 0.050768 -0.012401
v -0.014841 0.050414 -0.012060
v -0.014766 0.050768 -0.012055
v -0.014841 0.048863 -0.012060
v -0.014203 0.051409 -0.011821
v -0.014540 0.051108 -0.012042
v -0.014570 0.051138 -0.011821
v -0.014540 0.051108 -0.012042
v -0.014203 0.051409 -0.011821
v -0.014195 0.051334 -0.012055
v -0.014203 0.051409 -0.011049
v -0.014203 0.051409 -0.011821
v -0.014570 0.051138 -0.011049
v -0.014570 0.051138 -0.011821
v -0.014841 0.050776 -0.011049
v -0.014841 0.050776 -0.011821
v -0.014841 0.050776 -0.011821
v -0.014540 0.051108 -0.012042
v -0.014504 -0.051138 -0.000060
v -0.014776 -0.050741 -0.010933
v -0.014504 -0.051138 -0.010933
v -0.014776 -0.050741 -0.000060
v -0.014132 -0.051409 -0.010933
v -0.014132 -0.051409 -0.000060
v 0.013819 -0.051408 -0.012041
v 0.012391 -0.051408 -0.012041
v 0.012391 -0.051137 -0.012284
v 0.013819 -0.051137 -0.012284
v 0.014194 -0.051333 -0.012036
v 0.014171 -0.051106 -0.012266
v 0.013819 -0.050740 -0.012446
v 0.014194 -0.050732 -0.012401
v 0.012391 -0.050740 -0.012446
v -0.014132 0.020438 -0.012446
v -0.014504 0.030838 -0.012284
v -0.014132 0.030838 -0.012446
v -0.014504 0.020438 -0.012284
v -0.014474 0.030838 -0.012266
v -0.014124 0.030838 -0.012401
v -0.014776 0.030838 -0.012041
v -0.014701 0.030838 -0.012036
v -0.014776 0.020438 -0.012041
v -0.014504 0.030838 -0.010933
v -0.014504 0.030838 -0.000060
v -0.014132 0.030838 -0.000060
v -0.014132 0.030838 -0.010933
v 0.012391 0.030838 -0.012284
v 0.013819 0.030838 -0.012284
v 0.014171 0.030838 -0.012266
v 0.013819 0.030838 -0.012041
v 0.014194 0.030838 -0.012036
v 0.012391 0.030838 -0.012041
v 0.014570 -0.051137 -0.000060
v 0.014570 -0.051137 -0.010933
v 0.014842 -0.050740 -0.010933
v 0.014842 -0.050740 -0.000060
v 0.014842 0.020439 -0.012041
v 0.014570 0.030838 -0.012284
v 0.014842 0.030838 -0.012041
v 0.014570 0.020439 -0.012284
v 0.014766 0.030838 -0.012036
v 0.014540 0.030838 -0.012266
v 0.014570 0.030838 -0.010933
v 0.014570 0.030838 -0.000060
v 0.014766 0.031575 -0.012055
v 0.014449 0.031290 -0.012212
v 0.014540 0.031598 -0.012266
v 0.014540 0.031200 -0.012042
v 0.014449 0.051017 -0.012212
v 0.014540 0.051108 -0.012042
v -0.014195 0.030973 -0.012055
v -0.014449 0.031290 -0.012212
v -0.014173 0.031200 -0.012266
v -0.014540 0.031200 -0.012042
v -0.014195 0.031575 -0.012401
v -0.014540 0.031598 -0.012266
v -0.014766 0.031575 -0.012055
v -0.014449 0.051017 -0.012212
v -0.014540 0.051108 -0.012042
v -0.014172 0.051108 -0.012266
v -0.014195 0.051334 -0.012055
v -0.014124 -0.051334 -0.012036
v -0.014384 -0.051017 -0.012212
v -0.014102 -0.051108 -0.012266
v -0.014474 -0.051108 -0.012023
v -0.014124 -0.050734 -0.012401
v -0.014474 -0.050711 -0.012266
v -0.014701 -0.050734 -0.012036
v -0.014384 0.030838 -0.012212
v -0.014474 0.030838 -0.012023
v -0.014102 0.030838 -0.012266
v -0.014124 0.030838 -0.012036
v 0.014766 -0.050732 -0.012036
v 0.014449 -0.051016 -0.012212
v 0.014540 -0.050710 -0.012266
v 0.014540 -0.051106 -0.012023
v 0.014449 0.030838 -0.012212
v 0.014540 0.030838 -0.012023
v -0.014932 0.048863 -0.000060
v -0.014932 0.050414 -0.000060
v -0.014841 0.050776 -0.000060
v -0.014570 0.031169 -0.000060
v -0.014842 0.031568 -0.000060
v -0.014203 0.030898 -0.000060
v 0.013694 0.030807 -0.000060
v 0.014170 0.030898 -0.000060
v 0.012145 0.030807 -0.000060
v 0.014570 0.031169 -0.000060
v 0.014842 0.031568 -0.000060
v 0.014932 0.050414 -0.000060
v 0.014842 0.050776 -0.000060
v 0.014932 0.048863 -0.000060
v 0.014570 0.051138 -0.000060
v 0.014170 0.051409 -0.000060
v 0.013694 0.051500 -0.000060
v 0.012145 0.051500 -0.000060
v -0.014570 0.051138 -0.000060
v -0.014203 0.051409 -0.000060
v -0.014841 0.050776 -0.000060
v -0.014932 0.033697 -0.000060
v -0.014932 0.033697 -0.011049
v -0.014842 0.033697 -0.012060
v -0.014932 0.033697 -0.011821
v -0.014932 0.033697 -0.011821
v -0.014203 0.033697 -0.012446
v -0.014570 0.033697 -0.012284
v -0.014842 0.033697 -0.012060
v 0.013694 0.033697 -0.012500
v 0.012145 0.033697 -0.012500
v 0.014170 0.033697 -0.012446
v 0.014842 0.033697 -0.012060
v 0.014570 0.033697 -0.012284
v 0.014932 0.033697 -0.011821
v 0.014842 0.033697 -0.012060
v 0.014932 0.033697 -0.011049
v 0.014932 0.033697 -0.011821
v 0.014932 0.033697 -0.000060
v -0.013825 0.051500 -0.000060
v -0.013825 0.051500 -0.011049
v -0.012419 0.051500 -0.000060
v -0.012419 0.051500 -0.011049
v -0.013825 0.051500 -0.011821
v -0.014195 0.051334 -0.012055
v -0.013825 0.051500 -0.011821
v -0.013825 0.051409 -0.012060
v -0.012419 0.051500 -0.011821
v -0.012419 0.051409 -0.012060
v -0.012419 0.051500 -0.011821
v -0.013825 0.051500 -0.011821
v -0.013825 0.051409 -0.012060
v -0.012419 0.051409 -0.012060
v -0.012419 0.051138 -0.012284
v -0.013825 0.051138 -0.012284
v -0.013825 0.050776 -0.012446
v -0.012419 0.050776 -0.012446
v -0.012419 0.050414 -0.012500
v -0.013825 0.050414 -0.012500
v -0.013825 0.048863 -0.012500
v -0.012419 0.048863 -0.012500
v -0.012420 0.033697 -0.012500
v -0.013826 0.033697 -0.012500
v -0.012420 0.031169 -0.012284
v -0.013826 0.031169 -0.012284
v -0.013826 0.031568 -0.012446
v -0.012420 0.031568 -0.012446
v -0.013826 0.030898 -0.012060
v -0.012420 0.030898 -0.012060
v -0.012420 0.030807 -0.011821
v -0.013826 0.030807 -0.011821
v -0.013826 0.030898 -0.012060
v -0.012420 0.030898 -0.012060
v -0.014195 0.030973 -0.012055
v -0.013826 0.030807 -0.011821
v -0.013826 0.030807 -0.011049
v -0.013826 0.030807 -0.011821
v -0.012420 0.030807 -0.011049
v -0.012420 0.030807 -0.011821
v -0.013826 0.030807 -0.000060
v -0.012420 0.030807 -0.000060
v 0.013819 0.030838 -0.012041
v 0.012391 0.030838 -0.011743
v 0.013819 0.030838 -0.011743
v 0.012391 0.030838 -0.012041
v 0.014194 0.030838 -0.012036
v 0.014201 0.030838 -0.011743
v 0.014201 0.030838 -0.011743
v 0.013819 0.030838 -0.011743
v 0.012391 0.030838 -0.011743
v 0.014842 0.030838 -0.011743
v 0.014540 0.030838 -0.012023
v 0.014570 0.030838 -0.011743
v 0.014540 0.030838 -0.012023
v 0.014842 0.030838 -0.011743
v 0.014766 0.030838 -0.012036
v 0.014842 0.030838 -0.011743
v 0.014570 0.030838 -0.011743
v 0.014201 0.030838 -0.011743
v 0.014540 0.030838 -0.012023
v 0.014932 0.030838 -0.011743
v 0.014932 0.030838 -0.011743
v 0.014766 0.030838 -0.012036
v 0.014932 0.030838 -0.011743
v 0.014842 0.030838 -0.012041
v 0.014842 0.020439 -0.012041
v 0.014932 0.020439 -0.011743
v 0.014932 0.020439 -0.011743
v 0.014201 -0.051408 -0.011743
v 0.014540 -0.051106 -0.012023
v 0.014570 -0.051137 -0.011743
v 0.014540 -0.051106 -0.012023
v 0.014201 -0.051408 -0.011743
v 0.014194 -0.051333 -0.012036
v 0.014201 -0.051408 -0.011743
v 0.014570 -0.051137 -0.011743
v 0.014842 -0.050740 -0.011743
v 0.014842 -0.050740 -0.011743
v 0.014842 -0.050740 -0.011743
v 0.014540 -0.051106 -0.012023
v 0.014766 -0.050732 -0.012036
v 0.013819 -0.051499 -0.011743
v 0.013819 -0.051499 -0.011743
v 0.013819 -0.051408 -0.012041
v 0.012391 -0.051408 -0.012041
v 0.012391 -0.051499 -0.011743
v 0.012391 -0.051499 -0.011743
v -0.014776 -0.050741 -0.011743
v -0.014474 -0.051108 -0.012023
v -0.014504 -0.051138 -0.011743
v -0.014474 -0.051108 -0.012023
v -0.014776 -0.050741 -0.011743
v -0.014701 -0.050734 -0.012036
v -0.014776 -0.050741 -0.011743
v -0.014504 -0.051138 -0.011743
v -0.014132 -0.051409 -0.011743
v -0.014132 -0.051409 -0.011743
v -0.014132 -0.051409 -0.011743
v -0.014474 -0.051108 -0.012023
v -0.014124 -0.051334 -0.012036
v -0.014867 0.030838 -0.011743
v -0.014867 0.020438 -0.011743
v -0.014867 0.030838 -0.011743
v -0.014776 0.020438 -0.012041
v -0.014867 0.020438 -0.011743
v -0.014776 0.030838 -0.012041
v -0.014701 0.030838 -0.012036
v -0.014701 0.030838 -0.012036
v -0.014867 0.030838 -0.011743
v -0.014776 0.030838 -0.011743
v -0.014776 0.030838 -0.011743
v -0.014132 0.030838 -0.011743
v -0.014474 0.030838 -0.012023
v -0.014504 0.030838 -0.011743
v -0.014474 0.030838 -0.012023
v -0.014132 0.030838 -0.011743
v -0.014124 0.030838 -0.012036
v -0.014132 0.030838 -0.011743
v -0.014504 0.030838 -0.011743
v -0.014776 0.030838 -0.011743
v -0.014474 0.030838 -0.012023
v -0.013738 0.030838 -0.000060
v -0.014132 0.030838 -0.010933
v -0.014132 0.030838 -0.000060
v -0.013738 0.030838 -0.010933
v -0.012272 0.030838 -0.010933
v -0.012272 0.030838 -0.000060
v -0.013738 0.030838 -0.011743
v -0.013738 0.030838 -0.012041
v -0.012272 0.030838 -0.011743
v -0.012272 0.030838 -0.012041
v -0.012272 0.030838 -0.011743
v -0.013738 0.030838 -0.011743
v -0.014132 0.030838 -0.011743
v -0.013738 0.030838 -0.012446
v -0.013738 0.030838 -0.012284
v -0.012272 0.030838 -0.012446
v -0.012272 0.030838 -0.012284
v -0.013738 0.030838 -0.012041
v -0.012272 0.030838 -0.012041
v -0.012272 0.030838 -0.012500
v -0.013738 0.030838 -0.012500
v -0.013738 0.020438 -0.012500
v -0.012272 0.020438 -0.012500
v -0.013738 -0.051409 -0.012041
v -0.013738 -0.051138 -0.012284
v -0.012272 -0.051138 -0.012284
v -0.012272 -0.051409 -0.012041
v -0.013738 -0.050741 -0.012446
v -0.012272 -0.050741 -0.012446
v -0.012272 -0.051500 -0.010933
v -0.013738 -0.051500 -0.010933
v -0.012272 -0.051500 -0.011743
v -0.013738 -0.051500 -0.011743
v -0.013738 -0.051409 -0.012041
v -0.012272 -0.051500 -0.011743
v -0.013738 -0.051500 -0.011743
v -0.012272 -0.051409 -0.012041
v -0.013738 -0.051500 -0.000060
v -0.012272 -0.051500 -0.000060
v -0.014867 -0.048463 -0.000060
v -0.014867 -0.048463 -0.010933
v -0.014867 -0.048463 -0.011743
v -0.014776 -0.048463 -0.012041
v -0.014867 -0.048463 -0.011743
v -0.014132 -0.048463 -0.012446
v -0.014504 -0.048463 -0.012284
v -0.014776 -0.048463 -0.012041
v -0.012272 -0.048462 -0.012500
v -0.013738 -0.048463 -0.012500
v 0.014201 -0.048461 -0.012446
v 0.013819 -0.048461 -0.012500
v 0.012391 -0.048461 -0.012500
v 0.014842 -0.048461 -0.012041
v 0.014570 -0.048461 -0.012284
v 0.014932 -0.048461 -0.010933
v 0.014932 -0.048461 -0.011743
v 0.014842 -0.048461 -0.012041
v 0.014932 -0.048461 -0.011743
v 0.014932 -0.048461 -0.000060
v -0.014932 0.032038 -0.000060
v -0.014932 0.032038 -0.011049
v -0.014932 0.032038 -0.011821
v -0.014766 0.031575 -0.012055
v -0.014932 0.032038 -0.011821
v -0.014842 0.032038 -0.012060
v -0.014932 0.032038 -0.011821
v -0.014203 0.032038 -0.012446
v -0.014570 0.032038 -0.012284
v -0.014842 0.032038 -0.012060
v -0.013826 0.032038 -0.012500
v -0.012420 0.032038 -0.012500
v 0.012145 0.032038 -0.012500
v 0.013694 0.032038 -0.012500
v 0.014170 0.032038 -0.012446
v 0.014842 0.032038 -0.012060
v 0.014570 0.032038 -0.012284
v 0.014932 0.032038 -0.011821
v 0.014842 0.032038 -0.012060
v 0.014766 0.031575 -0.012055
v 0.014932 0.032038 -0.011821
v 0.014932 0.032038 -0.011049
v 0.014932 0.032038 -0.011821
v 0.014932 0.032038 -0.000060
v -0.014867 -0.050275 -0.000060
v -0.014867 -0.050275 -0.010933
v -0.014867 -0.050275 -0.011743
v -0.014867 -0.050275 -0.011743
v -0.014701 -0.050734 -0.012036
v -0.014867 -0.050275 -0.011743
v -0.014776 -0.050275 -0.012041
v -0.014132 -0.050275 -0.012446
v -0.014504 -0.050275 -0.012284
v -0.014776 -0.050275 -0.012041
v -0.013738 -0.050275 -0.012500
v -0.012272 -0.050275 -0.012500
v 0.012391 -0.050274 -0.012500
v 0.013819 -0.050274 -0.012500
v 0.014201 -0.050274 -0.012446
v 0.014842 -0.050274 -0.012041
v 0.014570 -0.050274 -0.012284
v 0.014932 -0.050274 -0.010933
v 0.014932 -0.050274 -0.011743
v 0.014932 -0.050274 -0.011743
v 0.014842 -0.050274 -0.012041
v 0.014766 -0.050732 -0.012036
v 0.014932 -0.050274 -0.011743
v 0.014842 -0.050740 -0.010933
v 0.014842 -0.050740 -0.011743
v 0.014932 -0.050274 -0.000060
v 0.014842 -0.050740 -0.000060
f 1 2 3
f 4 5 6
f 7 6 8
f 6 7 4
f 9 10 11
f 10 9 12
f 9 11 13
f 13 11 14
f 15 16 17
f 16 15 18
f 16 18 19
f 18 20 19
f 16 21 22
f 21 16 19
f 23 16 22
f 16 23 17
f 24 25 26
f 27 28 29
f 29 30 31
f 29 31 27
f 32 33 34
f 33 35 34
f 32 34 36
f 36 34 37
f 38 39 40
f 39 38 41
f 42 41 38
f 43 44 45
f 46 47 48
f 47 46 49
f 50 46 48
f 50 48 51
f 52 53 54
f 53 52 55
f 56 55 52
f 57 58 59
f 60 61 62
f 62 63 60
f 61 64 65
f 64 61 60
f 66 67 68
f 68 67 69
f 70 67 66
f 67 70 71
f 72 73 74
f 73 72 75
f 76 73 75
f 73 76 77
f 73 77 78
f 77 79 78
f 73 80 74
f 80 73 78
f 81 82 83
f 82 81 84
f 85 84 81
f 84 85 86
f 87 88 89
f 89 88 90
f 91 92 87
f 87 92 88
f 93 94 95
f 95 94 96
f 97 98 93
f 93 98 94
f 24 26 99
f 100 101 102
f 103 37 104
f 37 103 36
f 103 104 105
f 105 104 106
f 107 108 109
f 110 100 102
f 111 112 113
f 114 113 112
f 115 114 112
f 115 112 116
f 23 22 115
f 115 22 114
f 113 114 22
f 22 21 113
f 117 118 119
f 118 117 120
f 121 117 122
f 117 121 120
f 123 124 121
f 120 121 124
f 118 120 124
f 118 124 125
f 1 3 126
f 127 128 129
f 130 14 131
f 14 130 13
f 130 131 49
f 49 131 47
f 132 45 44
f 133 127 129
f 134 135 136
f 135 137 136
f 134 138 139
f 138 134 136
f 15 134 139
f 134 15 17
f 135 134 17
f 135 17 23
f 140 141 142
f 143 144 145
f 146 147 148
f 148 149 146
f 147 146 150
f 150 146 151
f 152 153 154
f 155 143 145
f 156 157 158
f 157 156 159
f 160 158 161
f 158 160 156
f 156 160 162
f 160 163 162
f 159 156 162
f 159 162 164
f 165 166 167
f 168 169 170
f 171 172 173
f 173 174 171
f 172 175 176
f 175 172 171
f 177 59 58
f 178 168 170
f 179 180 181
f 180 179 182
f 181 180 183
f 183 180 184
f 185 186 187
f 188 187 186
f 189 188 186
f 189 186 190
f 191 189 192
f 189 191 188
f 193 188 191
f 188 193 187
f 194 195 196
f 195 194 197
f 198 196 199
f 196 198 194
f 194 198 200
f 198 201 200
f 194 202 197
f 202 194 200
f 203 204 205
f 205 204 206
f 205 86 85
f 86 205 206
f 76 75 207
f 208 207 75
f 209 208 75
f 209 75 72
f 208 209 210
f 209 211 210
f 207 208 210
f 207 210 212
f 213 214 68
f 68 69 213
f 214 213 215
f 215 213 216
f 217 218 219
f 218 217 220
f 221 218 220
f 221 220 222
f 72 74 221
f 221 74 218
f 219 218 74
f 74 80 219
f 223 96 224
f 96 223 95
f 223 92 91
f 92 223 224
f 225 226 227
f 226 225 228
f 119 225 227
f 225 119 118
f 125 225 118
f 225 125 228
f 229 137 135
f 137 229 230
f 23 229 135
f 229 23 115
f 116 229 115
f 229 116 230
f 231 232 233
f 232 231 234
f 235 231 233
f 231 235 236
f 237 231 236
f 231 237 234
f 238 163 160
f 163 238 239
f 238 161 240
f 161 238 160
f 241 238 240
f 238 241 239
f 242 243 244
f 243 242 245
f 246 242 244
f 242 246 247
f 248 242 247
f 242 248 245
f 249 201 198
f 201 249 250
f 249 199 251
f 199 249 198
f 252 249 251
f 249 252 250
f 253 254 255
f 254 253 256
f 192 253 255
f 253 192 189
f 190 253 189
f 253 190 256
f 257 211 209
f 211 257 258
f 72 257 209
f 257 72 221
f 222 257 221
f 257 222 258
f 60 259 64
f 259 60 260
f 63 260 60
f 260 63 261
f 149 262 146
f 146 262 263
f 146 264 151
f 264 146 263
f 34 265 37
f 37 265 266
f 35 265 34
f 265 35 267
f 268 104 37
f 37 266 268
f 104 268 106
f 106 268 269
f 270 14 11
f 14 270 271
f 10 272 11
f 11 272 270
f 273 131 14
f 14 271 273
f 131 273 47
f 47 273 274
f 48 275 51
f 51 275 276
f 48 274 275
f 274 48 47
f 174 277 171
f 171 277 278
f 171 279 175
f 279 171 278
f 64 280 281
f 280 64 259
f 53 282 54
f 282 53 283
f 65 281 284
f 281 65 64
f 159 285 157
f 285 159 286
f 159 287 286
f 287 159 164
f 20 288 19
f 288 20 289
f 19 290 21
f 290 19 288
f 291 111 113
f 111 291 292
f 291 113 21
f 21 290 291
f 8 293 294
f 8 294 7
f 12 295 10
f 295 12 296
f 10 295 297
f 10 297 272
f 298 277 174
f 277 298 299
f 300 301 298
f 298 301 299
f 165 302 166
f 303 304 305
f 306 305 307
f 305 306 303
f 308 309 298
f 309 300 298
f 308 298 173
f 173 298 174
f 310 311 312
f 313 312 311
f 240 313 311
f 240 311 241
f 313 240 314
f 240 161 314
f 313 315 312
f 315 313 314
f 314 316 315
f 316 314 317
f 161 317 314
f 317 161 158
f 318 317 158
f 158 157 318
f 317 319 316
f 319 317 318
f 318 320 319
f 320 318 321
f 321 318 157
f 157 285 321
f 322 323 324
f 323 322 325
f 235 233 322
f 322 233 325
f 325 233 326
f 233 232 326
f 325 327 323
f 327 325 326
f 328 329 330
f 329 328 331
f 332 331 328
f 333 154 153
f 334 335 150
f 150 151 334
f 336 335 334
f 336 334 337
f 334 338 337
f 337 338 339
f 338 334 151
f 151 264 338
f 300 51 276
f 300 276 301
f 39 306 40
f 307 40 306
f 309 50 51
f 309 51 300
f 139 310 312
f 310 139 138
f 312 15 139
f 15 312 315
f 315 18 15
f 18 315 316
f 316 20 18
f 20 316 319
f 319 289 20
f 289 319 320
f 323 121 324
f 122 324 121
f 323 123 121
f 123 323 327
f 30 330 329
f 30 329 31
f 336 35 33
f 35 336 337
f 35 337 339
f 35 339 267
f 340 341 342
f 341 340 343
f 344 343 340
f 343 344 345
f 87 346 347
f 347 91 87
f 348 346 87
f 348 87 89
f 349 350 351
f 352 353 354
f 223 355 356
f 356 95 223
f 355 223 347
f 347 223 91
f 357 345 344
f 358 352 354
f 359 93 356
f 356 93 95
f 349 360 350
f 361 362 363
f 364 361 363
f 361 364 365
f 359 97 93
f 97 359 366
f 367 368 369
f 370 371 372
f 214 373 374
f 374 68 214
f 373 214 375
f 375 214 215
f 376 377 378
f 379 370 372
f 380 66 374
f 374 66 68
f 367 381 368
f 381 367 382
f 383 381 382
f 381 383 384
f 380 385 66
f 385 70 66
f 386 387 388
f 389 390 391
f 181 392 393
f 393 179 181
f 392 183 394
f 183 392 181
f 395 396 397
f 398 389 391
f 399 83 400
f 83 399 81
f 401 402 403
f 402 401 404
f 405 402 404
f 406 407 408
f 81 399 409
f 409 85 81
f 410 411 412
f 413 414 415
f 205 416 417
f 417 203 205
f 416 85 409
f 85 416 205
f 418 408 407
f 419 413 415
f 420 421 422
f 421 420 423
f 424 421 423
f 421 424 425
f 410 426 411
f 426 410 427
f 428 427 429
f 427 428 426
f 430 431 423
f 431 424 423
f 430 423 432
f 432 423 420
f 433 251 434
f 251 199 434
f 433 435 436
f 435 433 434
f 437 438 436
f 433 436 438
f 251 433 438
f 251 438 252
f 434 439 435
f 439 434 440
f 199 440 434
f 440 199 196
f 440 195 441
f 195 440 196
f 440 442 439
f 442 440 441
f 443 244 444
f 244 243 444
f 445 443 444
f 445 444 446
f 447 445 448
f 445 447 443
f 246 244 447
f 447 244 443
f 449 450 451
f 449 451 452
f 453 454 455
f 454 453 456
f 397 456 453
f 456 397 396
f 451 450 394
f 394 183 451
f 451 457 452
f 452 457 458
f 457 451 183
f 183 184 457
f 83 459 460
f 459 83 82
f 400 460 461
f 460 400 83
f 403 462 401
f 462 403 463
f 197 464 195
f 464 197 465
f 465 197 202
f 465 202 466
f 441 467 442
f 467 441 468
f 468 441 195
f 195 464 468
f 78 469 80
f 469 78 470
f 79 470 78
f 470 79 471
f 219 472 217
f 472 219 473
f 473 219 80
f 80 469 473
f 366 474 97
f 474 366 475
f 476 365 364
f 365 476 477
f 97 474 478
f 97 478 98
f 89 425 424
f 425 89 90
f 341 428 342
f 429 342 428
f 431 348 89
f 431 89 424
f 436 76 207
f 76 436 435
f 436 207 212
f 436 212 437
f 435 77 76
f 77 435 439
f 77 442 79
f 442 77 439
f 471 79 442
f 442 467 471
f 445 185 187
f 185 445 446
f 445 187 448
f 193 448 187
f 449 70 385
f 70 449 452
f 454 383 455
f 383 454 384
f 70 452 458
f 70 458 71
f 149 479 262
f 479 149 480
f 479 480 281
f 281 280 479
f 140 481 141
f 482 483 484
f 283 484 282
f 484 283 482
f 485 284 480
f 284 281 480
f 485 480 148
f 148 480 149
f 486 487 236
f 486 236 235
f 286 486 285
f 486 286 487
f 287 488 286
f 487 286 488
f 236 487 488
f 236 488 237
f 321 489 320
f 489 321 490
f 285 490 321
f 490 285 486
f 490 235 322
f 235 490 486
f 490 324 489
f 324 490 322
f 320 491 289
f 491 320 489
f 489 122 491
f 122 489 324
f 289 492 288
f 492 289 491
f 122 117 491
f 492 491 117
f 492 119 493
f 119 492 117
f 288 493 290
f 493 288 492
f 494 227 495
f 227 226 495
f 494 292 291
f 292 494 495
f 290 494 291
f 494 290 493
f 494 493 227
f 493 119 227
f 496 294 293
f 294 496 497
f 498 497 496
f 499 109 108
f 500 501 105
f 105 106 500
f 296 501 500
f 296 500 295
f 295 502 297
f 502 295 500
f 502 500 106
f 106 269 502
f 503 182 179
f 182 503 504
f 504 503 460
f 460 459 504
f 505 461 503
f 461 460 503
f 505 179 393
f 179 505 503
f 386 506 387
f 507 508 509
f 509 462 463
f 509 463 507
f 510 511 247
f 510 247 246
f 465 510 464
f 510 465 511
f 466 511 465
f 511 466 512
f 247 511 512
f 247 512 248
f 468 513 467
f 513 468 514
f 464 514 468
f 514 464 510
f 514 246 447
f 246 514 510
f 514 448 513
f 448 514 447
f 467 515 471
f 515 467 513
f 513 193 515
f 193 513 448
f 470 516 469
f 516 470 517
f 471 517 470
f 517 471 515
f 193 191 515
f 517 515 191
f 517 192 516
f 192 517 191
f 518 255 519
f 255 254 519
f 473 518 519
f 473 519 472
f 469 518 473
f 518 469 516
f 518 516 255
f 516 192 255
f 475 520 521
f 475 521 474
f 476 522 477
f 522 476 523
f 524 522 523
f 525 378 377
f 521 520 526
f 526 527 521
f 521 478 474
f 478 521 528
f 521 529 528
f 529 521 527
f 530 531 532
f 533 534 535
f 536 535 534
f 535 536 537
f 538 539 540
f 539 538 541
f 542 543 540
f 540 539 542
f 544 545 546
f 545 544 547
f 548 549 547
f 548 547 544
f 550 544 551
f 544 550 548
f 544 552 551
f 552 544 546
f 553 554 555
f 556 557 558
f 559 558 557
f 558 559 560
f 561 562 563
f 561 563 564
f 565 566 561
f 561 564 565
f 567 568 569
f 567 569 570
f 568 571 569
f 572 573 574
f 575 576 577
f 576 575 578
f 579 577 580
f 577 576 580
f 581 582 583
f 582 581 584
f 583 585 581
f 586 587 588
f 589 590 591
f 591 590 592
f 593 592 594
f 592 593 591
f 595 596 597
f 596 595 598
f 595 599 598
f 599 595 600
f 601 602 603
f 602 601 604
f 601 605 604
f 605 601 606
f 607 608 606
f 607 606 601
f 609 601 603
f 601 609 607
f 610 611 612
f 611 610 613
f 613 614 611
f 614 613 615
f 616 617 618
f 617 616 619
f 619 616 620
f 620 621 619
f 622 623 624
f 623 622 625
f 625 622 626
f 626 627 625
f 628 629 630
f 631 555 554
f 566 632 633
f 632 566 565
f 634 635 633
f 633 632 634
f 630 629 636
f 637 638 639
f 640 641 642
f 640 642 643
f 644 640 645
f 640 643 645
f 551 645 643
f 645 551 552
f 550 551 642
f 642 551 643
f 646 647 648
f 648 647 649
f 650 647 646
f 647 650 651
f 652 653 650
f 652 650 646
f 654 652 648
f 652 646 648
f 655 656 657
f 658 532 531
f 543 659 660
f 659 543 542
f 578 575 660
f 660 659 578
f 657 656 661
f 574 662 572
f 663 664 665
f 663 665 666
f 666 667 663
f 667 666 668
f 545 666 546
f 666 545 668
f 552 546 665
f 546 666 665
f 669 670 671
f 672 673 674
f 675 676 677
f 677 676 678
f 679 680 677
f 677 678 679
f 671 670 681
f 682 683 684
f 685 686 687
f 686 685 688
f 686 689 687
f 687 689 690
f 691 692 689
f 691 689 686
f 686 688 691
f 693 691 688
f 694 695 696
f 697 698 699
f 700 701 702
f 702 701 703
f 704 703 705
f 703 704 702
f 696 695 706
f 588 707 586
f 708 709 710
f 709 708 711
f 708 712 713
f 712 708 710
f 714 715 716
f 714 716 717
f 718 714 719
f 714 717 719
f 717 720 719
f 719 720 721
f 717 722 720
f 722 717 716
f 723 724 725
f 724 723 726
f 724 727 725
f 725 727 728
f 729 730 727
f 729 727 724
f 724 731 729
f 731 724 726
f 732 733 734
f 734 735 732
f 733 732 615
f 615 732 614
f 604 605 736
f 604 736 737
f 602 604 738
f 604 737 738
f 739 740 738
f 739 738 737
f 737 736 739
f 741 739 736
f 597 596 742
f 742 596 743
f 742 744 745
f 744 742 743
f 746 747 748
f 747 746 749
f 750 748 751
f 748 747 751
f 603 751 747
f 751 603 602
f 609 603 749
f 749 603 747
f 624 752 753
f 752 624 623
f 752 620 753
f 620 752 621
f 754 755 756
f 755 754 757
f 649 755 648
f 755 649 756
f 654 755 757
f 755 654 648
f 664 758 665
f 758 664 759
f 552 758 645
f 758 552 665
f 644 758 759
f 758 644 645
f 760 761 762
f 761 760 763
f 761 764 762
f 764 761 765
f 766 761 763
f 761 766 765
f 692 767 689
f 767 692 768
f 690 767 769
f 767 690 689
f 770 767 768
f 767 770 769
f 771 772 773
f 772 771 774
f 772 775 773
f 775 772 776
f 777 772 774
f 772 777 776
f 730 778 727
f 778 730 779
f 728 778 780
f 778 728 727
f 781 778 779
f 778 781 780
f 782 783 784
f 783 782 785
f 721 783 719
f 783 721 784
f 718 783 785
f 783 718 719
f 740 786 738
f 786 740 787
f 602 786 751
f 786 602 738
f 750 786 787
f 786 750 751
f 788 591 593
f 591 788 789
f 789 589 591
f 589 789 790
f 677 791 792
f 792 675 677
f 793 677 680
f 677 793 791
f 794 566 795
f 566 794 561
f 794 562 561
f 562 794 796
f 795 566 797
f 797 566 633
f 797 635 798
f 635 797 633
f 799 543 800
f 543 799 540
f 540 799 801
f 801 538 540
f 800 543 802
f 802 543 660
f 802 575 803
f 575 802 660
f 804 579 805
f 579 804 577
f 803 577 804
f 577 803 575
f 702 806 807
f 807 700 702
f 806 702 808
f 808 702 704
f 809 593 810
f 593 809 788
f 582 811 812
f 811 582 584
f 594 810 593
f 810 594 813
f 814 688 685
f 688 814 815
f 688 816 693
f 816 688 815
f 817 549 548
f 549 817 818
f 819 548 550
f 548 819 817
f 641 820 821
f 641 821 642
f 819 550 821
f 821 550 642
f 822 537 536
f 537 822 823
f 824 541 538
f 541 824 825
f 801 826 538
f 826 824 538
f 827 828 807
f 807 828 700
f 828 827 829
f 829 830 828
f 831 699 698
f 832 833 834
f 835 834 833
f 834 835 836
f 828 830 837
f 828 837 838
f 701 700 828
f 828 838 701
f 839 840 841
f 839 841 842
f 770 839 769
f 839 842 769
f 843 690 769
f 843 769 842
f 842 844 843
f 844 842 841
f 845 846 843
f 845 843 844
f 846 690 843
f 690 846 687
f 685 687 847
f 847 687 846
f 848 846 845
f 846 848 847
f 849 847 848
f 847 849 850
f 814 685 850
f 850 685 847
f 851 852 853
f 851 853 854
f 762 853 852
f 853 762 764
f 855 760 762
f 855 762 852
f 852 856 855
f 856 852 851
f 857 858 859
f 857 859 860
f 858 861 859
f 684 862 682
f 680 679 863
f 863 679 864
f 865 863 866
f 863 864 866
f 867 865 868
f 865 867 863
f 793 680 867
f 867 680 863
f 829 805 830
f 805 579 830
f 835 567 570
f 835 570 836
f 580 837 579
f 830 579 837
f 668 840 667
f 840 668 841
f 545 844 841
f 545 841 668
f 547 844 545
f 844 547 845
f 549 848 845
f 549 845 547
f 849 848 818
f 818 848 549
f 650 851 854
f 650 854 651
f 653 856 851
f 653 851 650
f 857 560 559
f 560 857 860
f 562 865 866
f 562 866 563
f 796 868 562
f 868 865 562
f 869 870 871
f 870 869 872
f 871 873 869
f 873 871 874
f 621 875 619
f 619 875 876
f 617 619 877
f 619 876 877
f 878 879 880
f 881 882 883
f 623 884 752
f 752 884 885
f 875 621 752
f 752 885 875
f 880 879 886
f 874 887 873
f 884 623 625
f 625 888 884
f 889 883 882
f 890 891 892
f 891 893 892
f 893 891 894
f 627 888 625
f 888 627 895
f 896 897 898
f 899 900 901
f 596 902 743
f 743 902 903
f 904 744 743
f 743 903 904
f 898 897 905
f 906 907 908
f 902 596 598
f 598 909 902
f 910 901 900
f 901 910 911
f 910 912 911
f 912 910 913
f 598 599 914
f 598 914 909
f 915 916 917
f 918 919 920
f 709 921 710
f 710 921 922
f 712 922 923
f 922 712 710
f 917 916 924
f 925 926 927
f 612 928 929
f 928 612 611
f 930 931 932
f 931 930 933
f 930 934 933
f 935 936 937
f 614 938 611
f 611 938 928
f 939 940 941
f 942 943 944
f 735 945 732
f 732 945 946
f 614 946 938
f 946 614 732
f 941 940 947
f 937 948 935
f 949 950 951
f 950 949 952
f 949 953 952
f 953 949 954
f 955 944 943
f 944 955 956
f 957 956 955
f 956 957 958
f 952 953 959
f 952 959 960
f 961 950 952
f 952 960 961
f 962 728 780
f 962 780 963
f 963 964 962
f 964 963 965
f 966 967 965
f 966 965 963
f 781 966 780
f 966 963 780
f 968 969 962
f 968 962 964
f 969 728 962
f 728 969 725
f 723 969 970
f 969 723 725
f 971 969 968
f 969 971 970
f 972 771 773
f 972 773 973
f 973 974 972
f 975 972 974
f 974 973 976
f 974 976 977
f 773 976 973
f 976 773 775
f 978 979 980
f 979 981 980
f 982 983 984
f 983 982 985
f 984 927 982
f 927 984 925
f 712 923 979
f 979 923 981
f 986 978 987
f 978 986 979
f 713 712 986
f 986 712 979
f 612 988 610
f 988 612 989
f 929 989 612
f 989 929 990
f 932 991 992
f 991 932 931
f 993 726 723
f 726 993 994
f 726 994 731
f 995 731 994
f 996 970 971
f 970 996 997
f 993 723 997
f 997 723 970
f 998 607 609
f 607 998 999
f 999 608 607
f 608 999 1000
f 1001 749 746
f 749 1001 1002
f 998 609 1002
f 1002 609 749
f 1003 895 627
f 895 1003 1004
f 894 1005 893
f 1005 894 1006
f 1003 627 1007
f 626 1007 627
f 954 617 953
f 617 954 618
f 957 870 872
f 957 872 958
f 877 959 617
f 953 617 959
f 605 964 965
f 605 965 736
f 736 965 741
f 967 741 965
f 606 964 605
f 964 606 968
f 971 606 608
f 606 971 968
f 996 971 1000
f 1000 971 608
f 715 975 974
f 715 974 716
f 716 974 977
f 716 977 722
f 599 978 980
f 599 980 914
f 983 912 913
f 912 983 985
f 600 987 599
f 987 978 599
f 1008 675 792
f 675 1008 1009
f 809 810 1008
f 1008 810 1009
f 1010 674 673
f 1011 1012 1013
f 812 1013 1012
f 1013 812 811
f 1009 810 813
f 1009 813 1014
f 676 675 1009
f 1009 1014 676
f 764 765 1015
f 765 1016 1015
f 1016 815 1015
f 1015 815 814
f 1017 816 815
f 1017 815 1016
f 766 1017 765
f 1017 1016 765
f 1018 850 1019
f 1019 850 849
f 1018 814 850
f 814 1018 1015
f 764 1018 853
f 1018 764 1015
f 1018 854 853
f 854 1018 1019
f 1020 849 818
f 849 1020 1019
f 1019 651 854
f 651 1019 1020
f 1021 818 817
f 818 1021 1020
f 647 651 1020
f 647 1020 1021
f 649 1021 1022
f 1021 649 647
f 1021 817 1022
f 1022 817 819
f 1023 754 756
f 1023 756 1024
f 1024 820 1023
f 820 1024 821
f 1024 819 821
f 819 1024 1022
f 756 649 1022
f 756 1022 1024
f 822 1025 1026
f 822 1026 823
f 1025 1027 1026
f 639 1028 637
f 635 634 1029
f 1029 634 1030
f 824 1029 825
f 1029 1030 825
f 1031 824 826
f 824 1031 1029
f 798 635 1031
f 1031 635 1029
f 1032 1033 711
f 711 1033 709
f 988 989 1032
f 1032 989 1033
f 1033 989 990
f 1033 990 1034
f 709 1034 921
f 1034 709 1033
f 1035 920 919
f 1036 1037 1038
f 992 1038 1037
f 1038 992 991
f 775 776 1039
f 776 1040 1039
f 1040 994 1039
f 1039 994 993
f 995 1040 1041
f 1040 995 994
f 777 1041 776
f 1041 1040 776
f 1042 997 1043
f 1043 997 996
f 1042 993 997
f 993 1042 1039
f 775 1042 976
f 1042 775 1039
f 1042 977 976
f 977 1042 1043
f 1044 996 1000
f 996 1044 1043
f 1043 722 977
f 722 1043 1044
f 1045 999 1046
f 1046 999 998
f 1045 1000 999
f 1000 1045 1044
f 720 722 1044
f 720 1044 1045
f 721 1045 1046
f 1045 721 720
f 1047 782 784
f 1047 784 1048
f 1048 1002 1047
f 1001 1047 1002
f 1048 998 1002
f 998 1048 1046
f 784 721 1046
f 784 1046 1048
f 1003 1049 1004
f 1049 1050 1004
f 1051 1005 1006
f 1005 1051 1052
f 1051 1053 1052
f 908 1054 906
f 1055 1056 1049
f 1049 1056 1050
f 1049 1007 1057
f 1007 1049 1003
f 1058 1049 1057
f 1049 1058 1055
