# block object, generated from the hand-authored decomposition
v -0.076570 -0.018393 -0.030900
v -0.073736 -0.045746 -0.030900
v 0.082230 -0.029587 -0.030900
v 0.079396 -0.002234 -0.030900
v -0.076570 -0.018393 0.026360
v -0.073736 -0.045746 0.026360
v 0.082230 -0.029587 0.026360
v 0.079396 -0.002234 0.026360
v -0.082210 0.045309 -0.030900
v -0.075250 -0.022333 -0.030900
v -0.052470 -0.019989 -0.030900
v -0.059430 0.047653 -0.030900
v -0.082210 0.045309 0.026360
v -0.075250 -0.022333 0.026360
v -0.052470 -0.019989 0.026360
v -0.059430 0.047653 0.026360
v 0.051190 0.057883 -0.030900
v 0.052677 -0.004099 -0.030900
v 0.075870 -0.003543 -0.030900
v 0.074383 0.058439 -0.030900
v 0.051190 0.057883 0.026360
v 0.052677 -0.004099 0.026360
v 0.075870 -0.003543 0.026360
v 0.074383 0.058439 0.026360
v -0.009962 -0.037484 -0.030900
v 0.011472 -0.035797 -0.030900
v 0.004882 0.047944 -0.030900
v -0.016552 0.046257 -0.030900
v -0.009962 -0.037484 0.026360
v 0.011472 -0.035797 0.026360
v 0.004882 0.047944 0.026360
v -0.016552 0.046257 0.026360
f 1 3 2
f 1 4 3
f 5 7 8
f 5 6 7
f 1 6 5
f 1 2 6
f 2 7 6
f 2 3 7
f 3 8 7
f 3 4 8
f 4 5 8
f 4 1 5
f 9 11 10
f 9 12 11
f 13 15 16
f 13 14 15
f 9 14 13
f 9 10 14
f 10 15 14
f 10 11 15
f 11 16 15
f 11 12 16
f 12 13 16
f 12 9 13
f 17 19 18
f 17 20 19
f 21 23 24
f 21 22 23
f 17 22 21
f 17 18 22
f 18 23 22
f 18 19 23
f 19 24 23
f 19 20 24
f 20 21 24
f 20 17 21
f 25 27 26
f 25 28 27
f 29 31 32
f 29 30 31
f 25 30 29
f 25 26 30
f 26 31 30
f 26 27 31
f 27 32 31
f 27 28 32
f 28 29 32
f 28 25 29
