# block object, generated from the hand-authored decomposition
v -0.022770 0.024630 -0.027040
v -0.022770 -0.055370 -0.027040
v 0.028230 -0.055370 -0.027040
v 0.028230 0.024630 -0.027040
v -0.022770 0.024630 0.027240
v -0.022770 -0.055370 0.027240
v 0.028230 -0.055370 0.027240
v 0.028230 0.024630 0.027240
v -0.069274 0.063794 -0.027040
v -0.009318 -0.089391 -0.027040
v 0.014894 -0.079914 -0.027040
v -0.045062 0.073271 -0.027040
v -0.069274 0.063794 0.027240
v -0.009318 -0.089391 0.027240
v 0.014894 -0.079914 0.027240
v -0.045062 0.073271 0.027240
v 0.032328 -0.028345 -0.027040
v 0.070962 0.070364 -0.027040
v 0.051592 0.077945 -0.027040
v 0.012958 -0.020764 -0.027040
v 0.032328 -0.028345 0.027240
v 0.070962 0.070364 0.027240
v 0.051592 0.077945 0.027240
v 0.012958 -0.020764 0.027240
f 1 3 2
f 1 4 3
f 5 7 8
f 5 6 7
f 1 6 5
f 1 2 6
f 2 7 6
f 2 3 7
f 3 8 7
f 3 4 8
f 4 5 8
f 4 1 5
f 9 11 10
f 9 12 11
f 13 15 16
f 13 14 15
f 9 14 13
f 9 10 14
f 10 15 14
f 10 11 15
f 11 16 15
f 11 12 16
f 12 13 16
f 12 9 13
f 17 19 18
f 17 20 19
f 21 23 24
f 21 22 23
f 17 22 21
f 17 18 22
f 18 23 22
f 18 19 23
f 19 24 23
f 19 20 24
f 20 21 24
f 20 17 21
