# block object, generated from the hand-authored decomposition
v -0.042697 -0.057704 -0.021600
v 0.041846 -0.054609 -0.021600
v 0.037097 0.075104 -0.021600
v -0.047446 0.072009 -0.021600
v -0.042697 -0.057704 0.022000
v 0.041846 -0.054609 0.022000
v 0.037097 0.075104 0.022000
v -0.047446 0.072009 0.022000
v -0.028442 -0.154815 -0.021600
v 0.001292 -0.159491 -0.021600
v 0.037042 0.067815 -0.021600
v 0.007308 0.072491 -0.021600
v -0.028442 -0.154815 0.022000
v 0.001292 -0.159491 0.022000
v 0.037042 0.067815 0.022000
v 0.007308 0.072491 0.022000
f 1 2 3
f 1 3 4
f 5 8 7
f 5 7 6
f 1 5 6
f 1 6 2
f 2 6 7
f 2 7 3
f 3 7 8
f 3 8 4
f 4 8 5
f 4 5 1
f 9 10 11
f 9 11 12
f 13 16 15
f 13 15 14
f 9 13 14
f 9 14 10
f 10 14 15
f 10 15 11
f 11 15 16
f 11 16 12
f 12 16 13
f 12 13 9
