# block object, generated from the hand-authored decomposition
v -0.106024 -0.019476 -0.028350
v -0.035323 -0.093551 -0.028350
v 0.103424 0.038876 -0.028350
v 0.032723 0.112951 -0.028350
v -0.106024 -0.019476 0.026750
v -0.035323 -0.093551 0.026750
v 0.103424 0.038876 0.026750
v 0.032723 0.112951 0.026750
v -0.091262 -0.084590 -0.028350
v -0.014327 -0.123467 -0.028350
v 0.067262 0.037990 -0.028350
v -0.009673 0.076867 -0.028350
v -0.091262 -0.084590 0.026750
v -0.014327 -0.123467 0.026750
v 0.067262 0.037990 0.026750
v -0.009673 0.076867 0.026750
v -0.065717 0.008112 -0.028350
v -0.017824 -0.045783 -0.028350
v 0.104917 0.063288 -0.028350
v 0.057024 0.117183 -0.028350
v -0.065717 0.008112 0.026750
v -0.017824 -0.045783 0.026750
v 0.104917 0.063288 0.026750
v 0.057024 0.117183 0.026750
f 1 3 2
f 1 4 3
f 5 7 8
f 5 6 7
f 1 6 5
f 1 2 6
f 2 7 6
f 2 3 7
f 3 8 7
f 3 4 8
f 4 5 8
f 4 1 5
f 9 11 10
f 9 12 11
f 13 15 16
f 13 14 15
f 9 14 13
f 9 10 14
f 10 15 14
f 10 11 15
f 11 16 15
f 11 12 16
f 12 13 16
f 12 9 13
f 17 19 18
f 17 20 19
f 21 23 24
f 21 22 23
f 17 22 21
f 17 18 22
f 18 23 22
f 18 19 23
f 19 24 23
f 19 20 24
f 20 21 24
f 20 17 21
