# block object, generated from the hand-authored decomposition
v -0.081382 -0.042755 -0.026115
v -0.057585 -0.043791 -0.026115
v -0.054158 0.034895 -0.026115
v -0.077955 0.035931 -0.026115
v -0.081382 -0.042755 0.026835
v -0.057585 -0.043791 0.026835
v -0.054158 0.034895 0.026835
v -0.077955 0.035931 0.026835
v -0.068364 0.025293 -0.026115
v 0.061885 0.032888 -0.026115
v 0.060464 0.057247 -0.026115
v -0.069785 0.049652 -0.026115
v -0.068364 0.025293 0.026835
v 0.061885 0.032888 0.026835
v 0.060464 0.057247 0.026835
v -0.069785 0.049652 0.026835
v -0.017216 -0.032402 -0.026115
v 0.007607 -0.032991 -0.026115
v 0.009076 0.028942 -0.026115
v -0.015747 0.029531 -0.026115
v -0.017216 -0.032402 0.026835
v 0.007607 -0.032991 0.026835
v 0.009076 0.028942 0.026835
v -0.015747 0.029531 0.026835
v 0.068835 -0.051307 -0.026115
v 0.069303 -0.024721 -0.026115
v -0.075335 -0.022173 -0.026115
v -0.075803 -0.048759 -0.026115
v 0.068835 -0.051307 0.026835
v 0.069303 -0.024721 0.026835
v -0.075335 -0.022173 0.026835
v -0.075803 -0.048759 0.026835
v 0.072135 0.043753 -0.026115
v 0.052186 0.043111 -0.026115
v 0.055025 -0.045013 -0.026115
v 0.074974 -0.044371 -0.026115
v 0.072135 0.043753 0.026835
v 0.052186 0.043111 0.026835
v 0.055025 -0.045013 0.026835
v 0.074974 -0.044371 0.026835
f 1 2 3
f 1 3 4
f 5 8 7
f 5 7 6
f 1 5 6
f 1 6 2
f 2 6 7
f 2 7 3
f 3 7 8
f 3 8 4
f 4 8 5
f 4 5 1
f 9 10 11
f 9 11 12
f 13 16 15
f 13 15 14
f 9 13 14
f 9 14 10
f 10 14 15
f 10 15 11
f 11 15 16
f 11 16 12
f 12 16 13
f 12 13 9
f 17 18 19
f 17 19 20
f 21 24 23
f 21 23 22
f 17 21 22
f 17 22 18
f 18 22 23
f 18 23 19
f 19 23 24
f 19 24 20
f 20 24 21
f 20 21 17
f 25 26 27
f 25 27 28
f 29 32 31
f 29 31 30
f 25 29 30
f 25 30 26
f 26 30 31
f 26 31 27
f 27 31 32
f 27 32 28
f 28 32 29
f 28 29 25
f 33 34 35
f 33 35 36
f 37 40 39
f 37 39 38
f 33 37 38
f 33 38 34
f 34 38 39
f 34 39 35
f 35 39 40
f 35 40 36
f 36 40 37
f 36 37 33
