# block object, generated from the hand-authored decomposition
v -0.013204 0.055798 -0.024539
v -0.006368 -0.057997 -0.024539
v 0.031564 -0.055718 -0.024539
v 0.024728 0.058077 -0.024539
v -0.013204 0.055798 0.025112
v -0.006368 -0.057997 0.025112
v 0.031564 -0.055718 0.025112
v 0.024728 0.058077 0.025112
v -0.113819 -0.062164 -0.024539
v -0.100158 -0.088873 -0.024539
v 0.008459 -0.033316 -0.024539
v -0.005202 -0.006607 -0.024539
v -0.113819 -0.062164 0.025112
v -0.100158 -0.088873 0.025112
v 0.008459 -0.033316 0.025112
v -0.005202 -0.006607 0.025112
v 0.029459 -0.060014 -0.024539
v 0.124721 -0.005014 -0.024539
v 0.110121 0.020274 -0.024539
v 0.014859 -0.034726 -0.024539
v 0.029459 -0.060014 0.025112
v 0.124721 -0.005014 0.025112
v 0.110121 0.020274 0.025112
v 0.014859 -0.034726 0.025112
v -0.110975 0.058932 -0.024539
v -0.005764 0.010080 -0.024539
v 0.004975 0.033208 -0.024539
v -0.100236 0.082060 -0.024539
v -0.110975 0.058932 0.025112
v -0.005764 0.010080 0.025112
v 0.004975 0.033208 0.025112
v -0.100236 0.082060 0.025112
v 0.102382 -0.008179 -0.024539
v 0.113684 0.016341 -0.024539
v 0.021958 0.058619 -0.024539
v 0.010656 0.034099 -0.024539
v 0.102382 -0.008179 0.025112
v 0.113684 0.016341 0.025112
v 0.021958 0.058619 0.025112
v 0.010656 0.034099 0.025112
f 1 2 3
f 1 3 4
f 5 8 7
f 5 7 6
f 1 5 6
f 1 6 2
f 2 6 7
f 2 7 3
f 3 7 8
f 3 8 4
f 4 8 5
f 4 5 1
f 9 10 11
f 9 11 12
f 13 16 15
f 13 15 14
f 9 13 14
f 9 14 10
f 10 14 15
f 10 15 11
f 11 15 16
f 11 16 12
f 12 16 13
f 12 13 9
f 17 18 19
f 17 19 20
f 21 24 23
f 21 23 22
f 17 21 22
f 17 22 18
f 18 22 23
f 18 23 19
f 19 23 24
f 19 24 20
f 20 24 21
f 20 21 17
f 25 26 27
f 25 27 28
f 29 32 31
f 29 31 30
f 25 29 30
f 25 30 26
f 26 30 31
f 26 31 27
f 27 31 32
f 27 32 28
f 28 32 29
f 28 29 25
f 33 34 35
f 33 35 36
f 37 40 39
f 37 39 38
f 33 37 38
f 33 38 34
f 34 38 39
f 34 39 35
f 35 39 40
f 35 40 36
f 36 40 37
f 36 37 33
