# block object, generated from the hand-authored decomposition
v 0.059040 -0.052970 -0.027655
v 0.059040 -0.026970 -0.027655
v -0.060960 -0.026970 -0.027655
v -0.060960 -0.052970 -0.027655
v 0.059040 -0.052970 0.026215
v 0.059040 -0.026970 0.026215
v -0.060960 -0.026970 0.026215
v -0.060960 -0.052970 0.026215
v 0.054040 0.035530 -0.027655
v 0.054040 -0.037470 -0.027655
v 0.080040 -0.037470 -0.027655
v 0.080040 0.035530 -0.027655
v 0.054040 0.035530 0.026215
v 0.054040 -0.037470 0.026215
v 0.080040 -0.037470 0.026215
v 0.080040 0.035530 0.026215
v -0.077960 0.039030 -0.027655
v -0.077960 -0.038970 -0.027655
v -0.055960 -0.038970 -0.027655
v -0.055960 0.039030 -0.027655
v -0.077960 0.039030 0.026215
v -0.077960 -0.038970 0.026215
v -0.055960 -0.038970 0.026215
v -0.055960 0.039030 0.026215
v 0.016820 0.042303 -0.027655
v 0.064950 0.025436 -0.027655
v 0.073880 0.050917 -0.027655
v 0.025750 0.067784 -0.027655
v 0.016820 0.042303 0.026215
v 0.064950 0.025436 0.026215
v 0.073880 0.050917 0.026215
v 0.025750 0.067784 0.026215
v -0.067341 0.052634 -0.027655
v -0.060048 0.030558 -0.027655
v -0.019219 0.044046 -0.027655
v -0.026512 0.066122 -0.027655
v -0.067341 0.052634 0.026215
v -0.060048 0.030558 0.026215
v -0.019219 0.044046 0.026215
v -0.026512 0.066122 0.026215
f 1 2 3
f 1 3 4
f 5 8 7
f 5 7 6
f 1 5 6
f 1 6 2
f 2 6 7
f 2 7 3
f 3 7 8
f 3 8 4
f 4 8 5
f 4 5 1
f 9 10 11
f 9 11 12
f 13 16 15
f 13 15 14
f 9 13 14
f 9 14 10
f 10 14 15
f 10 15 11
f 11 15 16
f 11 16 12
f 12 16 13
f 12 13 9
f 17 18 19
f 17 19 20
f 21 24 23
f 21 23 22
f 17 21 22
f 17 22 18
f 18 22 23
f 18 23 19
f 19 23 24
f 19 24 20
f 20 24 21
f 20 21 17
f 25 26 27
f 25 27 28
f 29 32 31
f 29 31 30
f 25 29 30
f 25 30 26
f 26 30 31
f 26 31 27
f 27 31 32
f 27 32 28
f 28 32 29
f 28 29 25
f 33 34 35
f 33 35 36
f 37 40 39
f 37 39 38
f 33 37 38
f 33 38 34
f 34 38 39
f 34 39 35
f 35 39 40
f 35 40 36
f 36 40 37
f 36 37 33
