# block object, generated from the hand-authored decomposition
v 0.023076 -0.040639 -0.026555
v 0.011276 0.036089 -0.026555
v -0.007256 0.033239 -0.026555
v 0.004544 -0.043489 -0.026555
v 0.023076 -0.040639 0.026375
v 0.011276 0.036089 0.026375
v -0.007256 0.033239 0.026375
v 0.004544 -0.043489 0.026375
v 0.007900 -0.005723 -0.026555
v 0.089599 0.033966 -0.026555
v 0.079020 0.055743 -0.026555
v -0.002679 0.016054 -0.026555
v 0.007900 -0.005723 0.026375
v 0.089599 0.033966 0.026375
v 0.079020 0.055743 0.026375
v -0.002679 0.016054 0.026375
v -0.068548 0.040309 -0.026555
v -0.077404 -0.027948 -0.026555
v -0.053812 -0.031009 -0.026555
v -0.044956 0.037248 -0.026555
v -0.068548 0.040309 0.026375
v -0.077404 -0.027948 0.026375
v -0.053812 -0.031009 0.026375
v -0.044956 0.037248 0.026375
v 0.077818 -0.028032 -0.026555
v -0.074655 -0.015227 -0.026555
v -0.076778 -0.040508 -0.026555
v 0.075695 -0.053313 -0.026555
v 0.077818 -0.028032 0.026375
v -0.074655 -0.015227 0.026375
v -0.076778 -0.040508 0.026375
v 0.075695 -0.053313 0.026375
v 0.007158 0.051374 -0.026555
v -0.055130 0.056983 -0.026555
v -0.057638 0.029126 -0.026555
v 0.004650 0.023517 -0.026555
v 0.007158 0.051374 0.026375
v -0.055130 0.056983 0.026375
v -0.057638 0.029126 0.026375
v 0.004650 0.023517 0.026375
f 1 3 2
f 1 4 3
f 5 7 8
f 5 6 7
f 1 6 5
f 1 2 6
f 2 7 6
f 2 3 7
f 3 8 7
f 3 4 8
f 4 5 8
f 4 1 5
f 9 11 10
f 9 12 11
f 13 15 16
f 13 14 15
f 9 14 13
f 9 10 14
f 10 15 14
f 10 11 15
f 11 16 15
f 11 12 16
f 12 13 16
f 12 9 13
f 17 19 18
f 17 20 19
f 21 23 24
f 21 22 23
f 17 22 21
f 17 18 22
f 18 23 22
f 18 19 23
f 19 24 23
f 19 20 24
f 20 21 24
f 20 17 21
f 25 27 26
f 25 28 27
f 29 31 32
f 29 30 31
f 25 30 29
f 25 26 30
f 26 31 30
f 26 27 31
f 27 32 31
f 27 28 32
f 28 29 32
f 28 25 29
f 33 35 34
f 33 36 35
f 37 39 40
f 37 38 39
f 33 38 37
f 33 34 38
f 34 39 38
f 34 35 39
f 35 40 39
f 35 36 40
f 36 37 40
f 36 33 37
