# block object, generated from the hand-authored decomposition
v 0.036721 0.074327 -0.023600
v 0.042325 -0.076068 -0.023600
v 0.064359 -0.075247 -0.023600
v 0.058755 0.075148 -0.023600
v 0.036721 0.074327 0.023760
v 0.042325 -0.076068 0.023760
v 0.064359 -0.075247 0.023760
v 0.058755 0.075148 0.023760
v -0.030890 -0.083580 -0.023600
v -0.035540 0.071350 -0.023600
v -0.058530 0.070660 -0.023600
v -0.053880 -0.084270 -0.023600
v -0.030890 -0.083580 0.023760
v -0.035540 0.071350 0.023760
v -0.058530 0.070660 0.023760
v -0.053880 -0.084270 0.023760
v -0.045170 0.009975 -0.023600
v -0.044139 -0.011501 -0.023600
v 0.051750 -0.006895 -0.023600
v 0.050719 0.014581 -0.023600
v -0.045170 0.009975 0.023760
v -0.044139 -0.011501 0.023760
v 0.051750 -0.006895 0.023760
v 0.050719 0.014581 0.023760
f 1 2 3
f 1 3 4
f 5 8 7
f 5 7 6
f 1 5 6
f 1 6 2
f 2 6 7
f 2 7 3
f 3 7 8
f 3 8 4
f 4 8 5
f 4 5 1
f 9 10 11
f 9 11 12
f 13 16 15
f 13 15 14
f 9 13 14
f 9 14 10
f 10 14 15
f 10 15 11
f 11 15 16
f 11 16 12
f 12 16 13
f 12 13 9
f 17 18 19
f 17 19 20
f 21 24 23
f 21 23 22
f 17 21 22
f 17 22 18
f 18 22 23
f 18 23 19
f 19 23 24
f 19 24 20
f 20 24 21
f 20 21 17
